%FSLAX44Y44*%
%MOMM*%
G71*
G01*
G75*
G04 Layer_Color=8388736*
%ADD10C,0.4000*%
%ADD11C,0.2500*%
%ADD12C,0.2000*%
%ADD13C,0.6000*%
%ADD14C,0.2540*%
%ADD15O,1.4000X0.4500*%
%ADD16O,0.4500X1.4000*%
%ADD17O,0.6000X1.9000*%
%ADD18O,0.4900X1.4400*%
%ADD19O,0.8000X2.1000*%
%ADD20C,2.2000*%
%ADD21O,1.4000X2.7000*%
%ADD22R,1.4000X2.7000*%
%ADD23C,1.4000*%
%ADD24O,1.1000X2.1000*%
%ADD25O,1.1000X2.1000*%
%ADD26R,1.7000X1.7000*%
%ADD27C,1.7000*%
%ADD28C,1.5000*%
%ADD29C,3.2000*%
%ADD30C,3.9000*%
%ADD31R,2.7000X1.4000*%
%ADD32O,2.7000X1.4000*%
%ADD33C,0.2000*%
D15*
X359500Y469150D02*
D03*
Y475650D02*
D03*
Y482150D02*
D03*
Y488650D02*
D03*
X318500Y469150D02*
D03*
Y475650D02*
D03*
Y482150D02*
D03*
Y488650D02*
D03*
X366500Y623150D02*
D03*
Y629650D02*
D03*
Y636150D02*
D03*
Y642650D02*
D03*
X325500Y623150D02*
D03*
Y629650D02*
D03*
Y636150D02*
D03*
Y642650D02*
D03*
X829500Y469150D02*
D03*
Y475650D02*
D03*
Y482150D02*
D03*
Y488650D02*
D03*
X788500Y469150D02*
D03*
Y475650D02*
D03*
Y482150D02*
D03*
Y488650D02*
D03*
X836500Y623150D02*
D03*
Y629650D02*
D03*
Y636150D02*
D03*
Y642650D02*
D03*
X795500Y623150D02*
D03*
Y629650D02*
D03*
Y636150D02*
D03*
Y642650D02*
D03*
D18*
X197250Y326511D02*
D03*
X190750D02*
D03*
X184250D02*
D03*
X177750D02*
D03*
X171250D02*
D03*
X164750D02*
D03*
X158250D02*
D03*
X151750D02*
D03*
X145250D02*
D03*
X138750D02*
D03*
X197250Y267511D02*
D03*
X190750D02*
D03*
X184250D02*
D03*
X177750D02*
D03*
X171250D02*
D03*
X164750D02*
D03*
X158250D02*
D03*
X151750D02*
D03*
X145250D02*
D03*
X138750D02*
D03*
X667250Y326511D02*
D03*
X660750D02*
D03*
X654250D02*
D03*
X647750D02*
D03*
X641250D02*
D03*
X634750D02*
D03*
X628250D02*
D03*
X621750D02*
D03*
X615250D02*
D03*
X608750D02*
D03*
X667250Y267511D02*
D03*
X660750D02*
D03*
X654250D02*
D03*
X647750D02*
D03*
X641250D02*
D03*
X634750D02*
D03*
X628250D02*
D03*
X621750D02*
D03*
X615250D02*
D03*
X608750D02*
D03*
D19*
X332050Y762400D02*
D03*
X319350D02*
D03*
X306650D02*
D03*
X293950D02*
D03*
X332050Y715400D02*
D03*
X319350D02*
D03*
X306650D02*
D03*
X293950D02*
D03*
X330950Y341400D02*
D03*
X343650D02*
D03*
X356350D02*
D03*
X369050D02*
D03*
X330950Y388400D02*
D03*
X343650D02*
D03*
X356350D02*
D03*
X369050D02*
D03*
X802050Y762400D02*
D03*
X789350D02*
D03*
X776650D02*
D03*
X763950D02*
D03*
X802050Y715400D02*
D03*
X789350D02*
D03*
X776650D02*
D03*
X763950D02*
D03*
X800950Y341400D02*
D03*
X813650D02*
D03*
X826350D02*
D03*
X839050D02*
D03*
X800950Y388400D02*
D03*
X813650D02*
D03*
X826350D02*
D03*
X839050D02*
D03*
D20*
X401000Y488650D02*
D03*
Y650250D02*
D03*
X104000Y279900D02*
D03*
X138800Y683900D02*
D03*
X113400D02*
D03*
X88000D02*
D03*
X330050Y90900D02*
D03*
Y210900D02*
D03*
X200000Y830900D02*
D03*
X238000Y828900D02*
D03*
X871000Y488650D02*
D03*
Y650250D02*
D03*
X574000Y279900D02*
D03*
X608800Y683900D02*
D03*
X583400D02*
D03*
X558000D02*
D03*
X800050Y90900D02*
D03*
Y210900D02*
D03*
X670000Y830900D02*
D03*
X708000Y828900D02*
D03*
D21*
X251400Y796900D02*
D03*
X251400Y757900D02*
D03*
X721400Y796900D02*
D03*
X721400Y757900D02*
D03*
D22*
X226000Y796900D02*
D03*
X226000Y757900D02*
D03*
X696000Y796900D02*
D03*
X696000Y757900D02*
D03*
D23*
X180000Y637900D02*
D03*
X130000D02*
D03*
X325500Y684900D02*
D03*
X375500D02*
D03*
X307000Y642900D02*
D03*
X257000D02*
D03*
X266000Y324900D02*
D03*
X216000D02*
D03*
Y277900D02*
D03*
X266000D02*
D03*
X118000Y320900D02*
D03*
X68000D02*
D03*
X97000Y411900D02*
D03*
X47000D02*
D03*
X177000Y683900D02*
D03*
X227000D02*
D03*
X100000Y642650D02*
D03*
X50000D02*
D03*
X334293Y780900D02*
D03*
Y830900D02*
D03*
X289293Y780900D02*
D03*
Y830900D02*
D03*
X306000Y684900D02*
D03*
X256000D02*
D03*
X319000Y519900D02*
D03*
X369000D02*
D03*
X357000Y415900D02*
D03*
X407000D02*
D03*
X335000D02*
D03*
X285000D02*
D03*
X99520Y527100D02*
D03*
X49520D02*
D03*
X100000Y575900D02*
D03*
X50000D02*
D03*
X373000Y321900D02*
D03*
Y271900D02*
D03*
X328000Y321900D02*
D03*
Y271900D02*
D03*
X650000Y637900D02*
D03*
X600000D02*
D03*
X795500Y684900D02*
D03*
X845500D02*
D03*
X777000Y642900D02*
D03*
X727000D02*
D03*
X736000Y324900D02*
D03*
X686000D02*
D03*
Y277900D02*
D03*
X736000D02*
D03*
X588000Y320900D02*
D03*
X538000D02*
D03*
X567000Y411900D02*
D03*
X517000D02*
D03*
X647000Y683900D02*
D03*
X697000D02*
D03*
X570000Y642650D02*
D03*
X520000D02*
D03*
X804293Y780900D02*
D03*
Y830900D02*
D03*
X759293Y780900D02*
D03*
Y830900D02*
D03*
X776000Y684900D02*
D03*
X726000D02*
D03*
X789000Y519900D02*
D03*
X839000D02*
D03*
X827000Y415900D02*
D03*
X877000D02*
D03*
X805000D02*
D03*
X755000D02*
D03*
X569520Y527100D02*
D03*
X519520D02*
D03*
X570000Y575900D02*
D03*
X520000D02*
D03*
X843000Y321900D02*
D03*
Y271900D02*
D03*
X798000Y321900D02*
D03*
Y271900D02*
D03*
D24*
X130700Y369900D02*
D03*
X600700D02*
D03*
D25*
X118000D02*
D03*
X105300D02*
D03*
X588000D02*
D03*
X575300D02*
D03*
D26*
X180900Y590100D02*
D03*
X650900D02*
D03*
D27*
X180900Y564700D02*
D03*
Y539300D02*
D03*
Y513900D02*
D03*
Y488500D02*
D03*
Y463100D02*
D03*
Y437700D02*
D03*
X257100Y590100D02*
D03*
Y564700D02*
D03*
Y539300D02*
D03*
Y513900D02*
D03*
Y488500D02*
D03*
Y463100D02*
D03*
Y437700D02*
D03*
X650900Y564700D02*
D03*
Y539300D02*
D03*
Y513900D02*
D03*
Y488500D02*
D03*
Y463100D02*
D03*
Y437700D02*
D03*
X727100Y590100D02*
D03*
Y564700D02*
D03*
Y539300D02*
D03*
Y513900D02*
D03*
Y488500D02*
D03*
Y463100D02*
D03*
Y437700D02*
D03*
D28*
X138000Y527100D02*
D03*
Y575900D02*
D03*
X608000Y527100D02*
D03*
Y575900D02*
D03*
D29*
X80000Y745900D02*
D03*
X113000Y767900D02*
D03*
X146000Y745900D02*
D03*
X550000D02*
D03*
X583000Y767900D02*
D03*
X616000Y745900D02*
D03*
D30*
X80000Y819900D02*
D03*
X146000D02*
D03*
X550000D02*
D03*
X616000D02*
D03*
D31*
X380050Y95900D02*
D03*
X131000Y437900D02*
D03*
X280000Y67900D02*
D03*
X850050Y95900D02*
D03*
X601000Y437900D02*
D03*
X750000Y67900D02*
D03*
D32*
X380050Y121300D02*
D03*
Y146700D02*
D03*
Y172100D02*
D03*
Y197500D02*
D03*
X131000Y412500D02*
D03*
X76800Y194900D02*
D03*
Y169500D02*
D03*
Y144100D02*
D03*
Y118700D02*
D03*
Y93300D02*
D03*
Y67900D02*
D03*
X280000Y194900D02*
D03*
Y169500D02*
D03*
Y144100D02*
D03*
Y118700D02*
D03*
Y93300D02*
D03*
X850050Y121300D02*
D03*
Y146700D02*
D03*
Y172100D02*
D03*
Y197500D02*
D03*
X601000Y412500D02*
D03*
X546800Y194900D02*
D03*
Y169500D02*
D03*
Y144100D02*
D03*
Y118700D02*
D03*
Y93300D02*
D03*
Y67900D02*
D03*
X750000Y194900D02*
D03*
Y169500D02*
D03*
Y144100D02*
D03*
Y118700D02*
D03*
Y93300D02*
D03*
D33*
X22000Y22000D02*
D03*
X430000Y872500D02*
D03*
X492000Y22000D02*
D03*
X900000Y872500D02*
D03*
M02*
