%FSLAX44Y44*%
%MOMM*%
G71*
G01*
G75*
G04 Layer_Color=8421504*
%ADD10C,0.4000*%
%ADD11C,0.2500*%
%ADD12C,0.2000*%
%ADD13C,0.6000*%
%ADD14C,0.2540*%
%ADD15O,1.4000X0.4500*%
%ADD16O,0.4500X1.4000*%
%ADD17O,0.6000X1.9000*%
D15*
X359500Y469150D02*
D03*
Y475650D02*
D03*
Y482150D02*
D03*
Y488650D02*
D03*
X318500Y469150D02*
D03*
Y475650D02*
D03*
Y482150D02*
D03*
Y488650D02*
D03*
X366500Y623150D02*
D03*
Y629650D02*
D03*
Y636150D02*
D03*
Y642650D02*
D03*
X325500Y623150D02*
D03*
Y629650D02*
D03*
Y636150D02*
D03*
Y642650D02*
D03*
X829500Y469150D02*
D03*
Y475650D02*
D03*
Y482150D02*
D03*
Y488650D02*
D03*
X788500Y469150D02*
D03*
Y475650D02*
D03*
Y482150D02*
D03*
Y488650D02*
D03*
X836500Y623150D02*
D03*
Y629650D02*
D03*
Y636150D02*
D03*
Y642650D02*
D03*
X795500Y623150D02*
D03*
Y629650D02*
D03*
Y636150D02*
D03*
Y642650D02*
D03*
D16*
X197250Y326511D02*
D03*
X190750D02*
D03*
X184250D02*
D03*
X177750D02*
D03*
X171250D02*
D03*
X164750D02*
D03*
X158250D02*
D03*
X151750D02*
D03*
X145250D02*
D03*
X138750D02*
D03*
X197250Y267511D02*
D03*
X190750D02*
D03*
X184250D02*
D03*
X177750D02*
D03*
X171250D02*
D03*
X164750D02*
D03*
X158250D02*
D03*
X151750D02*
D03*
X145250D02*
D03*
X138750D02*
D03*
X667250Y326511D02*
D03*
X660750D02*
D03*
X654250D02*
D03*
X647750D02*
D03*
X641250D02*
D03*
X634750D02*
D03*
X628250D02*
D03*
X621750D02*
D03*
X615250D02*
D03*
X608750D02*
D03*
X667250Y267511D02*
D03*
X660750D02*
D03*
X654250D02*
D03*
X647750D02*
D03*
X641250D02*
D03*
X634750D02*
D03*
X628250D02*
D03*
X621750D02*
D03*
X615250D02*
D03*
X608750D02*
D03*
D17*
X332050Y762400D02*
D03*
X319350D02*
D03*
X306650D02*
D03*
X293950D02*
D03*
X332050Y715400D02*
D03*
X319350D02*
D03*
X306650D02*
D03*
X293950D02*
D03*
X330950Y341400D02*
D03*
X343650D02*
D03*
X356350D02*
D03*
X369050D02*
D03*
X330950Y388400D02*
D03*
X343650D02*
D03*
X356350D02*
D03*
X369050D02*
D03*
X802050Y762400D02*
D03*
X789350D02*
D03*
X776650D02*
D03*
X763950D02*
D03*
X802050Y715400D02*
D03*
X789350D02*
D03*
X776650D02*
D03*
X763950D02*
D03*
X800950Y341400D02*
D03*
X813650D02*
D03*
X826350D02*
D03*
X839050D02*
D03*
X800950Y388400D02*
D03*
X813650D02*
D03*
X826350D02*
D03*
X839050D02*
D03*
M02*
