%FSLAX44Y44*%
%MOMM*%
G71*
G01*
G75*
G04 Layer_Color=65535*
%ADD10O,1.4000X0.4500*%
%ADD11O,0.4500X1.4000*%
%ADD12O,0.6000X1.9000*%
%ADD13C,1.2000*%
%ADD14C,0.4500*%
%ADD15C,2.0000*%
%ADD16C,0.6000*%
%ADD17C,1.0000*%
%ADD18C,0.2500*%
%ADD19C,2.0000*%
%ADD20O,1.2000X2.5000*%
%ADD21R,1.2000X2.5000*%
%ADD22C,1.2000*%
%ADD23O,1.0000X2.0000*%
%ADD24O,1.0000X2.0000*%
%ADD25R,1.5000X1.5000*%
%ADD26C,1.5000*%
%ADD27C,1.3000*%
%ADD28C,3.0000*%
%ADD29C,3.7000*%
%ADD30R,2.5000X1.2000*%
%ADD31O,2.5000X1.2000*%
%ADD32C,0.6200*%
%ADD33C,0.4000*%
%ADD34C,0.2000*%
%ADD35C,0.2540*%
D16*
X194000Y305511D02*
G03*
X194000Y305511I-3000J0D01*
G01*
X205500Y602400D02*
G03*
X205500Y602400I-3000J0D01*
G01*
X664000Y305511D02*
G03*
X664000Y305511I-3000J0D01*
G01*
X675500Y602400D02*
G03*
X675500Y602400I-3000J0D01*
G01*
D18*
X319750Y496400D02*
G03*
X319750Y496400I-1250J0D01*
G01*
X206250Y326511D02*
G03*
X206250Y326511I-1250J0D01*
G01*
X89220Y356190D02*
G03*
X89220Y356190I-1250J0D01*
G01*
X182150Y603100D02*
G03*
X182150Y603100I-1250J0D01*
G01*
X341800Y762400D02*
G03*
X341800Y762400I-1250J0D01*
G01*
X326750Y650400D02*
G03*
X326750Y650400I-1250J0D01*
G01*
X323700Y341400D02*
G03*
X323700Y341400I-1250J0D01*
G01*
X789750Y496400D02*
G03*
X789750Y496400I-1250J0D01*
G01*
X676250Y326511D02*
G03*
X676250Y326511I-1250J0D01*
G01*
X559220Y356190D02*
G03*
X559220Y356190I-1250J0D01*
G01*
X652150Y603100D02*
G03*
X652150Y603100I-1250J0D01*
G01*
X811800Y762400D02*
G03*
X811800Y762400I-1250J0D01*
G01*
X796750Y650400D02*
G03*
X796750Y650400I-1250J0D01*
G01*
X793700Y341400D02*
G03*
X793700Y341400I-1250J0D01*
G01*
X451500Y894500D02*
X470000D01*
X451750Y0D02*
X470250D01*
X-0Y-0D02*
X452000Y-0D01*
X0Y894500D02*
X452000Y894500D01*
X-0Y-0D02*
X0Y894500D01*
X452000Y-0D02*
X452000Y894500D01*
X470000Y-0D02*
X922000Y-0D01*
X470000Y894500D02*
X922000Y894500D01*
X470000Y-0D02*
X470000Y894500D01*
X922000Y-0D02*
X922000Y894500D01*
D33*
X339500Y486900D02*
G03*
X339500Y486900I-2000J0D01*
G01*
X332000Y740900D02*
G03*
X332000Y740900I-2000J0D01*
G01*
X346500Y640900D02*
G03*
X346500Y640900I-2000J0D01*
G01*
X335000Y362900D02*
G03*
X335000Y362900I-2000J0D01*
G01*
X809500Y486900D02*
G03*
X809500Y486900I-2000J0D01*
G01*
X802000Y740900D02*
G03*
X802000Y740900I-2000J0D01*
G01*
X816500Y640900D02*
G03*
X816500Y640900I-2000J0D01*
G01*
X805000Y362900D02*
G03*
X805000Y362900I-2000J0D01*
G01*
D34*
X173794Y644741D02*
G03*
X136206Y644741I-18794J-6840D01*
G01*
Y631060D02*
G03*
X173794Y631060I18794J6840D01*
G01*
X331706Y678060D02*
G03*
X369294Y678060I18794J6840D01*
G01*
Y691740D02*
G03*
X331706Y691740I-18794J-6840D01*
G01*
X300794Y649741D02*
G03*
X263206Y649741I-18794J-6840D01*
G01*
Y636060D02*
G03*
X300794Y636060I18794J6840D01*
G01*
X259794Y331740D02*
G03*
X222206Y331740I-18794J-6840D01*
G01*
Y318060D02*
G03*
X259794Y318060I18794J6840D01*
G01*
X222206Y271060D02*
G03*
X259794Y271060I18794J6840D01*
G01*
Y284741D02*
G03*
X222206Y284741I-18794J-6840D01*
G01*
X108000Y320900D02*
G03*
X108000Y320900I-15000J0D01*
G01*
X87000Y411900D02*
G03*
X87000Y411900I-15000J0D01*
G01*
X139708Y354700D02*
G03*
X96293Y354700I-21707J15200D01*
G01*
X212650Y612400D02*
G03*
X225350Y612400I6350J0D01*
G01*
X113000Y519600D02*
G03*
X163000Y519600I25000J0D01*
G01*
Y583400D02*
G03*
X113000Y583400I-25000J0D01*
G01*
X183206Y677060D02*
G03*
X220794Y677060I18794J6840D01*
G01*
Y690741D02*
G03*
X183206Y690741I-18794J-6840D01*
G01*
X90000Y642650D02*
G03*
X90000Y642650I-15000J0D01*
G01*
X341133Y787106D02*
G03*
X341133Y824694I-6840J18794D01*
G01*
X327452D02*
G03*
X327452Y787106I6840J-18794D01*
G01*
X296133D02*
G03*
X296133Y824694I-6840J18794D01*
G01*
X282452D02*
G03*
X282452Y787106I6840J-18794D01*
G01*
X296000Y684900D02*
G03*
X296000Y684900I-15000J0D01*
G01*
X325206Y513060D02*
G03*
X362794Y513060I18794J6840D01*
G01*
Y526740D02*
G03*
X325206Y526740I-18794J-6840D01*
G01*
X397000Y415900D02*
G03*
X397000Y415900I-15000J0D01*
G01*
X328794Y422741D02*
G03*
X291206Y422741I-18794J-6840D01*
G01*
Y409060D02*
G03*
X328794Y409060I18794J6840D01*
G01*
X89520Y527100D02*
G03*
X89520Y527100I-15000J0D01*
G01*
X90000Y575900D02*
G03*
X90000Y575900I-15000J0D01*
G01*
X366160Y315694D02*
G03*
X366160Y278106I6840J-18794D01*
G01*
X379841D02*
G03*
X379841Y315694I-6840J18794D01*
G01*
X321160D02*
G03*
X321160Y278106I6840J-18794D01*
G01*
X334841D02*
G03*
X334841Y315694I-6840J18794D01*
G01*
X329500Y462900D02*
X348500D01*
X329500Y494900D02*
X348500D01*
Y462900D02*
Y494900D01*
X329500Y462900D02*
Y494900D01*
X135000Y315511D02*
X201000D01*
X135000Y278511D02*
X201000D01*
Y315511D01*
X135000Y278511D02*
Y315511D01*
X96293Y354700D02*
X139708D01*
X192500Y415400D02*
Y612400D01*
X245500Y415400D02*
Y612400D01*
X192500D02*
X212650D01*
X225350D02*
X245500D01*
X192500Y415400D02*
X245500D01*
X113000Y519600D02*
Y583400D01*
X163000Y519600D02*
Y583400D01*
X49520Y715420D02*
Y770920D01*
Y852580D01*
X86350Y847500D02*
X139690D01*
X176520Y715420D02*
Y852580D01*
X49520Y715420D02*
X176520D01*
X139690Y847500D02*
X144770Y852580D01*
X176520D01*
X81270D02*
X86350Y847500D01*
X49520Y852580D02*
X81270D01*
X305050Y111220D02*
Y192500D01*
X355050Y111220D02*
Y192500D01*
X330050Y111220D02*
X355050D01*
X330050Y192500D02*
Y197580D01*
Y106140D02*
Y111220D01*
X305050D02*
X330050D01*
X305050Y192500D02*
X330050D01*
X355050D01*
X288000Y748900D02*
X338000D01*
X288000Y728900D02*
X338000D01*
Y748900D01*
X288000Y728900D02*
Y748900D01*
X336500Y616900D02*
X355500D01*
X336500Y648900D02*
X355500D01*
Y616900D02*
Y648900D01*
X336500Y616900D02*
Y648900D01*
X325000Y354900D02*
X375000D01*
X325000Y374900D02*
X375000D01*
X325000Y354900D02*
Y374900D01*
X375000Y354900D02*
Y374900D01*
X293400Y209220D02*
Y252900D01*
X63400Y209220D02*
Y252900D01*
Y3900D02*
Y47580D01*
X293400Y3900D02*
Y47580D01*
X63400Y252900D02*
X293400D01*
X63400Y3900D02*
X293400D01*
X643794Y644741D02*
G03*
X606206Y644741I-18794J-6840D01*
G01*
Y631060D02*
G03*
X643794Y631060I18794J6840D01*
G01*
X801706Y678060D02*
G03*
X839294Y678060I18794J6840D01*
G01*
Y691740D02*
G03*
X801706Y691740I-18794J-6840D01*
G01*
X770794Y649741D02*
G03*
X733206Y649741I-18794J-6840D01*
G01*
Y636060D02*
G03*
X770794Y636060I18794J6840D01*
G01*
X729794Y331740D02*
G03*
X692206Y331740I-18794J-6840D01*
G01*
Y318060D02*
G03*
X729794Y318060I18794J6840D01*
G01*
X692206Y271060D02*
G03*
X729794Y271060I18794J6840D01*
G01*
Y284741D02*
G03*
X692206Y284741I-18794J-6840D01*
G01*
X578000Y320900D02*
G03*
X578000Y320900I-15000J0D01*
G01*
X557000Y411900D02*
G03*
X557000Y411900I-15000J0D01*
G01*
X609708Y354700D02*
G03*
X566293Y354700I-21707J15200D01*
G01*
X682650Y612400D02*
G03*
X695350Y612400I6350J0D01*
G01*
X583000Y519600D02*
G03*
X633000Y519600I25000J0D01*
G01*
Y583400D02*
G03*
X583000Y583400I-25000J0D01*
G01*
X653206Y677060D02*
G03*
X690794Y677060I18794J6840D01*
G01*
Y690741D02*
G03*
X653206Y690741I-18794J-6840D01*
G01*
X560000Y642650D02*
G03*
X560000Y642650I-15000J0D01*
G01*
X811133Y787106D02*
G03*
X811133Y824694I-6840J18794D01*
G01*
X797452D02*
G03*
X797452Y787106I6840J-18794D01*
G01*
X766133D02*
G03*
X766133Y824694I-6840J18794D01*
G01*
X752452D02*
G03*
X752452Y787106I6840J-18794D01*
G01*
X766000Y684900D02*
G03*
X766000Y684900I-15000J0D01*
G01*
X795206Y513060D02*
G03*
X832794Y513060I18794J6840D01*
G01*
Y526740D02*
G03*
X795206Y526740I-18794J-6840D01*
G01*
X867000Y415900D02*
G03*
X867000Y415900I-15000J0D01*
G01*
X798794Y422741D02*
G03*
X761206Y422741I-18794J-6840D01*
G01*
Y409060D02*
G03*
X798794Y409060I18794J6840D01*
G01*
X559520Y527100D02*
G03*
X559520Y527100I-15000J0D01*
G01*
X560000Y575900D02*
G03*
X560000Y575900I-15000J0D01*
G01*
X836160Y315694D02*
G03*
X836160Y278106I6840J-18794D01*
G01*
X849840D02*
G03*
X849840Y315694I-6840J18794D01*
G01*
X791160D02*
G03*
X791160Y278106I6840J-18794D01*
G01*
X804841D02*
G03*
X804841Y315694I-6840J18794D01*
G01*
X799500Y462900D02*
X818500D01*
X799500Y494900D02*
X818500D01*
Y462900D02*
Y494900D01*
X799500Y462900D02*
Y494900D01*
X605000Y315511D02*
X671000D01*
X605000Y278511D02*
X671000D01*
Y315511D01*
X605000Y278511D02*
Y315511D01*
X566293Y354700D02*
X609708D01*
X662500Y415400D02*
Y612400D01*
X715500Y415400D02*
Y612400D01*
X662500D02*
X682650D01*
X695350D02*
X715500D01*
X662500Y415400D02*
X715500D01*
X583000Y519600D02*
Y583400D01*
X633000Y519600D02*
Y583400D01*
X519520Y715420D02*
Y770920D01*
Y852580D01*
X556350Y847500D02*
X609690D01*
X646520Y715420D02*
Y852580D01*
X519520Y715420D02*
X646520D01*
X609690Y847500D02*
X614770Y852580D01*
X646520D01*
X551270D02*
X556350Y847500D01*
X519520Y852580D02*
X551270D01*
X775050Y111220D02*
Y192500D01*
X825050Y111220D02*
Y192500D01*
X800050Y111220D02*
X825050D01*
X800050Y192500D02*
Y197580D01*
Y106140D02*
Y111220D01*
X775050D02*
X800050D01*
X775050Y192500D02*
X800050D01*
X825050D01*
X758000Y748900D02*
X808000D01*
X758000Y728900D02*
X808000D01*
Y748900D01*
X758000Y728900D02*
Y748900D01*
X806500Y616900D02*
X825500D01*
X806500Y648900D02*
X825500D01*
Y616900D02*
Y648900D01*
X806500Y616900D02*
Y648900D01*
X795000Y354900D02*
X845000D01*
X795000Y374900D02*
X845000D01*
X795000Y354900D02*
Y374900D01*
X845000Y354900D02*
Y374900D01*
X763400Y209220D02*
Y252900D01*
X533400Y209220D02*
Y252900D01*
Y3900D02*
Y47580D01*
X763400Y3900D02*
Y47580D01*
X533400Y252900D02*
X763400D01*
X533400Y3900D02*
X763400D01*
D35*
X63600Y663600D02*
X163200D01*
Y708050D01*
X63600Y663600D02*
Y708050D01*
X163200D01*
X107507Y626346D02*
X104968Y628885D01*
X99889D01*
X97350Y626346D01*
Y616189D01*
X99889Y613650D01*
X104968D01*
X107507Y616189D01*
X112585Y613650D02*
X117664D01*
X115124D01*
Y628885D01*
X112585Y626346D01*
X231157Y649596D02*
X228618Y652135D01*
X223539D01*
X221000Y649596D01*
Y639439D01*
X223539Y636900D01*
X228618D01*
X231157Y639439D01*
X246392Y636900D02*
X236235D01*
X246392Y647057D01*
Y649596D01*
X243853Y652135D01*
X238774D01*
X236235Y649596D01*
X72157Y504596D02*
X69618Y507135D01*
X64539D01*
X62000Y504596D01*
Y494439D01*
X64539Y491900D01*
X69618D01*
X72157Y494439D01*
X77235Y504596D02*
X79774Y507135D01*
X84853D01*
X87392Y504596D01*
Y502057D01*
X84853Y499518D01*
X82314D01*
X84853D01*
X87392Y496978D01*
Y494439D01*
X84853Y491900D01*
X79774D01*
X77235Y494439D01*
X362587Y452316D02*
X360048Y454855D01*
X354969D01*
X352430Y452316D01*
Y442159D01*
X354969Y439620D01*
X360048D01*
X362587Y442159D01*
X375283Y439620D02*
Y454855D01*
X367665Y447238D01*
X377822D01*
X290725Y457285D02*
X288186Y459824D01*
X283107D01*
X280568Y457285D01*
Y447128D01*
X283107Y444589D01*
X288186D01*
X290725Y447128D01*
X305960Y459824D02*
X295803D01*
Y452206D01*
X300881Y454745D01*
X303421D01*
X305960Y452206D01*
Y447128D01*
X303421Y444589D01*
X298342D01*
X295803Y447128D01*
X72157Y609596D02*
X69618Y612135D01*
X64539D01*
X62000Y609596D01*
Y599439D01*
X64539Y596900D01*
X69618D01*
X72157Y599439D01*
X87392Y612135D02*
X82313Y609596D01*
X77235Y604518D01*
Y599439D01*
X79774Y596900D01*
X84853D01*
X87392Y599439D01*
Y601978D01*
X84853Y604518D01*
X77235D01*
X401907Y328390D02*
X399368Y330929D01*
X394289D01*
X391750Y328390D01*
Y318233D01*
X394289Y315694D01*
X399368D01*
X401907Y318233D01*
X406985Y330929D02*
X417142D01*
Y328390D01*
X406985Y318233D01*
Y315694D01*
X296907Y330946D02*
X294368Y333485D01*
X289289D01*
X286750Y330946D01*
Y320789D01*
X289289Y318250D01*
X294368D01*
X296907Y320789D01*
X301985Y330946D02*
X304524Y333485D01*
X309603D01*
X312142Y330946D01*
Y328407D01*
X309603Y325868D01*
X312142Y323328D01*
Y320789D01*
X309603Y318250D01*
X304524D01*
X301985Y320789D01*
Y323328D01*
X304524Y325868D01*
X301985Y328407D01*
Y330946D01*
X304524Y325868D02*
X309603D01*
X200157Y643596D02*
X197618Y646135D01*
X192539D01*
X190000Y643596D01*
Y633439D01*
X192539Y630900D01*
X197618D01*
X200157Y633439D01*
X205235D02*
X207774Y630900D01*
X212853D01*
X215392Y633439D01*
Y643596D01*
X212853Y646135D01*
X207774D01*
X205235Y643596D01*
Y641057D01*
X207774Y638518D01*
X215392D01*
X324615Y561220D02*
X322076Y563759D01*
X316997D01*
X314458Y561220D01*
Y551063D01*
X316997Y548524D01*
X322076D01*
X324615Y551063D01*
X329693Y548524D02*
X334772D01*
X332232D01*
Y563759D01*
X329693Y561220D01*
X342389D02*
X344928Y563759D01*
X350007D01*
X352546Y561220D01*
Y551063D01*
X350007Y548524D01*
X344928D01*
X342389Y551063D01*
Y561220D01*
X261823Y721108D02*
X259284Y723647D01*
X254205D01*
X251666Y721108D01*
Y710951D01*
X254205Y708412D01*
X259284D01*
X261823Y710951D01*
X266901Y708412D02*
X271980D01*
X269440D01*
Y723647D01*
X266901Y721108D01*
X279597Y708412D02*
X284676D01*
X282136D01*
Y723647D01*
X279597Y721108D01*
X396157Y689596D02*
X393618Y692135D01*
X388539D01*
X386000Y689596D01*
Y679439D01*
X388539Y676900D01*
X393618D01*
X396157Y679439D01*
X401235Y676900D02*
X406314D01*
X403774D01*
Y692135D01*
X401235Y689596D01*
X424088Y676900D02*
X413931D01*
X424088Y687057D01*
Y689596D01*
X421549Y692135D01*
X416470D01*
X413931Y689596D01*
X285157Y271596D02*
X282618Y274135D01*
X277539D01*
X275000Y271596D01*
Y261439D01*
X277539Y258900D01*
X282618D01*
X285157Y261439D01*
X290235Y258900D02*
X295314D01*
X292774D01*
Y274135D01*
X290235Y271596D01*
X302931D02*
X305470Y274135D01*
X310549D01*
X313088Y271596D01*
Y269057D01*
X310549Y266518D01*
X308009D01*
X310549D01*
X313088Y263978D01*
Y261439D01*
X310549Y258900D01*
X305470D01*
X302931Y261439D01*
X233157Y362596D02*
X230618Y365135D01*
X225539D01*
X223000Y362596D01*
Y352439D01*
X225539Y349900D01*
X230618D01*
X233157Y352439D01*
X238235Y349900D02*
X243314D01*
X240774D01*
Y365135D01*
X238235Y362596D01*
X258549Y349900D02*
Y365135D01*
X250931Y357518D01*
X261088D01*
X325889Y858292D02*
X323350Y860831D01*
X318271D01*
X315732Y858292D01*
Y848135D01*
X318271Y845596D01*
X323350D01*
X325889Y848135D01*
X330967Y845596D02*
X336046D01*
X333506D01*
Y860831D01*
X330967Y858292D01*
X353820Y860831D02*
X343663D01*
Y853214D01*
X348741Y855753D01*
X351281D01*
X353820Y853214D01*
Y848135D01*
X351281Y845596D01*
X346202D01*
X343663Y848135D01*
X280931Y858292D02*
X278392Y860831D01*
X273313D01*
X270774Y858292D01*
Y848135D01*
X273313Y845596D01*
X278392D01*
X280931Y848135D01*
X286009Y845596D02*
X291088D01*
X288548D01*
Y860831D01*
X286009Y858292D01*
X308862Y860831D02*
X303783Y858292D01*
X298705Y853214D01*
Y848135D01*
X301244Y845596D01*
X306323D01*
X308862Y848135D01*
Y850675D01*
X306323Y853214D01*
X298705D01*
X61157Y347596D02*
X58618Y350135D01*
X53539D01*
X51000Y347596D01*
Y337439D01*
X53539Y334900D01*
X58618D01*
X61157Y337439D01*
X66235Y334900D02*
X71314D01*
X68774D01*
Y350135D01*
X66235Y347596D01*
X78931Y350135D02*
X89088D01*
Y347596D01*
X78931Y337439D01*
Y334900D01*
X62157Y445596D02*
X59618Y448135D01*
X54539D01*
X52000Y445596D01*
Y435439D01*
X54539Y432900D01*
X59618D01*
X62157Y435439D01*
X67235Y432900D02*
X72313D01*
X69774D01*
Y448135D01*
X67235Y445596D01*
X79931D02*
X82470Y448135D01*
X87549D01*
X90088Y445596D01*
Y443057D01*
X87549Y440518D01*
X90088Y437978D01*
Y435439D01*
X87549Y432900D01*
X82470D01*
X79931Y435439D01*
Y437978D01*
X82470Y440518D01*
X79931Y443057D01*
Y445596D01*
X82470Y440518D02*
X87549D01*
X306642Y229424D02*
Y244659D01*
X314260D01*
X316799Y242120D01*
Y237042D01*
X314260Y234503D01*
X306642D01*
X311721D02*
X316799Y229424D01*
X321877D02*
X326956D01*
X324416D01*
Y244659D01*
X321877Y242120D01*
X37000Y692135D02*
Y679439D01*
X39539Y676900D01*
X44618D01*
X47157Y679439D01*
Y692135D01*
X52235Y676900D02*
X57314D01*
X54774D01*
Y692135D01*
X52235Y689596D01*
X101000Y871135D02*
Y858439D01*
X103539Y855900D01*
X108618D01*
X111157Y858439D01*
Y871135D01*
X126392Y855900D02*
X116235D01*
X126392Y866057D01*
Y868596D01*
X123853Y871135D01*
X118774D01*
X116235Y868596D01*
X197617Y766135D02*
X187460D01*
Y758518D01*
X192539Y761057D01*
X195078D01*
X197617Y758518D01*
Y753439D01*
X195078Y750900D01*
X189999D01*
X187460Y753439D01*
X202695Y761057D02*
X207774Y750900D01*
X212852Y761057D01*
X336000Y608135D02*
Y595439D01*
X338539Y592900D01*
X343618D01*
X346157Y595439D01*
Y608135D01*
X358853Y592900D02*
Y608135D01*
X351235Y600518D01*
X361392D01*
X197617Y805135D02*
X187460D01*
Y797518D01*
X192539Y800057D01*
X195078D01*
X197617Y797518D01*
Y792439D01*
X195078Y789900D01*
X189999D01*
X187460Y792439D01*
X202695Y800057D02*
X207774Y789900D01*
X212852Y800057D01*
X319000Y357665D02*
Y370361D01*
X316461Y372900D01*
X311383D01*
X308843Y370361D01*
Y357665D01*
X293608D02*
X298687Y360204D01*
X303765Y365283D01*
Y370361D01*
X301226Y372900D01*
X296147D01*
X293608Y370361D01*
Y367822D01*
X296147Y365283D01*
X303765D01*
X207250Y409735D02*
Y397039D01*
X209789Y394500D01*
X214868D01*
X217407Y397039D01*
Y409735D01*
X222485D02*
X232642D01*
Y407196D01*
X222485Y397039D01*
Y394500D01*
X282000Y504935D02*
Y492239D01*
X284539Y489700D01*
X289618D01*
X292157Y492239D01*
Y504935D01*
X297235Y502396D02*
X299774Y504935D01*
X304853D01*
X307392Y502396D01*
Y499857D01*
X304853Y497318D01*
X307392Y494779D01*
Y492239D01*
X304853Y489700D01*
X299774D01*
X297235Y492239D01*
Y494779D01*
X299774Y497318D01*
X297235Y499857D01*
Y502396D01*
X299774Y497318D02*
X304853D01*
X120136Y467708D02*
Y455012D01*
X122675Y452473D01*
X127754D01*
X130293Y455012D01*
Y467708D01*
X135371Y455012D02*
X137910Y452473D01*
X142989D01*
X145528Y455012D01*
Y465169D01*
X142989Y467708D01*
X137910D01*
X135371Y465169D01*
Y462630D01*
X137910Y460090D01*
X145528D01*
X344500Y747135D02*
Y734439D01*
X347039Y731900D01*
X352118D01*
X354657Y734439D01*
Y747135D01*
X359735Y731900D02*
X364814D01*
X362274D01*
Y747135D01*
X359735Y744596D01*
X372431D02*
X374970Y747135D01*
X380049D01*
X382588Y744596D01*
Y734439D01*
X380049Y731900D01*
X374970D01*
X372431Y734439D01*
Y744596D01*
X170000Y357135D02*
Y344439D01*
X172539Y341900D01*
X177618D01*
X180157Y344439D01*
Y357135D01*
X185235Y341900D02*
X190313D01*
X187774D01*
Y357135D01*
X185235Y354596D01*
X197931Y341900D02*
X203009D01*
X200470D01*
Y357135D01*
X197931Y354596D01*
X301000Y20135D02*
Y7439D01*
X303539Y4900D01*
X308618D01*
X311157Y7439D01*
Y20135D01*
X316235Y4900D02*
X321314D01*
X318774D01*
Y20135D01*
X316235Y17596D01*
X339088Y4900D02*
X328931D01*
X339088Y15057D01*
Y17596D01*
X336549Y20135D01*
X331470D01*
X328931Y17596D01*
X146750Y399735D02*
Y387039D01*
X149289Y384500D01*
X154368D01*
X156907Y387039D01*
Y399735D01*
X161985Y384500D02*
X167064D01*
X164524D01*
Y399735D01*
X161985Y397196D01*
X174681D02*
X177220Y399735D01*
X182299D01*
X184838Y397196D01*
Y394657D01*
X182299Y392118D01*
X179759D01*
X182299D01*
X184838Y389578D01*
Y387039D01*
X182299Y384500D01*
X177220D01*
X174681Y387039D01*
X239611Y862725D02*
X229454D01*
Y855108D01*
X234533Y857647D01*
X237072D01*
X239611Y855108D01*
Y850029D01*
X237072Y847490D01*
X231993D01*
X229454Y850029D01*
X244689Y857647D02*
X249767Y847490D01*
X254846Y857647D01*
X49000Y287135D02*
Y274439D01*
X51539Y271900D01*
X56618D01*
X59157Y274439D01*
Y287135D01*
X64235Y271900D02*
X69314D01*
X66774D01*
Y287135D01*
X64235Y284596D01*
X87088Y287135D02*
X76931D01*
Y279518D01*
X82009Y282057D01*
X84549D01*
X87088Y279518D01*
Y274439D01*
X84549Y271900D01*
X79470D01*
X76931Y274439D01*
X191528Y862154D02*
X194067Y864693D01*
X199146D01*
X201685Y862154D01*
Y851997D01*
X199146Y849458D01*
X194067D01*
X191528Y851997D01*
Y862154D01*
X206763Y859615D02*
X211842Y849458D01*
X216920Y859615D01*
X369172Y227405D02*
Y214709D01*
X371711Y212170D01*
X376790D01*
X379329Y214709D01*
Y227405D01*
X384407Y212170D02*
X389486D01*
X386946D01*
Y227405D01*
X384407Y224866D01*
X397103Y227405D02*
X407260D01*
Y224866D01*
X397103Y214709D01*
Y212170D01*
X391000Y636335D02*
X396078D01*
X393539D01*
Y621100D01*
X391000D01*
X396078D01*
X403696D02*
Y631257D01*
X411314D01*
X413853Y628717D01*
Y621100D01*
X390000Y474735D02*
X395079D01*
X392539D01*
Y459500D01*
X390000D01*
X395079D01*
X402696D02*
Y469657D01*
X410313D01*
X412853Y467118D01*
Y459500D01*
X129000Y490135D02*
X139157Y474900D01*
Y490135D02*
X129000Y474900D01*
X144235D02*
X149313D01*
X146774D01*
Y490135D01*
X144235Y487596D01*
X196157Y721596D02*
X193618Y724135D01*
X188539D01*
X186000Y721596D01*
Y711439D01*
X188539Y708900D01*
X193618D01*
X196157Y711439D01*
X201235Y708900D02*
X206314D01*
X203774D01*
Y724135D01*
X201235Y721596D01*
X213931Y711439D02*
X216470Y708900D01*
X221549D01*
X224088Y711439D01*
Y721596D01*
X221549Y724135D01*
X216470D01*
X213931Y721596D01*
Y719057D01*
X216470Y716518D01*
X224088D01*
X533600Y663600D02*
X633200D01*
Y708050D01*
X533600Y663600D02*
Y708050D01*
X633200D01*
X577507Y626346D02*
X574968Y628885D01*
X569889D01*
X567350Y626346D01*
Y616189D01*
X569889Y613650D01*
X574968D01*
X577507Y616189D01*
X582585Y613650D02*
X587664D01*
X585124D01*
Y628885D01*
X582585Y626346D01*
X701157Y649596D02*
X698618Y652135D01*
X693539D01*
X691000Y649596D01*
Y639439D01*
X693539Y636900D01*
X698618D01*
X701157Y639439D01*
X716392Y636900D02*
X706235D01*
X716392Y647057D01*
Y649596D01*
X713853Y652135D01*
X708774D01*
X706235Y649596D01*
X542157Y504596D02*
X539618Y507135D01*
X534539D01*
X532000Y504596D01*
Y494439D01*
X534539Y491900D01*
X539618D01*
X542157Y494439D01*
X547235Y504596D02*
X549774Y507135D01*
X554853D01*
X557392Y504596D01*
Y502057D01*
X554853Y499518D01*
X552314D01*
X554853D01*
X557392Y496978D01*
Y494439D01*
X554853Y491900D01*
X549774D01*
X547235Y494439D01*
X832587Y452316D02*
X830048Y454855D01*
X824969D01*
X822430Y452316D01*
Y442159D01*
X824969Y439620D01*
X830048D01*
X832587Y442159D01*
X845283Y439620D02*
Y454855D01*
X837665Y447238D01*
X847822D01*
X760725Y457285D02*
X758186Y459824D01*
X753107D01*
X750568Y457285D01*
Y447128D01*
X753107Y444589D01*
X758186D01*
X760725Y447128D01*
X775960Y459824D02*
X765803D01*
Y452206D01*
X770881Y454745D01*
X773421D01*
X775960Y452206D01*
Y447128D01*
X773421Y444589D01*
X768342D01*
X765803Y447128D01*
X542157Y609596D02*
X539618Y612135D01*
X534539D01*
X532000Y609596D01*
Y599439D01*
X534539Y596900D01*
X539618D01*
X542157Y599439D01*
X557392Y612135D02*
X552313Y609596D01*
X547235Y604518D01*
Y599439D01*
X549774Y596900D01*
X554853D01*
X557392Y599439D01*
Y601978D01*
X554853Y604518D01*
X547235D01*
X871907Y328390D02*
X869368Y330929D01*
X864289D01*
X861750Y328390D01*
Y318233D01*
X864289Y315694D01*
X869368D01*
X871907Y318233D01*
X876985Y330929D02*
X887142D01*
Y328390D01*
X876985Y318233D01*
Y315694D01*
X766907Y330946D02*
X764368Y333485D01*
X759289D01*
X756750Y330946D01*
Y320789D01*
X759289Y318250D01*
X764368D01*
X766907Y320789D01*
X771985Y330946D02*
X774524Y333485D01*
X779603D01*
X782142Y330946D01*
Y328407D01*
X779603Y325868D01*
X782142Y323328D01*
Y320789D01*
X779603Y318250D01*
X774524D01*
X771985Y320789D01*
Y323328D01*
X774524Y325868D01*
X771985Y328407D01*
Y330946D01*
X774524Y325868D02*
X779603D01*
X670157Y643596D02*
X667618Y646135D01*
X662539D01*
X660000Y643596D01*
Y633439D01*
X662539Y630900D01*
X667618D01*
X670157Y633439D01*
X675235D02*
X677774Y630900D01*
X682853D01*
X685392Y633439D01*
Y643596D01*
X682853Y646135D01*
X677774D01*
X675235Y643596D01*
Y641057D01*
X677774Y638518D01*
X685392D01*
X794615Y561220D02*
X792076Y563759D01*
X786997D01*
X784458Y561220D01*
Y551063D01*
X786997Y548524D01*
X792076D01*
X794615Y551063D01*
X799693Y548524D02*
X804772D01*
X802232D01*
Y563759D01*
X799693Y561220D01*
X812389D02*
X814928Y563759D01*
X820007D01*
X822546Y561220D01*
Y551063D01*
X820007Y548524D01*
X814928D01*
X812389Y551063D01*
Y561220D01*
X731823Y721108D02*
X729284Y723647D01*
X724205D01*
X721666Y721108D01*
Y710951D01*
X724205Y708412D01*
X729284D01*
X731823Y710951D01*
X736901Y708412D02*
X741980D01*
X739440D01*
Y723647D01*
X736901Y721108D01*
X749597Y708412D02*
X754676D01*
X752136D01*
Y723647D01*
X749597Y721108D01*
X866157Y689596D02*
X863618Y692135D01*
X858539D01*
X856000Y689596D01*
Y679439D01*
X858539Y676900D01*
X863618D01*
X866157Y679439D01*
X871235Y676900D02*
X876314D01*
X873774D01*
Y692135D01*
X871235Y689596D01*
X894088Y676900D02*
X883931D01*
X894088Y687057D01*
Y689596D01*
X891549Y692135D01*
X886470D01*
X883931Y689596D01*
X755157Y271596D02*
X752618Y274135D01*
X747539D01*
X745000Y271596D01*
Y261439D01*
X747539Y258900D01*
X752618D01*
X755157Y261439D01*
X760235Y258900D02*
X765314D01*
X762774D01*
Y274135D01*
X760235Y271596D01*
X772931D02*
X775470Y274135D01*
X780549D01*
X783088Y271596D01*
Y269057D01*
X780549Y266518D01*
X778009D01*
X780549D01*
X783088Y263978D01*
Y261439D01*
X780549Y258900D01*
X775470D01*
X772931Y261439D01*
X703157Y362596D02*
X700618Y365135D01*
X695539D01*
X693000Y362596D01*
Y352439D01*
X695539Y349900D01*
X700618D01*
X703157Y352439D01*
X708235Y349900D02*
X713314D01*
X710774D01*
Y365135D01*
X708235Y362596D01*
X728549Y349900D02*
Y365135D01*
X720931Y357518D01*
X731088D01*
X795889Y858292D02*
X793350Y860831D01*
X788271D01*
X785732Y858292D01*
Y848135D01*
X788271Y845596D01*
X793350D01*
X795889Y848135D01*
X800967Y845596D02*
X806046D01*
X803506D01*
Y860831D01*
X800967Y858292D01*
X823820Y860831D02*
X813663D01*
Y853214D01*
X818742Y855753D01*
X821281D01*
X823820Y853214D01*
Y848135D01*
X821281Y845596D01*
X816202D01*
X813663Y848135D01*
X750931Y858292D02*
X748392Y860831D01*
X743313D01*
X740774Y858292D01*
Y848135D01*
X743313Y845596D01*
X748392D01*
X750931Y848135D01*
X756009Y845596D02*
X761088D01*
X758548D01*
Y860831D01*
X756009Y858292D01*
X778862Y860831D02*
X773783Y858292D01*
X768705Y853214D01*
Y848135D01*
X771244Y845596D01*
X776323D01*
X778862Y848135D01*
Y850675D01*
X776323Y853214D01*
X768705D01*
X531157Y347596D02*
X528618Y350135D01*
X523539D01*
X521000Y347596D01*
Y337439D01*
X523539Y334900D01*
X528618D01*
X531157Y337439D01*
X536235Y334900D02*
X541314D01*
X538774D01*
Y350135D01*
X536235Y347596D01*
X548931Y350135D02*
X559088D01*
Y347596D01*
X548931Y337439D01*
Y334900D01*
X532157Y445596D02*
X529618Y448135D01*
X524539D01*
X522000Y445596D01*
Y435439D01*
X524539Y432900D01*
X529618D01*
X532157Y435439D01*
X537235Y432900D02*
X542313D01*
X539774D01*
Y448135D01*
X537235Y445596D01*
X549931D02*
X552470Y448135D01*
X557549D01*
X560088Y445596D01*
Y443057D01*
X557549Y440518D01*
X560088Y437978D01*
Y435439D01*
X557549Y432900D01*
X552470D01*
X549931Y435439D01*
Y437978D01*
X552470Y440518D01*
X549931Y443057D01*
Y445596D01*
X552470Y440518D02*
X557549D01*
X776642Y229424D02*
Y244659D01*
X784260D01*
X786799Y242120D01*
Y237042D01*
X784260Y234503D01*
X776642D01*
X781721D02*
X786799Y229424D01*
X791877D02*
X796956D01*
X794416D01*
Y244659D01*
X791877Y242120D01*
X507000Y692135D02*
Y679439D01*
X509539Y676900D01*
X514618D01*
X517157Y679439D01*
Y692135D01*
X522235Y676900D02*
X527314D01*
X524774D01*
Y692135D01*
X522235Y689596D01*
X571000Y871135D02*
Y858439D01*
X573539Y855900D01*
X578618D01*
X581157Y858439D01*
Y871135D01*
X596392Y855900D02*
X586235D01*
X596392Y866057D01*
Y868596D01*
X593853Y871135D01*
X588774D01*
X586235Y868596D01*
X667617Y766135D02*
X657460D01*
Y758518D01*
X662539Y761057D01*
X665078D01*
X667617Y758518D01*
Y753439D01*
X665078Y750900D01*
X659999D01*
X657460Y753439D01*
X672695Y761057D02*
X677774Y750900D01*
X682852Y761057D01*
X806000Y608135D02*
Y595439D01*
X808539Y592900D01*
X813618D01*
X816157Y595439D01*
Y608135D01*
X828853Y592900D02*
Y608135D01*
X821235Y600518D01*
X831392D01*
X667617Y805135D02*
X657460D01*
Y797518D01*
X662539Y800057D01*
X665078D01*
X667617Y797518D01*
Y792439D01*
X665078Y789900D01*
X659999D01*
X657460Y792439D01*
X672695Y800057D02*
X677774Y789900D01*
X682852Y800057D01*
X789000Y357665D02*
Y370361D01*
X786461Y372900D01*
X781383D01*
X778843Y370361D01*
Y357665D01*
X763608D02*
X768687Y360204D01*
X773765Y365283D01*
Y370361D01*
X771226Y372900D01*
X766148D01*
X763608Y370361D01*
Y367822D01*
X766148Y365283D01*
X773765D01*
X677250Y409735D02*
Y397039D01*
X679789Y394500D01*
X684868D01*
X687407Y397039D01*
Y409735D01*
X692485D02*
X702642D01*
Y407196D01*
X692485Y397039D01*
Y394500D01*
X752000Y504935D02*
Y492239D01*
X754539Y489700D01*
X759618D01*
X762157Y492239D01*
Y504935D01*
X767235Y502396D02*
X769774Y504935D01*
X774853D01*
X777392Y502396D01*
Y499857D01*
X774853Y497318D01*
X777392Y494779D01*
Y492239D01*
X774853Y489700D01*
X769774D01*
X767235Y492239D01*
Y494779D01*
X769774Y497318D01*
X767235Y499857D01*
Y502396D01*
X769774Y497318D02*
X774853D01*
X590136Y467708D02*
Y455012D01*
X592675Y452473D01*
X597754D01*
X600293Y455012D01*
Y467708D01*
X605371Y455012D02*
X607910Y452473D01*
X612989D01*
X615528Y455012D01*
Y465169D01*
X612989Y467708D01*
X607910D01*
X605371Y465169D01*
Y462630D01*
X607910Y460090D01*
X615528D01*
X814500Y747135D02*
Y734439D01*
X817039Y731900D01*
X822118D01*
X824657Y734439D01*
Y747135D01*
X829735Y731900D02*
X834814D01*
X832274D01*
Y747135D01*
X829735Y744596D01*
X842431D02*
X844970Y747135D01*
X850049D01*
X852588Y744596D01*
Y734439D01*
X850049Y731900D01*
X844970D01*
X842431Y734439D01*
Y744596D01*
X640000Y357135D02*
Y344439D01*
X642539Y341900D01*
X647618D01*
X650157Y344439D01*
Y357135D01*
X655235Y341900D02*
X660313D01*
X657774D01*
Y357135D01*
X655235Y354596D01*
X667931Y341900D02*
X673009D01*
X670470D01*
Y357135D01*
X667931Y354596D01*
X771000Y20135D02*
Y7439D01*
X773539Y4900D01*
X778618D01*
X781157Y7439D01*
Y20135D01*
X786235Y4900D02*
X791314D01*
X788774D01*
Y20135D01*
X786235Y17596D01*
X809088Y4900D02*
X798931D01*
X809088Y15057D01*
Y17596D01*
X806549Y20135D01*
X801470D01*
X798931Y17596D01*
X616750Y399735D02*
Y387039D01*
X619289Y384500D01*
X624368D01*
X626907Y387039D01*
Y399735D01*
X631985Y384500D02*
X637063D01*
X634524D01*
Y399735D01*
X631985Y397196D01*
X644681D02*
X647220Y399735D01*
X652299D01*
X654838Y397196D01*
Y394657D01*
X652299Y392118D01*
X649759D01*
X652299D01*
X654838Y389578D01*
Y387039D01*
X652299Y384500D01*
X647220D01*
X644681Y387039D01*
X709611Y862725D02*
X699454D01*
Y855108D01*
X704532Y857647D01*
X707072D01*
X709611Y855108D01*
Y850029D01*
X707072Y847490D01*
X701993D01*
X699454Y850029D01*
X714689Y857647D02*
X719768Y847490D01*
X724846Y857647D01*
X519000Y287135D02*
Y274439D01*
X521539Y271900D01*
X526618D01*
X529157Y274439D01*
Y287135D01*
X534235Y271900D02*
X539314D01*
X536774D01*
Y287135D01*
X534235Y284596D01*
X557088Y287135D02*
X546931D01*
Y279518D01*
X552009Y282057D01*
X554549D01*
X557088Y279518D01*
Y274439D01*
X554549Y271900D01*
X549470D01*
X546931Y274439D01*
X661528Y862154D02*
X664067Y864693D01*
X669146D01*
X671685Y862154D01*
Y851997D01*
X669146Y849458D01*
X664067D01*
X661528Y851997D01*
Y862154D01*
X676763Y859615D02*
X681842Y849458D01*
X686920Y859615D01*
X839172Y227405D02*
Y214709D01*
X841711Y212170D01*
X846790D01*
X849329Y214709D01*
Y227405D01*
X854407Y212170D02*
X859486D01*
X856946D01*
Y227405D01*
X854407Y224866D01*
X867103Y227405D02*
X877260D01*
Y224866D01*
X867103Y214709D01*
Y212170D01*
X861000Y636335D02*
X866078D01*
X863539D01*
Y621100D01*
X861000D01*
X866078D01*
X873696D02*
Y631257D01*
X881314D01*
X883853Y628717D01*
Y621100D01*
X860000Y474735D02*
X865079D01*
X862539D01*
Y459500D01*
X860000D01*
X865079D01*
X872696D02*
Y469657D01*
X880313D01*
X882853Y467118D01*
Y459500D01*
X599000Y490135D02*
X609157Y474900D01*
Y490135D02*
X599000Y474900D01*
X614235D02*
X619314D01*
X616774D01*
Y490135D01*
X614235Y487596D01*
X666157Y721596D02*
X663618Y724135D01*
X658539D01*
X656000Y721596D01*
Y711439D01*
X658539Y708900D01*
X663618D01*
X666157Y711439D01*
X671235Y708900D02*
X676314D01*
X673774D01*
Y724135D01*
X671235Y721596D01*
X683931Y711439D02*
X686470Y708900D01*
X691549D01*
X694088Y711439D01*
Y721596D01*
X691549Y724135D01*
X686470D01*
X683931Y721596D01*
Y719057D01*
X686470Y716518D01*
X694088D01*
M02*
