%FSLAX44Y44*%
%MOMM*%
G71*
G01*
G75*
%ADD10O,1.4000X0.4500*%
%ADD11O,0.4500X1.4000*%
%ADD12O,0.6000X1.9000*%
%ADD13C,1.2000*%
%ADD14C,0.4500*%
%ADD15C,2.0000*%
%ADD16C,0.6000*%
%ADD17C,1.0000*%
%ADD18C,0.2500*%
%ADD19C,2.0000*%
%ADD20O,1.2000X2.5000*%
%ADD21R,1.2000X2.5000*%
%ADD22C,1.2000*%
%ADD23O,1.0000X2.0000*%
%ADD24O,1.0000X2.0000*%
%ADD25R,1.5000X1.5000*%
%ADD26C,1.5000*%
%ADD27C,1.3000*%
%ADD28C,3.0000*%
%ADD29C,3.7000*%
%ADD30R,2.5000X1.2000*%
%ADD31O,2.5000X1.2000*%
%ADD32C,0.6200*%
%ADD33C,0.4000*%
%ADD34C,0.2000*%
%ADD35C,0.2540*%
%ADD36O,0.4900X1.4400*%
%ADD37O,0.8000X2.1000*%
%ADD38C,2.2000*%
%ADD39O,1.4000X2.7000*%
%ADD40R,1.4000X2.7000*%
%ADD41C,1.4000*%
%ADD42O,1.1000X2.1000*%
%ADD43O,1.1000X2.1000*%
%ADD44R,1.7000X1.7000*%
%ADD45C,1.7000*%
%ADD46C,3.2000*%
%ADD47C,3.9000*%
%ADD48R,2.7000X1.4000*%
%ADD49O,2.7000X1.4000*%
%ADD50C,0.2000*%
%ADD51C,0.1270*%
%ADD52C,0.1693*%
%ADD53C,0.1016*%
D18*
X451500Y894500D02*
X470000D01*
X451750Y0D02*
X470250D01*
X-0Y-0D02*
X452000Y-0D01*
X0Y894500D02*
X452000Y894500D01*
X-0Y-0D02*
X0Y894500D01*
X452000Y-0D02*
X452000Y894500D01*
X470000Y-0D02*
X922000Y-0D01*
X470000Y894500D02*
X922000Y894500D01*
X470000Y-0D02*
X470000Y894500D01*
X922000Y-0D02*
X922000Y894500D01*
D51*
X397500Y488650D02*
X404500D01*
X401000Y485150D02*
Y492150D01*
X397500Y650250D02*
X404500D01*
X401000Y646750D02*
Y653750D01*
X100500Y279900D02*
X107500D01*
X104000Y276400D02*
Y283400D01*
X247900Y796900D02*
X254900D01*
X251400Y793400D02*
Y800400D01*
X222500Y796900D02*
X229500D01*
X226000Y793400D02*
Y800400D01*
X247900Y757900D02*
X254900D01*
X251400Y754400D02*
Y761400D01*
X222500Y757900D02*
X229500D01*
X226000Y754400D02*
Y761400D01*
X177000Y637900D02*
X183000D01*
X180000Y634900D02*
Y640900D01*
X127000Y637900D02*
X133000D01*
X130000Y634900D02*
Y640900D01*
X322500Y684900D02*
X328500D01*
X325500Y681900D02*
Y687900D01*
X372500Y684900D02*
X378500D01*
X375500Y681900D02*
Y687900D01*
X304000Y642900D02*
X310000D01*
X307000Y639900D02*
Y645900D01*
X254000Y642900D02*
X260000D01*
X257000Y639900D02*
Y645900D01*
X263000Y324900D02*
X269000D01*
X266000Y321900D02*
Y327900D01*
X213000Y324900D02*
X219000D01*
X216000Y321900D02*
Y327900D01*
X213000Y277900D02*
X219000D01*
X216000Y274900D02*
Y280900D01*
X263000Y277900D02*
X269000D01*
X266000Y274900D02*
Y280900D01*
X115000Y320900D02*
X121000D01*
X118000Y317900D02*
Y323900D01*
X65000Y320900D02*
X71000D01*
X68000Y317900D02*
Y323900D01*
X94000Y411900D02*
X100000D01*
X97000Y408900D02*
Y414900D01*
X44000Y411900D02*
X50000D01*
X47000Y408900D02*
Y414900D01*
X127950Y369900D02*
X133450D01*
X130700Y367150D02*
Y372650D01*
X115250Y369900D02*
X120750D01*
X118000Y367150D02*
Y372650D01*
X102550Y369900D02*
X108050D01*
X105300Y367150D02*
Y372650D01*
X176400Y590100D02*
X185400D01*
X180900Y585600D02*
Y594600D01*
X176400Y564700D02*
X185400D01*
X180900Y560200D02*
Y569200D01*
X176400Y539300D02*
X185400D01*
X180900Y534800D02*
Y543800D01*
X176400Y513900D02*
X185400D01*
X180900Y509400D02*
Y518400D01*
X176400Y488500D02*
X185400D01*
X180900Y484000D02*
Y493000D01*
X176400Y463100D02*
X185400D01*
X180900Y458600D02*
Y467600D01*
X176400Y437700D02*
X185400D01*
X180900Y433200D02*
Y442200D01*
X252600Y590100D02*
X261600D01*
X257100Y585600D02*
Y594600D01*
X252600Y564700D02*
X261600D01*
X257100Y560200D02*
Y569200D01*
X252600Y539300D02*
X261600D01*
X257100Y534800D02*
Y543800D01*
X252600Y513900D02*
X261600D01*
X257100Y509400D02*
Y518400D01*
X252600Y488500D02*
X261600D01*
X257100Y484000D02*
Y493000D01*
X252600Y463100D02*
X261600D01*
X257100Y458600D02*
Y467600D01*
X252600Y437700D02*
X261600D01*
X257100Y433200D02*
Y442200D01*
X135250Y527100D02*
X140750D01*
X138000Y524350D02*
Y529850D01*
X135250Y575900D02*
X140750D01*
X138000Y573150D02*
Y578650D01*
X174000Y683900D02*
X180000D01*
X177000Y680900D02*
Y686900D01*
X224000Y683900D02*
X230000D01*
X227000Y680900D02*
Y686900D01*
X72500Y745900D02*
X87500D01*
X80000Y738400D02*
Y753400D01*
X71000Y819900D02*
X89000D01*
X80000Y810900D02*
Y828900D01*
X137000Y819900D02*
X155000D01*
X146000Y810900D02*
Y828900D01*
X105500Y767900D02*
X120500D01*
X113000Y760400D02*
Y775400D01*
X138500Y745900D02*
X153500D01*
X146000Y738400D02*
Y753400D01*
X97000Y642650D02*
X103000D01*
X100000Y639650D02*
Y645650D01*
X47000Y642650D02*
X53000D01*
X50000Y639650D02*
Y645650D01*
X134400Y683900D02*
X143200D01*
X138800Y679500D02*
Y688300D01*
X109000Y683900D02*
X117800D01*
X113400Y679500D02*
Y688300D01*
X83600Y683900D02*
X92400D01*
X88000Y679500D02*
Y688300D01*
X376550Y95900D02*
X383550D01*
X380050Y92400D02*
Y99400D01*
X376550Y121300D02*
X383550D01*
X380050Y117800D02*
Y124800D01*
X376550Y146700D02*
X383550D01*
X380050Y143200D02*
Y150200D01*
X376550Y172100D02*
X383550D01*
X380050Y168600D02*
Y175600D01*
X376550Y197500D02*
X383550D01*
X380050Y194000D02*
Y201000D01*
X325050Y90900D02*
X335050D01*
X330050Y85900D02*
Y95900D01*
X325050Y210900D02*
X335050D01*
X330050Y205900D02*
Y215900D01*
X196500Y830900D02*
X203500D01*
X200000Y827400D02*
Y834400D01*
X234500Y828900D02*
X241500D01*
X238000Y825400D02*
Y832400D01*
X331293Y780900D02*
X337293D01*
X334293Y777900D02*
Y783900D01*
X331293Y830900D02*
X337293D01*
X334293Y827900D02*
Y833900D01*
X286293Y780900D02*
X292293D01*
X289293Y777900D02*
Y783900D01*
X286293Y830900D02*
X292293D01*
X289293Y827900D02*
Y833900D01*
X303000Y684900D02*
X309000D01*
X306000Y681900D02*
Y687900D01*
X253000Y684900D02*
X259000D01*
X256000Y681900D02*
Y687900D01*
X127500Y412500D02*
X134500D01*
X131000Y409000D02*
Y416000D01*
X127500Y437900D02*
X134500D01*
X131000Y434400D02*
Y441400D01*
X316000Y519900D02*
X322000D01*
X319000Y516900D02*
Y522900D01*
X366000Y519900D02*
X372000D01*
X369000Y516900D02*
Y522900D01*
X354000Y415900D02*
X360000D01*
X357000Y412900D02*
Y418900D01*
X404000Y415900D02*
X410000D01*
X407000Y412900D02*
Y418900D01*
X332000Y415900D02*
X338000D01*
X335000Y412900D02*
Y418900D01*
X282000Y415900D02*
X288000D01*
X285000Y412900D02*
Y418900D01*
X96520Y527100D02*
X102520D01*
X99520Y524100D02*
Y530100D01*
X46520Y527100D02*
X52520D01*
X49520Y524100D02*
Y530100D01*
X97000Y575900D02*
X103000D01*
X100000Y572900D02*
Y578900D01*
X47000Y575900D02*
X53000D01*
X50000Y572900D02*
Y578900D01*
X370000Y321900D02*
X376000D01*
X373000Y318900D02*
Y324900D01*
X370000Y271900D02*
X376000D01*
X373000Y268900D02*
Y274900D01*
X325000Y321900D02*
X331000D01*
X328000Y318900D02*
Y324900D01*
X325000Y271900D02*
X331000D01*
X328000Y268900D02*
Y274900D01*
X73300Y194900D02*
X80300D01*
X76800Y191400D02*
Y198400D01*
X73300Y169500D02*
X80300D01*
X76800Y166000D02*
Y173000D01*
X73300Y144100D02*
X80300D01*
X76800Y140600D02*
Y147600D01*
X73300Y118700D02*
X80300D01*
X76800Y115200D02*
Y122200D01*
X73300Y93300D02*
X80300D01*
X76800Y89800D02*
Y96800D01*
X73300Y67900D02*
X80300D01*
X76800Y64400D02*
Y71400D01*
X276500Y194900D02*
X283500D01*
X280000Y191400D02*
Y198400D01*
X276500Y169500D02*
X283500D01*
X280000Y166000D02*
Y173000D01*
X276500Y144100D02*
X283500D01*
X280000Y140600D02*
Y147600D01*
X276500Y118700D02*
X283500D01*
X280000Y115200D02*
Y122200D01*
X276500Y93300D02*
X283500D01*
X280000Y89800D02*
Y96800D01*
X276500Y67900D02*
X283500D01*
X280000Y64400D02*
Y71400D01*
X6000Y22000D02*
X38000D01*
X22000Y6000D02*
Y38000D01*
X414000Y872500D02*
X446000D01*
X430000Y856500D02*
Y888500D01*
X210500Y547500D02*
X213500D01*
X212000Y546000D02*
Y549000D01*
X196334Y590100D02*
X199334D01*
X197834Y588600D02*
Y591600D01*
X210500Y539500D02*
X213500D01*
X212000Y538000D02*
Y541000D01*
X128250Y265000D02*
X131250D01*
X129750Y263500D02*
Y266500D01*
X126250Y247000D02*
X129250D01*
X127750Y245500D02*
Y248500D01*
X126250Y255000D02*
X129250D01*
X127750Y253500D02*
Y256500D01*
X134500Y247000D02*
X137500D01*
X136000Y245500D02*
Y248500D01*
X134500Y255000D02*
X137500D01*
X136000Y253500D02*
Y256500D01*
X274750Y766500D02*
X277750D01*
X276250Y765000D02*
Y768000D01*
X282750Y766500D02*
X285750D01*
X284250Y765000D02*
Y768000D01*
X274750Y758500D02*
X277750D01*
X276250Y757000D02*
Y760000D01*
X282750Y758500D02*
X285750D01*
X284250Y757000D02*
Y760000D01*
X318706Y414500D02*
X321706D01*
X320206Y413000D02*
Y416000D01*
X309000Y414500D02*
X312000D01*
X310500Y413000D02*
Y416000D01*
X309000Y423500D02*
X312000D01*
X310500Y422000D02*
Y425000D01*
X318706Y423500D02*
X321706D01*
X320206Y422000D02*
Y425000D01*
X318500Y507475D02*
X321500D01*
X320000Y505975D02*
Y508975D01*
X318500Y498500D02*
X321500D01*
X320000Y497000D02*
Y500000D01*
X308114Y498500D02*
X311114D01*
X309614Y497000D02*
Y500000D01*
X308432Y507475D02*
X311432D01*
X309932Y505975D02*
Y508975D01*
X283500Y439500D02*
X286500D01*
X285000Y438000D02*
Y441000D01*
X315000Y547900D02*
X318000D01*
X316500Y546400D02*
Y549400D01*
X240000Y398400D02*
X243000D01*
X241500Y396900D02*
Y399900D01*
X253000Y412500D02*
X256000D01*
X254500Y411000D02*
Y414000D01*
X169750Y219592D02*
X172750D01*
X171250Y218092D02*
Y221092D01*
X195750Y201439D02*
X198750D01*
X197250Y199939D02*
Y202939D01*
X373750Y480250D02*
X376750D01*
X375250Y478750D02*
Y481750D01*
X381750Y480250D02*
X384750D01*
X383250Y478750D02*
Y481750D01*
X381250Y472360D02*
X384250D01*
X382750Y470860D02*
Y473860D01*
X388250Y626360D02*
X391250D01*
X389750Y624860D02*
Y627860D01*
X388750Y634250D02*
X391750D01*
X390250Y632750D02*
Y635750D01*
X380750Y634250D02*
X383750D01*
X382250Y632750D02*
Y635750D01*
X306750Y616000D02*
X309750D01*
X308250Y614500D02*
Y617500D01*
X377250Y345300D02*
X380250D01*
X378750Y343800D02*
Y346800D01*
X385250Y345300D02*
X388250D01*
X386750Y343800D02*
Y346800D01*
X377250Y337300D02*
X380250D01*
X378750Y335800D02*
Y338800D01*
X385250Y337300D02*
X388250D01*
X386750Y335800D02*
Y338800D01*
X202684Y583750D02*
X205684D01*
X204184Y582250D02*
Y585250D01*
X176250Y213092D02*
X179250D01*
X177750Y211592D02*
Y214592D01*
X173261Y183762D02*
X176261D01*
X174761Y182262D02*
Y185261D01*
X195012Y156260D02*
X198012D01*
X196512Y154760D02*
Y157760D01*
X166761Y199012D02*
X169760D01*
X168260Y197512D02*
Y200512D01*
X226750Y422888D02*
X229750D01*
X228250Y421388D02*
Y424388D01*
X236250Y440750D02*
X239250D01*
X237750Y439250D02*
Y442250D01*
X867500Y488650D02*
X874500D01*
X871000Y485150D02*
Y492150D01*
X867500Y650250D02*
X874500D01*
X871000Y646750D02*
Y653750D01*
X570500Y279900D02*
X577500D01*
X574000Y276400D02*
Y283400D01*
X717900Y796900D02*
X724900D01*
X721400Y793400D02*
Y800400D01*
X692500Y796900D02*
X699500D01*
X696000Y793400D02*
Y800400D01*
X717900Y757900D02*
X724900D01*
X721400Y754400D02*
Y761400D01*
X692500Y757900D02*
X699500D01*
X696000Y754400D02*
Y761400D01*
X647000Y637900D02*
X653000D01*
X650000Y634900D02*
Y640900D01*
X597000Y637900D02*
X603000D01*
X600000Y634900D02*
Y640900D01*
X792500Y684900D02*
X798500D01*
X795500Y681900D02*
Y687900D01*
X842500Y684900D02*
X848500D01*
X845500Y681900D02*
Y687900D01*
X774000Y642900D02*
X780000D01*
X777000Y639900D02*
Y645900D01*
X724000Y642900D02*
X730000D01*
X727000Y639900D02*
Y645900D01*
X733000Y324900D02*
X739000D01*
X736000Y321900D02*
Y327900D01*
X683000Y324900D02*
X689000D01*
X686000Y321900D02*
Y327900D01*
X683000Y277900D02*
X689000D01*
X686000Y274900D02*
Y280900D01*
X733000Y277900D02*
X739000D01*
X736000Y274900D02*
Y280900D01*
X585000Y320900D02*
X591000D01*
X588000Y317900D02*
Y323900D01*
X535000Y320900D02*
X541000D01*
X538000Y317900D02*
Y323900D01*
X564000Y411900D02*
X570000D01*
X567000Y408900D02*
Y414900D01*
X514000Y411900D02*
X520000D01*
X517000Y408900D02*
Y414900D01*
X597950Y369900D02*
X603450D01*
X600700Y367150D02*
Y372650D01*
X585250Y369900D02*
X590750D01*
X588000Y367150D02*
Y372650D01*
X572550Y369900D02*
X578050D01*
X575300Y367150D02*
Y372650D01*
X646400Y590100D02*
X655400D01*
X650900Y585600D02*
Y594600D01*
X646400Y564700D02*
X655400D01*
X650900Y560200D02*
Y569200D01*
X646400Y539300D02*
X655400D01*
X650900Y534800D02*
Y543800D01*
X646400Y513900D02*
X655400D01*
X650900Y509400D02*
Y518400D01*
X646400Y488500D02*
X655400D01*
X650900Y484000D02*
Y493000D01*
X646400Y463100D02*
X655400D01*
X650900Y458600D02*
Y467600D01*
X646400Y437700D02*
X655400D01*
X650900Y433200D02*
Y442200D01*
X722600Y590100D02*
X731600D01*
X727100Y585600D02*
Y594600D01*
X722600Y564700D02*
X731600D01*
X727100Y560200D02*
Y569200D01*
X722600Y539300D02*
X731600D01*
X727100Y534800D02*
Y543800D01*
X722600Y513900D02*
X731600D01*
X727100Y509400D02*
Y518400D01*
X722600Y488500D02*
X731600D01*
X727100Y484000D02*
Y493000D01*
X722600Y463100D02*
X731600D01*
X727100Y458600D02*
Y467600D01*
X722600Y437700D02*
X731600D01*
X727100Y433200D02*
Y442200D01*
X605250Y527100D02*
X610750D01*
X608000Y524350D02*
Y529850D01*
X605250Y575900D02*
X610750D01*
X608000Y573150D02*
Y578650D01*
X644000Y683900D02*
X650000D01*
X647000Y680900D02*
Y686900D01*
X694000Y683900D02*
X700000D01*
X697000Y680900D02*
Y686900D01*
X542500Y745900D02*
X557500D01*
X550000Y738400D02*
Y753400D01*
X541000Y819900D02*
X559000D01*
X550000Y810900D02*
Y828900D01*
X607000Y819900D02*
X625000D01*
X616000Y810900D02*
Y828900D01*
X575500Y767900D02*
X590500D01*
X583000Y760400D02*
Y775400D01*
X608500Y745900D02*
X623500D01*
X616000Y738400D02*
Y753400D01*
X567000Y642650D02*
X573000D01*
X570000Y639650D02*
Y645650D01*
X517000Y642650D02*
X523000D01*
X520000Y639650D02*
Y645650D01*
X604400Y683900D02*
X613200D01*
X608800Y679500D02*
Y688300D01*
X579000Y683900D02*
X587800D01*
X583400Y679500D02*
Y688300D01*
X553600Y683900D02*
X562400D01*
X558000Y679500D02*
Y688300D01*
X846550Y95900D02*
X853550D01*
X850050Y92400D02*
Y99400D01*
X846550Y121300D02*
X853550D01*
X850050Y117800D02*
Y124800D01*
X846550Y146700D02*
X853550D01*
X850050Y143200D02*
Y150200D01*
X846550Y172100D02*
X853550D01*
X850050Y168600D02*
Y175600D01*
X846550Y197500D02*
X853550D01*
X850050Y194000D02*
Y201000D01*
X795050Y90900D02*
X805050D01*
X800050Y85900D02*
Y95900D01*
X795050Y210900D02*
X805050D01*
X800050Y205900D02*
Y215900D01*
X666500Y830900D02*
X673500D01*
X670000Y827400D02*
Y834400D01*
X704500Y828900D02*
X711500D01*
X708000Y825400D02*
Y832400D01*
X801293Y780900D02*
X807293D01*
X804293Y777900D02*
Y783900D01*
X801293Y830900D02*
X807293D01*
X804293Y827900D02*
Y833900D01*
X756293Y780900D02*
X762293D01*
X759293Y777900D02*
Y783900D01*
X756293Y830900D02*
X762293D01*
X759293Y827900D02*
Y833900D01*
X773000Y684900D02*
X779000D01*
X776000Y681900D02*
Y687900D01*
X723000Y684900D02*
X729000D01*
X726000Y681900D02*
Y687900D01*
X597500Y412500D02*
X604500D01*
X601000Y409000D02*
Y416000D01*
X597500Y437900D02*
X604500D01*
X601000Y434400D02*
Y441400D01*
X786000Y519900D02*
X792000D01*
X789000Y516900D02*
Y522900D01*
X836000Y519900D02*
X842000D01*
X839000Y516900D02*
Y522900D01*
X824000Y415900D02*
X830000D01*
X827000Y412900D02*
Y418900D01*
X874000Y415900D02*
X880000D01*
X877000Y412900D02*
Y418900D01*
X802000Y415900D02*
X808000D01*
X805000Y412900D02*
Y418900D01*
X752000Y415900D02*
X758000D01*
X755000Y412900D02*
Y418900D01*
X566520Y527100D02*
X572520D01*
X569520Y524100D02*
Y530100D01*
X516520Y527100D02*
X522520D01*
X519520Y524100D02*
Y530100D01*
X567000Y575900D02*
X573000D01*
X570000Y572900D02*
Y578900D01*
X517000Y575900D02*
X523000D01*
X520000Y572900D02*
Y578900D01*
X840000Y321900D02*
X846000D01*
X843000Y318900D02*
Y324900D01*
X840000Y271900D02*
X846000D01*
X843000Y268900D02*
Y274900D01*
X795000Y321900D02*
X801000D01*
X798000Y318900D02*
Y324900D01*
X795000Y271900D02*
X801000D01*
X798000Y268900D02*
Y274900D01*
X543300Y194900D02*
X550300D01*
X546800Y191400D02*
Y198400D01*
X543300Y169500D02*
X550300D01*
X546800Y166000D02*
Y173000D01*
X543300Y144100D02*
X550300D01*
X546800Y140600D02*
Y147600D01*
X543300Y118700D02*
X550300D01*
X546800Y115200D02*
Y122200D01*
X543300Y93300D02*
X550300D01*
X546800Y89800D02*
Y96800D01*
X543300Y67900D02*
X550300D01*
X546800Y64400D02*
Y71400D01*
X746500Y194900D02*
X753500D01*
X750000Y191400D02*
Y198400D01*
X746500Y169500D02*
X753500D01*
X750000Y166000D02*
Y173000D01*
X746500Y144100D02*
X753500D01*
X750000Y140600D02*
Y147600D01*
X746500Y118700D02*
X753500D01*
X750000Y115200D02*
Y122200D01*
X746500Y93300D02*
X753500D01*
X750000Y89800D02*
Y96800D01*
X746500Y67900D02*
X753500D01*
X750000Y64400D02*
Y71400D01*
X476000Y22000D02*
X508000D01*
X492000Y6000D02*
Y38000D01*
X884000Y872500D02*
X916000D01*
X900000Y856500D02*
Y888500D01*
X680500Y547500D02*
X683500D01*
X682000Y546000D02*
Y549000D01*
X666334Y590100D02*
X669334D01*
X667834Y588600D02*
Y591600D01*
X680500Y539500D02*
X683500D01*
X682000Y538000D02*
Y541000D01*
X598250Y265000D02*
X601250D01*
X599750Y263500D02*
Y266500D01*
X596250Y247000D02*
X599250D01*
X597750Y245500D02*
Y248500D01*
X596250Y255000D02*
X599250D01*
X597750Y253500D02*
Y256500D01*
X604500Y247000D02*
X607500D01*
X606000Y245500D02*
Y248500D01*
X604500Y255000D02*
X607500D01*
X606000Y253500D02*
Y256500D01*
X744750Y766500D02*
X747750D01*
X746250Y765000D02*
Y768000D01*
X752750Y766500D02*
X755750D01*
X754250Y765000D02*
Y768000D01*
X744750Y758500D02*
X747750D01*
X746250Y757000D02*
Y760000D01*
X752750Y758500D02*
X755750D01*
X754250Y757000D02*
Y760000D01*
X788706Y414500D02*
X791706D01*
X790206Y413000D02*
Y416000D01*
X779000Y414500D02*
X782000D01*
X780500Y413000D02*
Y416000D01*
X779000Y423500D02*
X782000D01*
X780500Y422000D02*
Y425000D01*
X788706Y423500D02*
X791706D01*
X790206Y422000D02*
Y425000D01*
X788500Y507475D02*
X791500D01*
X790000Y505975D02*
Y508975D01*
X788500Y498500D02*
X791500D01*
X790000Y497000D02*
Y500000D01*
X778114Y498500D02*
X781114D01*
X779614Y497000D02*
Y500000D01*
X778432Y507475D02*
X781432D01*
X779932Y505975D02*
Y508975D01*
X753500Y439500D02*
X756500D01*
X755000Y438000D02*
Y441000D01*
X785000Y547900D02*
X788000D01*
X786500Y546400D02*
Y549400D01*
X710000Y398400D02*
X713000D01*
X711500Y396900D02*
Y399900D01*
X723000Y412500D02*
X726000D01*
X724500Y411000D02*
Y414000D01*
X639750Y219592D02*
X642750D01*
X641250Y218092D02*
Y221092D01*
X665750Y201439D02*
X668750D01*
X667250Y199939D02*
Y202939D01*
X843750Y480250D02*
X846750D01*
X845250Y478750D02*
Y481750D01*
X851750Y480250D02*
X854750D01*
X853250Y478750D02*
Y481750D01*
X851250Y472360D02*
X854250D01*
X852750Y470860D02*
Y473860D01*
X858250Y626360D02*
X861250D01*
X859750Y624860D02*
Y627860D01*
X858750Y634250D02*
X861750D01*
X860250Y632750D02*
Y635750D01*
X850750Y634250D02*
X853750D01*
X852250Y632750D02*
Y635750D01*
X776750Y616000D02*
X779750D01*
X778250Y614500D02*
Y617500D01*
X847250Y345300D02*
X850250D01*
X848750Y343800D02*
Y346800D01*
X855250Y345300D02*
X858250D01*
X856750Y343800D02*
Y346800D01*
X847250Y337300D02*
X850250D01*
X848750Y335800D02*
Y338800D01*
X855250Y337300D02*
X858250D01*
X856750Y335800D02*
Y338800D01*
X672684Y583750D02*
X675684D01*
X674184Y582250D02*
Y585250D01*
X646250Y213092D02*
X649250D01*
X647750Y211592D02*
Y214592D01*
X643261Y183762D02*
X646261D01*
X644761Y182262D02*
Y185261D01*
X665012Y156260D02*
X668012D01*
X666512Y154760D02*
Y157760D01*
X636760Y199012D02*
X639761D01*
X638260Y197512D02*
Y200512D01*
X696750Y422888D02*
X699750D01*
X698250Y421388D02*
Y424388D01*
X706250Y440750D02*
X709250D01*
X707750Y439250D02*
Y442250D01*
M02*
