%FSLAX23Y23*%
%MOIN*%
G70*
G01*
G75*
G04 Layer_Color=65535*
%ADD10O,0.024X0.075*%
%ADD11O,0.055X0.018*%
%ADD12O,0.018X0.055*%
%ADD13C,0.018*%
%ADD14C,0.047*%
%ADD15C,0.039*%
%ADD16C,0.024*%
%ADD17C,0.079*%
%ADD18R,0.098X0.047*%
%ADD19O,0.098X0.047*%
%ADD20C,0.047*%
%ADD21C,0.079*%
%ADD22C,0.118*%
%ADD23C,0.146*%
%ADD24C,0.051*%
%ADD25C,0.059*%
%ADD26R,0.059X0.059*%
%ADD27O,0.039X0.079*%
%ADD28O,0.039X0.079*%
%ADD29R,0.047X0.098*%
%ADD30O,0.047X0.098*%
%ADD31C,0.024*%
%ADD32C,0.008*%
%ADD33C,0.016*%
%ADD34C,0.010*%
%ADD35C,0.010*%
D16*
X809Y2372D02*
G03*
X809Y2372I-12J0D01*
G01*
X764Y1203D02*
G03*
X764Y1203I-12J0D01*
G01*
X2659Y2372D02*
G03*
X2659Y2372I-12J0D01*
G01*
X2614Y1203D02*
G03*
X2614Y1203I-12J0D01*
G01*
D32*
X1318Y1095D02*
G03*
X1318Y1243I-27J74D01*
G01*
X1264D02*
G03*
X1264Y1095I27J-74D01*
G01*
X1495D02*
G03*
X1495Y1243I-27J74D01*
G01*
X1442D02*
G03*
X1442Y1095I27J-74D01*
G01*
X354Y2267D02*
G03*
X354Y2267I-59J0D01*
G01*
X352Y2075D02*
G03*
X352Y2075I-59J0D01*
G01*
X1146Y1610D02*
G03*
X1294Y1610I74J27D01*
G01*
Y1664D02*
G03*
X1146Y1664I-74J-27D01*
G01*
X1563Y1637D02*
G03*
X1563Y1637I-59J0D01*
G01*
X1428Y2074D02*
G03*
X1280Y2074I-74J-27D01*
G01*
Y2020D02*
G03*
X1428Y2020I74J27D01*
G01*
X1165Y2696D02*
G03*
X1165Y2696I-59J0D01*
G01*
X1112Y3247D02*
G03*
X1112Y3099I27J-74D01*
G01*
X1166D02*
G03*
X1166Y3247I-27J74D01*
G01*
X1289D02*
G03*
X1289Y3099I27J-74D01*
G01*
X1343D02*
G03*
X1343Y3247I-27J74D01*
G01*
X354Y2530D02*
G03*
X354Y2530I-59J0D01*
G01*
X869Y2719D02*
G03*
X721Y2719I-74J-27D01*
G01*
Y2666D02*
G03*
X869Y2666I74J27D01*
G01*
X642Y2297D02*
G03*
X445Y2297I-98J0D01*
G01*
Y2046D02*
G03*
X642Y2046I98J0D01*
G01*
X837Y2411D02*
G03*
X887Y2411I25J0D01*
G01*
X550Y1396D02*
G03*
X379Y1396I-85J60D01*
G01*
X343Y1622D02*
G03*
X343Y1622I-59J0D01*
G01*
X425Y1263D02*
G03*
X425Y1263I-59J0D01*
G01*
X1023Y1121D02*
G03*
X875Y1121I-74J-27D01*
G01*
Y1067D02*
G03*
X1023Y1067I74J27D01*
G01*
X875Y1252D02*
G03*
X1023Y1252I74J27D01*
G01*
Y1306D02*
G03*
X875Y1306I-74J-27D01*
G01*
X1036Y2504D02*
G03*
X1184Y2504I74J27D01*
G01*
Y2558D02*
G03*
X1036Y2558I-74J-27D01*
G01*
X1454Y2723D02*
G03*
X1306Y2723I-74J-27D01*
G01*
Y2670D02*
G03*
X1454Y2670I74J27D01*
G01*
X536Y2484D02*
G03*
X684Y2484I74J27D01*
G01*
Y2538D02*
G03*
X536Y2538I-74J-27D01*
G01*
X250Y15D02*
X1155D01*
X250Y996D02*
X1155D01*
Y15D02*
Y187D01*
X250Y15D02*
Y187D01*
Y824D02*
Y996D01*
X1155Y824D02*
Y996D01*
X1476Y1397D02*
Y1476D01*
X1280Y1397D02*
Y1476D01*
X1476D01*
X1280Y1397D02*
X1476D01*
X1325Y2429D02*
Y2555D01*
X1400Y2429D02*
Y2555D01*
X1325D02*
X1400D01*
X1325Y2429D02*
X1400D01*
X1134Y2870D02*
Y2948D01*
X1331Y2870D02*
Y2948D01*
X1134Y2870D02*
X1331D01*
X1134Y2948D02*
X1331D01*
X1299Y758D02*
X1398D01*
X1201D02*
X1299D01*
X1201Y438D02*
X1299D01*
Y418D02*
Y438D01*
Y758D02*
Y778D01*
Y438D02*
X1398D01*
Y758D01*
X1201Y438D02*
Y758D01*
X195Y3357D02*
X320D01*
X340Y3337D01*
X570Y3357D02*
X695D01*
X550Y3337D02*
X570Y3357D01*
X195Y2817D02*
X695D01*
Y3357D01*
X340Y3337D02*
X550D01*
X195Y3035D02*
Y3357D01*
Y2817D02*
Y3035D01*
X642Y2046D02*
Y2297D01*
X445Y2046D02*
Y2297D01*
X758Y1635D02*
X967D01*
X887Y2411D02*
X967D01*
X758D02*
X837D01*
X967Y1635D02*
Y2411D01*
X758Y1635D02*
Y2411D01*
X379Y1396D02*
X550D01*
X531Y1096D02*
Y1242D01*
X791Y1096D02*
Y1242D01*
X531Y1096D02*
X791D01*
X531Y1242D02*
X791D01*
X1297Y1822D02*
Y1948D01*
X1372Y1822D02*
Y1948D01*
X1297D02*
X1372D01*
X1297Y1822D02*
X1372D01*
X3169Y1095D02*
G03*
X3169Y1243I-27J74D01*
G01*
X3115D02*
G03*
X3115Y1095I27J-74D01*
G01*
X3346D02*
G03*
X3346Y1243I-27J74D01*
G01*
X3292D02*
G03*
X3292Y1095I27J-74D01*
G01*
X2205Y2267D02*
G03*
X2205Y2267I-59J0D01*
G01*
X2203Y2075D02*
G03*
X2203Y2075I-59J0D01*
G01*
X2997Y1610D02*
G03*
X3145Y1610I74J27D01*
G01*
Y1664D02*
G03*
X2997Y1664I-74J-27D01*
G01*
X3413Y1637D02*
G03*
X3413Y1637I-59J0D01*
G01*
X3279Y2074D02*
G03*
X3131Y2074I-74J-27D01*
G01*
Y2020D02*
G03*
X3279Y2020I74J27D01*
G01*
X3016Y2696D02*
G03*
X3016Y2696I-59J0D01*
G01*
X2962Y3247D02*
G03*
X2962Y3099I27J-74D01*
G01*
X3016D02*
G03*
X3016Y3247I-27J74D01*
G01*
X3140D02*
G03*
X3140Y3099I27J-74D01*
G01*
X3193D02*
G03*
X3193Y3247I-27J74D01*
G01*
X2205Y2530D02*
G03*
X2205Y2530I-59J0D01*
G01*
X2720Y2719D02*
G03*
X2572Y2719I-74J-27D01*
G01*
Y2666D02*
G03*
X2720Y2666I74J27D01*
G01*
X2492Y2297D02*
G03*
X2295Y2297I-98J0D01*
G01*
Y2046D02*
G03*
X2492Y2046I98J0D01*
G01*
X2688Y2411D02*
G03*
X2738Y2411I25J0D01*
G01*
X2400Y1396D02*
G03*
X2229Y1396I-85J60D01*
G01*
X2193Y1622D02*
G03*
X2193Y1622I-59J0D01*
G01*
X2276Y1263D02*
G03*
X2276Y1263I-59J0D01*
G01*
X2873Y1121D02*
G03*
X2725Y1121I-74J-27D01*
G01*
Y1067D02*
G03*
X2873Y1067I74J27D01*
G01*
X2725Y1252D02*
G03*
X2873Y1252I74J27D01*
G01*
Y1306D02*
G03*
X2725Y1306I-74J-27D01*
G01*
X2887Y2504D02*
G03*
X3035Y2504I74J27D01*
G01*
Y2558D02*
G03*
X2887Y2558I-74J-27D01*
G01*
X3304Y2723D02*
G03*
X3156Y2723I-74J-27D01*
G01*
Y2670D02*
G03*
X3304Y2670I74J27D01*
G01*
X2387Y2484D02*
G03*
X2535Y2484I74J27D01*
G01*
Y2538D02*
G03*
X2387Y2538I-74J-27D01*
G01*
X2100Y15D02*
X3006D01*
X2100Y996D02*
X3006D01*
Y15D02*
Y187D01*
X2100Y15D02*
Y187D01*
Y824D02*
Y996D01*
X3006Y824D02*
Y996D01*
X3327Y1397D02*
Y1476D01*
X3130Y1397D02*
Y1476D01*
X3327D01*
X3130Y1397D02*
X3327D01*
X3175Y2429D02*
Y2555D01*
X3250Y2429D02*
Y2555D01*
X3175D02*
X3250D01*
X3175Y2429D02*
X3250D01*
X2984Y2870D02*
Y2948D01*
X3181Y2870D02*
Y2948D01*
X2984Y2870D02*
X3181D01*
X2984Y2948D02*
X3181D01*
X3150Y758D02*
X3248D01*
X3051D02*
X3150D01*
X3051Y438D02*
X3150D01*
Y418D02*
Y438D01*
Y758D02*
Y778D01*
Y438D02*
X3248D01*
Y758D01*
X3051Y438D02*
Y758D01*
X2045Y3357D02*
X2170D01*
X2190Y3337D01*
X2420Y3357D02*
X2545D01*
X2400Y3337D02*
X2420Y3357D01*
X2045Y2817D02*
X2545D01*
Y3357D01*
X2190Y3337D02*
X2400D01*
X2045Y3035D02*
Y3357D01*
Y2817D02*
Y3035D01*
X2492Y2046D02*
Y2297D01*
X2295Y2046D02*
Y2297D01*
X2608Y1635D02*
X2817D01*
X2738Y2411D02*
X2817D01*
X2608D02*
X2688D01*
X2817Y1635D02*
Y2411D01*
X2608Y1635D02*
Y2411D01*
X2229Y1396D02*
X2400D01*
X2382Y1096D02*
Y1242D01*
X2642Y1096D02*
Y1242D01*
X2382Y1096D02*
X2642D01*
X2382Y1242D02*
X2642D01*
X3148Y1822D02*
Y1948D01*
X3222Y1822D02*
Y1948D01*
X3148D02*
X3222D01*
X3148Y1822D02*
X3222D01*
D33*
X1319Y1429D02*
G03*
X1319Y1429I-8J0D01*
G01*
X1364Y2523D02*
G03*
X1364Y2523I-8J0D01*
G01*
X1307Y2917D02*
G03*
X1307Y2917I-8J0D01*
G01*
X1337Y1917D02*
G03*
X1337Y1917I-8J0D01*
G01*
X3169Y1429D02*
G03*
X3169Y1429I-8J0D01*
G01*
X3215Y2523D02*
G03*
X3215Y2523I-8J0D01*
G01*
X3157Y2917D02*
G03*
X3157Y2917I-8J0D01*
G01*
X3187Y1917D02*
G03*
X3187Y1917I-8J0D01*
G01*
D34*
X1274Y1344D02*
G03*
X1274Y1344I-5J0D01*
G01*
X1286Y2561D02*
G03*
X1286Y2561I-5J0D01*
G01*
X1346Y3002D02*
G03*
X1346Y3002I-5J0D01*
G01*
X717Y2374D02*
G03*
X717Y2374I-5J0D01*
G01*
X351Y1402D02*
G03*
X351Y1402I-5J0D01*
G01*
X812Y1285D02*
G03*
X812Y1285I-5J0D01*
G01*
X1259Y1954D02*
G03*
X1259Y1954I-5J0D01*
G01*
X3125Y1344D02*
G03*
X3125Y1344I-5J0D01*
G01*
X3137Y2561D02*
G03*
X3137Y2561I-5J0D01*
G01*
X3196Y3002D02*
G03*
X3196Y3002I-5J0D01*
G01*
X2568Y2374D02*
G03*
X2568Y2374I-5J0D01*
G01*
X2202Y1402D02*
G03*
X2202Y1402I-5J0D01*
G01*
X2662Y1285D02*
G03*
X2662Y1285I-5J0D01*
G01*
X3109Y1954D02*
G03*
X3109Y1954I-5J0D01*
G01*
D35*
X250Y2788D02*
X643D01*
X250Y2613D02*
Y2788D01*
X643Y2613D02*
Y2788D01*
X250Y2613D02*
X643D01*
X772Y2841D02*
X762Y2851D01*
X742D01*
X732Y2841D01*
Y2801D01*
X742Y2791D01*
X762D01*
X772Y2801D01*
X792Y2791D02*
X812D01*
X802D01*
Y2851D01*
X792Y2841D01*
X842Y2801D02*
X852Y2791D01*
X872D01*
X882Y2801D01*
Y2841D01*
X872Y2851D01*
X852D01*
X842Y2841D01*
Y2831D01*
X852Y2821D01*
X882D01*
X508Y1930D02*
X548Y1870D01*
Y1930D02*
X508Y1870D01*
X568D02*
X588D01*
X578D01*
Y1930D01*
X568Y1920D01*
X1535Y1869D02*
X1555D01*
X1545D01*
Y1809D01*
X1535D01*
X1555D01*
X1585D02*
Y1849D01*
X1615D01*
X1625Y1839D01*
Y1809D01*
X1539Y2505D02*
X1559D01*
X1549D01*
Y2445D01*
X1539D01*
X1559D01*
X1589D02*
Y2485D01*
X1619D01*
X1629Y2475D01*
Y2445D01*
X1453Y895D02*
Y845D01*
X1463Y835D01*
X1483D01*
X1493Y845D01*
Y895D01*
X1513Y835D02*
X1533D01*
X1523D01*
Y895D01*
X1513Y885D01*
X1563Y895D02*
X1603D01*
Y885D01*
X1563Y845D01*
Y835D01*
X754Y3394D02*
X764Y3404D01*
X784D01*
X794Y3394D01*
Y3354D01*
X784Y3344D01*
X764D01*
X754Y3354D01*
Y3394D01*
X814Y3384D02*
X834Y3344D01*
X854Y3384D01*
X193Y1130D02*
Y1080D01*
X203Y1070D01*
X223D01*
X233Y1080D01*
Y1130D01*
X253Y1070D02*
X273D01*
X263D01*
Y1130D01*
X253Y1120D01*
X343Y1130D02*
X303D01*
Y1100D01*
X323Y1110D01*
X333D01*
X343Y1100D01*
Y1080D01*
X333Y1070D01*
X313D01*
X303Y1080D01*
X943Y3397D02*
X903D01*
Y3367D01*
X923Y3377D01*
X933D01*
X943Y3367D01*
Y3347D01*
X933Y3337D01*
X913D01*
X903Y3347D01*
X963Y3377D02*
X983Y3337D01*
X1003Y3377D01*
X578Y1574D02*
Y1524D01*
X588Y1514D01*
X608D01*
X618Y1524D01*
Y1574D01*
X638Y1514D02*
X658D01*
X648D01*
Y1574D01*
X638Y1564D01*
X688D02*
X698Y1574D01*
X718D01*
X728Y1564D01*
Y1554D01*
X718Y1544D01*
X708D01*
X718D01*
X728Y1534D01*
Y1524D01*
X718Y1514D01*
X698D01*
X688Y1524D01*
X1185Y79D02*
Y29D01*
X1195Y19D01*
X1215D01*
X1225Y29D01*
Y79D01*
X1245Y19D02*
X1265D01*
X1255D01*
Y79D01*
X1245Y69D01*
X1335Y19D02*
X1295D01*
X1335Y59D01*
Y69D01*
X1325Y79D01*
X1305D01*
X1295Y69D01*
X669Y1406D02*
Y1356D01*
X679Y1346D01*
X699D01*
X709Y1356D01*
Y1406D01*
X729Y1346D02*
X749D01*
X739D01*
Y1406D01*
X729Y1396D01*
X779Y1346D02*
X799D01*
X789D01*
Y1406D01*
X779Y1396D01*
X1356Y2941D02*
Y2891D01*
X1366Y2881D01*
X1386D01*
X1396Y2891D01*
Y2941D01*
X1416Y2881D02*
X1436D01*
X1426D01*
Y2941D01*
X1416Y2931D01*
X1466D02*
X1476Y2941D01*
X1496D01*
X1506Y2931D01*
Y2891D01*
X1496Y2881D01*
X1476D01*
X1466Y2891D01*
Y2931D01*
X473Y1841D02*
Y1791D01*
X483Y1781D01*
X503D01*
X513Y1791D01*
Y1841D01*
X533Y1791D02*
X543Y1781D01*
X563D01*
X573Y1791D01*
Y1831D01*
X563Y1841D01*
X543D01*
X533Y1831D01*
Y1821D01*
X543Y1811D01*
X573D01*
X1110Y1988D02*
Y1938D01*
X1120Y1928D01*
X1140D01*
X1150Y1938D01*
Y1988D01*
X1170Y1978D02*
X1180Y1988D01*
X1200D01*
X1210Y1978D01*
Y1968D01*
X1200Y1958D01*
X1210Y1948D01*
Y1938D01*
X1200Y1928D01*
X1180D01*
X1170Y1938D01*
Y1948D01*
X1180Y1958D01*
X1170Y1968D01*
Y1978D01*
X1180Y1958D02*
X1200D01*
X816Y1613D02*
Y1563D01*
X826Y1553D01*
X846D01*
X856Y1563D01*
Y1613D01*
X876D02*
X916D01*
Y1603D01*
X876Y1563D01*
Y1553D01*
X1256Y1408D02*
Y1458D01*
X1246Y1468D01*
X1226D01*
X1216Y1458D01*
Y1408D01*
X1156D02*
X1176Y1418D01*
X1196Y1438D01*
Y1458D01*
X1186Y1468D01*
X1166D01*
X1156Y1458D01*
Y1448D01*
X1166Y1438D01*
X1196D01*
X778Y3170D02*
X738D01*
Y3140D01*
X758Y3150D01*
X768D01*
X778Y3140D01*
Y3120D01*
X768Y3110D01*
X748D01*
X738Y3120D01*
X798Y3150D02*
X818Y3110D01*
X838Y3150D01*
X1323Y2394D02*
Y2344D01*
X1333Y2334D01*
X1353D01*
X1363Y2344D01*
Y2394D01*
X1413Y2334D02*
Y2394D01*
X1383Y2364D01*
X1423D01*
X778Y3016D02*
X738D01*
Y2986D01*
X758Y2996D01*
X768D01*
X778Y2986D01*
Y2966D01*
X768Y2956D01*
X748D01*
X738Y2966D01*
X798Y2996D02*
X818Y2956D01*
X838Y2996D01*
X398Y3430D02*
Y3380D01*
X408Y3370D01*
X428D01*
X438Y3380D01*
Y3430D01*
X498Y3370D02*
X458D01*
X498Y3410D01*
Y3420D01*
X488Y3430D01*
X468D01*
X458Y3420D01*
X146Y2725D02*
Y2675D01*
X156Y2665D01*
X176D01*
X186Y2675D01*
Y2725D01*
X206Y2665D02*
X226D01*
X216D01*
Y2725D01*
X206Y2715D01*
X1207Y903D02*
Y963D01*
X1237D01*
X1247Y953D01*
Y933D01*
X1237Y923D01*
X1207D01*
X1227D02*
X1247Y903D01*
X1267D02*
X1287D01*
X1277D01*
Y963D01*
X1267Y953D01*
X245Y1754D02*
X235Y1764D01*
X215D01*
X205Y1754D01*
Y1714D01*
X215Y1704D01*
X235D01*
X245Y1714D01*
X265Y1704D02*
X285D01*
X275D01*
Y1764D01*
X265Y1754D01*
X315D02*
X325Y1764D01*
X345D01*
X355Y1754D01*
Y1744D01*
X345Y1734D01*
X355Y1724D01*
Y1714D01*
X345Y1704D01*
X325D01*
X315Y1714D01*
Y1724D01*
X325Y1734D01*
X315Y1744D01*
Y1754D01*
X325Y1734D02*
X345D01*
X241Y1368D02*
X231Y1378D01*
X211D01*
X201Y1368D01*
Y1329D01*
X211Y1319D01*
X231D01*
X241Y1329D01*
X261Y1319D02*
X281D01*
X271D01*
Y1378D01*
X261Y1368D01*
X311Y1378D02*
X351D01*
Y1368D01*
X311Y1329D01*
Y1319D01*
X1106Y3379D02*
X1096Y3389D01*
X1076D01*
X1066Y3379D01*
Y3339D01*
X1076Y3329D01*
X1096D01*
X1106Y3339D01*
X1126Y3329D02*
X1146D01*
X1136D01*
Y3389D01*
X1126Y3379D01*
X1216Y3389D02*
X1196Y3379D01*
X1176Y3359D01*
Y3339D01*
X1186Y3329D01*
X1206D01*
X1216Y3339D01*
Y3349D01*
X1206Y3359D01*
X1176D01*
X1283Y3379D02*
X1273Y3389D01*
X1253D01*
X1243Y3379D01*
Y3339D01*
X1253Y3329D01*
X1273D01*
X1283Y3339D01*
X1303Y3329D02*
X1323D01*
X1313D01*
Y3389D01*
X1303Y3379D01*
X1393Y3389D02*
X1353D01*
Y3359D01*
X1373Y3369D01*
X1383D01*
X1393Y3359D01*
Y3339D01*
X1383Y3329D01*
X1363D01*
X1353Y3339D01*
X918Y1428D02*
X908Y1438D01*
X888D01*
X878Y1428D01*
Y1388D01*
X888Y1378D01*
X908D01*
X918Y1388D01*
X938Y1378D02*
X958D01*
X948D01*
Y1438D01*
X938Y1428D01*
X1018Y1378D02*
Y1438D01*
X988Y1408D01*
X1028D01*
X1123Y1069D02*
X1113Y1079D01*
X1093D01*
X1083Y1069D01*
Y1029D01*
X1093Y1019D01*
X1113D01*
X1123Y1029D01*
X1143Y1019D02*
X1163D01*
X1153D01*
Y1079D01*
X1143Y1069D01*
X1193D02*
X1203Y1079D01*
X1223D01*
X1233Y1069D01*
Y1059D01*
X1223Y1049D01*
X1213D01*
X1223D01*
X1233Y1039D01*
Y1029D01*
X1223Y1019D01*
X1203D01*
X1193Y1029D01*
X1560Y2715D02*
X1550Y2725D01*
X1530D01*
X1520Y2715D01*
Y2675D01*
X1530Y2665D01*
X1550D01*
X1560Y2675D01*
X1580Y2665D02*
X1600D01*
X1590D01*
Y2725D01*
X1580Y2715D01*
X1670Y2665D02*
X1630D01*
X1670Y2705D01*
Y2715D01*
X1660Y2725D01*
X1640D01*
X1630Y2715D01*
X1031Y2839D02*
X1021Y2849D01*
X1001D01*
X991Y2839D01*
Y2799D01*
X1001Y2789D01*
X1021D01*
X1031Y2799D01*
X1051Y2789D02*
X1071D01*
X1061D01*
Y2849D01*
X1051Y2839D01*
X1101Y2789D02*
X1121D01*
X1111D01*
Y2849D01*
X1101Y2839D01*
X1278Y2210D02*
X1268Y2220D01*
X1248D01*
X1238Y2210D01*
Y2170D01*
X1248Y2160D01*
X1268D01*
X1278Y2170D01*
X1298Y2160D02*
X1318D01*
X1308D01*
Y2220D01*
X1298Y2210D01*
X1348D02*
X1358Y2220D01*
X1378D01*
X1388Y2210D01*
Y2170D01*
X1378Y2160D01*
X1358D01*
X1348Y2170D01*
Y2210D01*
X788Y2534D02*
X778Y2544D01*
X758D01*
X748Y2534D01*
Y2494D01*
X758Y2484D01*
X778D01*
X788Y2494D01*
X808D02*
X818Y2484D01*
X838D01*
X848Y2494D01*
Y2534D01*
X838Y2544D01*
X818D01*
X808Y2534D01*
Y2524D01*
X818Y2514D01*
X848D01*
X1169Y1303D02*
X1159Y1313D01*
X1139D01*
X1129Y1303D01*
Y1263D01*
X1139Y1253D01*
X1159D01*
X1169Y1263D01*
X1189Y1303D02*
X1199Y1313D01*
X1219D01*
X1229Y1303D01*
Y1293D01*
X1219Y1283D01*
X1229Y1273D01*
Y1263D01*
X1219Y1253D01*
X1199D01*
X1189Y1263D01*
Y1273D01*
X1199Y1283D01*
X1189Y1293D01*
Y1303D01*
X1199Y1283D02*
X1219D01*
X1582Y1293D02*
X1572Y1303D01*
X1552D01*
X1542Y1293D01*
Y1253D01*
X1552Y1243D01*
X1572D01*
X1582Y1253D01*
X1602Y1303D02*
X1642D01*
Y1293D01*
X1602Y1253D01*
Y1243D01*
X284Y2400D02*
X274Y2410D01*
X254D01*
X244Y2400D01*
Y2360D01*
X254Y2350D01*
X274D01*
X284Y2360D01*
X344Y2410D02*
X324Y2400D01*
X304Y2380D01*
Y2360D01*
X314Y2350D01*
X334D01*
X344Y2360D01*
Y2370D01*
X334Y2380D01*
X304D01*
X1145Y1800D02*
X1135Y1810D01*
X1115D01*
X1105Y1800D01*
Y1760D01*
X1115Y1750D01*
X1135D01*
X1145Y1760D01*
X1205Y1810D02*
X1165D01*
Y1780D01*
X1185Y1790D01*
X1195D01*
X1205Y1780D01*
Y1760D01*
X1195Y1750D01*
X1175D01*
X1165Y1760D01*
X1428Y1781D02*
X1418Y1791D01*
X1398D01*
X1388Y1781D01*
Y1741D01*
X1398Y1731D01*
X1418D01*
X1428Y1741D01*
X1477Y1731D02*
Y1791D01*
X1448Y1761D01*
X1487D01*
X284Y1987D02*
X274Y1997D01*
X254D01*
X244Y1987D01*
Y1947D01*
X254Y1937D01*
X274D01*
X284Y1947D01*
X304Y1987D02*
X314Y1997D01*
X334D01*
X344Y1987D01*
Y1977D01*
X334Y1967D01*
X324D01*
X334D01*
X344Y1957D01*
Y1947D01*
X334Y1937D01*
X314D01*
X304Y1947D01*
X910Y2557D02*
X900Y2567D01*
X880D01*
X870Y2557D01*
Y2517D01*
X880Y2507D01*
X900D01*
X910Y2517D01*
X970Y2507D02*
X930D01*
X970Y2547D01*
Y2557D01*
X960Y2567D01*
X940D01*
X930Y2557D01*
X423Y2466D02*
X413Y2476D01*
X393D01*
X383Y2466D01*
Y2426D01*
X393Y2416D01*
X413D01*
X423Y2426D01*
X443Y2416D02*
X463D01*
X453D01*
Y2476D01*
X443Y2466D01*
X2101Y2788D02*
X2493D01*
X2101Y2613D02*
Y2788D01*
X2493Y2613D02*
Y2788D01*
X2101Y2613D02*
X2493D01*
X2623Y2841D02*
X2613Y2851D01*
X2593D01*
X2583Y2841D01*
Y2801D01*
X2593Y2791D01*
X2613D01*
X2623Y2801D01*
X2643Y2791D02*
X2663D01*
X2653D01*
Y2851D01*
X2643Y2841D01*
X2693Y2801D02*
X2703Y2791D01*
X2723D01*
X2733Y2801D01*
Y2841D01*
X2723Y2851D01*
X2703D01*
X2693Y2841D01*
Y2831D01*
X2703Y2821D01*
X2733D01*
X2358Y1930D02*
X2398Y1870D01*
Y1930D02*
X2358Y1870D01*
X2418D02*
X2438D01*
X2428D01*
Y1930D01*
X2418Y1920D01*
X3386Y1869D02*
X3406D01*
X3396D01*
Y1809D01*
X3386D01*
X3406D01*
X3436D02*
Y1849D01*
X3466D01*
X3476Y1839D01*
Y1809D01*
X3390Y2505D02*
X3410D01*
X3400D01*
Y2445D01*
X3390D01*
X3410D01*
X3440D02*
Y2485D01*
X3470D01*
X3480Y2475D01*
Y2445D01*
X3304Y895D02*
Y845D01*
X3314Y835D01*
X3334D01*
X3344Y845D01*
Y895D01*
X3364Y835D02*
X3384D01*
X3374D01*
Y895D01*
X3364Y885D01*
X3414Y895D02*
X3454D01*
Y885D01*
X3414Y845D01*
Y835D01*
X2604Y3394D02*
X2614Y3404D01*
X2634D01*
X2644Y3394D01*
Y3354D01*
X2634Y3344D01*
X2614D01*
X2604Y3354D01*
Y3394D01*
X2664Y3384D02*
X2684Y3344D01*
X2704Y3384D01*
X2043Y1130D02*
Y1080D01*
X2053Y1070D01*
X2073D01*
X2083Y1080D01*
Y1130D01*
X2103Y1070D02*
X2123D01*
X2113D01*
Y1130D01*
X2103Y1120D01*
X2193Y1130D02*
X2153D01*
Y1100D01*
X2173Y1110D01*
X2183D01*
X2193Y1100D01*
Y1080D01*
X2183Y1070D01*
X2163D01*
X2153Y1080D01*
X2794Y3397D02*
X2754D01*
Y3367D01*
X2774Y3377D01*
X2784D01*
X2794Y3367D01*
Y3347D01*
X2784Y3337D01*
X2764D01*
X2754Y3347D01*
X2814Y3377D02*
X2834Y3337D01*
X2854Y3377D01*
X2428Y1574D02*
Y1524D01*
X2438Y1514D01*
X2458D01*
X2468Y1524D01*
Y1574D01*
X2488Y1514D02*
X2508D01*
X2498D01*
Y1574D01*
X2488Y1564D01*
X2538D02*
X2548Y1574D01*
X2568D01*
X2578Y1564D01*
Y1554D01*
X2568Y1544D01*
X2558D01*
X2568D01*
X2578Y1534D01*
Y1524D01*
X2568Y1514D01*
X2548D01*
X2538Y1524D01*
X3035Y79D02*
Y29D01*
X3045Y19D01*
X3065D01*
X3075Y29D01*
Y79D01*
X3095Y19D02*
X3115D01*
X3105D01*
Y79D01*
X3095Y69D01*
X3185Y19D02*
X3145D01*
X3185Y59D01*
Y69D01*
X3175Y79D01*
X3155D01*
X3145Y69D01*
X2520Y1406D02*
Y1356D01*
X2530Y1346D01*
X2550D01*
X2560Y1356D01*
Y1406D01*
X2580Y1346D02*
X2600D01*
X2590D01*
Y1406D01*
X2580Y1396D01*
X2630Y1346D02*
X2650D01*
X2640D01*
Y1406D01*
X2630Y1396D01*
X3207Y2941D02*
Y2891D01*
X3217Y2881D01*
X3237D01*
X3247Y2891D01*
Y2941D01*
X3267Y2881D02*
X3287D01*
X3277D01*
Y2941D01*
X3267Y2931D01*
X3317D02*
X3327Y2941D01*
X3347D01*
X3357Y2931D01*
Y2891D01*
X3347Y2881D01*
X3327D01*
X3317Y2891D01*
Y2931D01*
X2323Y1841D02*
Y1791D01*
X2333Y1781D01*
X2353D01*
X2363Y1791D01*
Y1841D01*
X2383Y1791D02*
X2393Y1781D01*
X2413D01*
X2423Y1791D01*
Y1831D01*
X2413Y1841D01*
X2393D01*
X2383Y1831D01*
Y1821D01*
X2393Y1811D01*
X2423D01*
X2961Y1988D02*
Y1938D01*
X2971Y1928D01*
X2991D01*
X3001Y1938D01*
Y1988D01*
X3021Y1978D02*
X3031Y1988D01*
X3051D01*
X3061Y1978D01*
Y1968D01*
X3051Y1958D01*
X3061Y1948D01*
Y1938D01*
X3051Y1928D01*
X3031D01*
X3021Y1938D01*
Y1948D01*
X3031Y1958D01*
X3021Y1968D01*
Y1978D01*
X3031Y1958D02*
X3051D01*
X2666Y1613D02*
Y1563D01*
X2676Y1553D01*
X2696D01*
X2706Y1563D01*
Y1613D01*
X2726D02*
X2766D01*
Y1603D01*
X2726Y1563D01*
Y1553D01*
X3106Y1408D02*
Y1458D01*
X3096Y1468D01*
X3076D01*
X3066Y1458D01*
Y1408D01*
X3006D02*
X3026Y1418D01*
X3046Y1438D01*
Y1458D01*
X3036Y1468D01*
X3016D01*
X3006Y1458D01*
Y1448D01*
X3016Y1438D01*
X3046D01*
X2628Y3170D02*
X2588D01*
Y3140D01*
X2608Y3150D01*
X2618D01*
X2628Y3140D01*
Y3120D01*
X2618Y3110D01*
X2598D01*
X2588Y3120D01*
X2648Y3150D02*
X2668Y3110D01*
X2688Y3150D01*
X3173Y2394D02*
Y2344D01*
X3183Y2334D01*
X3203D01*
X3213Y2344D01*
Y2394D01*
X3263Y2334D02*
Y2394D01*
X3233Y2364D01*
X3273D01*
X2628Y3016D02*
X2588D01*
Y2986D01*
X2608Y2996D01*
X2618D01*
X2628Y2986D01*
Y2966D01*
X2618Y2956D01*
X2598D01*
X2588Y2966D01*
X2648Y2996D02*
X2668Y2956D01*
X2688Y2996D01*
X2248Y3430D02*
Y3380D01*
X2258Y3370D01*
X2278D01*
X2288Y3380D01*
Y3430D01*
X2348Y3370D02*
X2308D01*
X2348Y3410D01*
Y3420D01*
X2338Y3430D01*
X2318D01*
X2308Y3420D01*
X1996Y2725D02*
Y2675D01*
X2006Y2665D01*
X2026D01*
X2036Y2675D01*
Y2725D01*
X2056Y2665D02*
X2076D01*
X2066D01*
Y2725D01*
X2056Y2715D01*
X3058Y903D02*
Y963D01*
X3088D01*
X3098Y953D01*
Y933D01*
X3088Y923D01*
X3058D01*
X3078D02*
X3098Y903D01*
X3118D02*
X3138D01*
X3128D01*
Y963D01*
X3118Y953D01*
X2095Y1754D02*
X2085Y1764D01*
X2065D01*
X2055Y1754D01*
Y1714D01*
X2065Y1704D01*
X2085D01*
X2095Y1714D01*
X2115Y1704D02*
X2135D01*
X2125D01*
Y1764D01*
X2115Y1754D01*
X2165D02*
X2175Y1764D01*
X2195D01*
X2205Y1754D01*
Y1744D01*
X2195Y1734D01*
X2205Y1724D01*
Y1714D01*
X2195Y1704D01*
X2175D01*
X2165Y1714D01*
Y1724D01*
X2175Y1734D01*
X2165Y1744D01*
Y1754D01*
X2175Y1734D02*
X2195D01*
X2091Y1368D02*
X2081Y1378D01*
X2061D01*
X2051Y1368D01*
Y1329D01*
X2061Y1319D01*
X2081D01*
X2091Y1329D01*
X2111Y1319D02*
X2131D01*
X2121D01*
Y1378D01*
X2111Y1368D01*
X2161Y1378D02*
X2201D01*
Y1368D01*
X2161Y1329D01*
Y1319D01*
X2956Y3379D02*
X2946Y3389D01*
X2926D01*
X2916Y3379D01*
Y3339D01*
X2926Y3329D01*
X2946D01*
X2956Y3339D01*
X2976Y3329D02*
X2996D01*
X2986D01*
Y3389D01*
X2976Y3379D01*
X3066Y3389D02*
X3046Y3379D01*
X3026Y3359D01*
Y3339D01*
X3036Y3329D01*
X3056D01*
X3066Y3339D01*
Y3349D01*
X3056Y3359D01*
X3026D01*
X3133Y3379D02*
X3123Y3389D01*
X3103D01*
X3093Y3379D01*
Y3339D01*
X3103Y3329D01*
X3123D01*
X3133Y3339D01*
X3153Y3329D02*
X3173D01*
X3163D01*
Y3389D01*
X3153Y3379D01*
X3243Y3389D02*
X3203D01*
Y3359D01*
X3223Y3369D01*
X3233D01*
X3243Y3359D01*
Y3339D01*
X3233Y3329D01*
X3213D01*
X3203Y3339D01*
X2768Y1428D02*
X2758Y1438D01*
X2738D01*
X2728Y1428D01*
Y1388D01*
X2738Y1378D01*
X2758D01*
X2768Y1388D01*
X2788Y1378D02*
X2808D01*
X2798D01*
Y1438D01*
X2788Y1428D01*
X2868Y1378D02*
Y1438D01*
X2838Y1408D01*
X2878D01*
X2973Y1069D02*
X2963Y1079D01*
X2943D01*
X2933Y1069D01*
Y1029D01*
X2943Y1019D01*
X2963D01*
X2973Y1029D01*
X2993Y1019D02*
X3013D01*
X3003D01*
Y1079D01*
X2993Y1069D01*
X3043D02*
X3053Y1079D01*
X3073D01*
X3083Y1069D01*
Y1059D01*
X3073Y1049D01*
X3063D01*
X3073D01*
X3083Y1039D01*
Y1029D01*
X3073Y1019D01*
X3053D01*
X3043Y1029D01*
X3410Y2715D02*
X3400Y2725D01*
X3380D01*
X3370Y2715D01*
Y2675D01*
X3380Y2665D01*
X3400D01*
X3410Y2675D01*
X3430Y2665D02*
X3450D01*
X3440D01*
Y2725D01*
X3430Y2715D01*
X3520Y2665D02*
X3480D01*
X3520Y2705D01*
Y2715D01*
X3510Y2725D01*
X3490D01*
X3480Y2715D01*
X2881Y2839D02*
X2871Y2849D01*
X2851D01*
X2841Y2839D01*
Y2799D01*
X2851Y2789D01*
X2871D01*
X2881Y2799D01*
X2901Y2789D02*
X2921D01*
X2911D01*
Y2849D01*
X2901Y2839D01*
X2951Y2789D02*
X2971D01*
X2961D01*
Y2849D01*
X2951Y2839D01*
X3128Y2210D02*
X3118Y2220D01*
X3098D01*
X3088Y2210D01*
Y2170D01*
X3098Y2160D01*
X3118D01*
X3128Y2170D01*
X3148Y2160D02*
X3168D01*
X3158D01*
Y2220D01*
X3148Y2210D01*
X3198D02*
X3208Y2220D01*
X3228D01*
X3238Y2210D01*
Y2170D01*
X3228Y2160D01*
X3208D01*
X3198Y2170D01*
Y2210D01*
X2638Y2534D02*
X2628Y2544D01*
X2608D01*
X2598Y2534D01*
Y2494D01*
X2608Y2484D01*
X2628D01*
X2638Y2494D01*
X2658D02*
X2668Y2484D01*
X2688D01*
X2698Y2494D01*
Y2534D01*
X2688Y2544D01*
X2668D01*
X2658Y2534D01*
Y2524D01*
X2668Y2514D01*
X2698D01*
X3019Y1303D02*
X3009Y1313D01*
X2989D01*
X2979Y1303D01*
Y1263D01*
X2989Y1253D01*
X3009D01*
X3019Y1263D01*
X3039Y1303D02*
X3049Y1313D01*
X3069D01*
X3079Y1303D01*
Y1293D01*
X3069Y1283D01*
X3079Y1273D01*
Y1263D01*
X3069Y1253D01*
X3049D01*
X3039Y1263D01*
Y1273D01*
X3049Y1283D01*
X3039Y1293D01*
Y1303D01*
X3049Y1283D02*
X3069D01*
X3433Y1293D02*
X3423Y1303D01*
X3403D01*
X3393Y1293D01*
Y1253D01*
X3403Y1243D01*
X3423D01*
X3433Y1253D01*
X3453Y1303D02*
X3493D01*
Y1293D01*
X3453Y1253D01*
Y1243D01*
X2134Y2400D02*
X2124Y2410D01*
X2104D01*
X2094Y2400D01*
Y2360D01*
X2104Y2350D01*
X2124D01*
X2134Y2360D01*
X2194Y2410D02*
X2174Y2400D01*
X2154Y2380D01*
Y2360D01*
X2164Y2350D01*
X2184D01*
X2194Y2360D01*
Y2370D01*
X2184Y2380D01*
X2154D01*
X2995Y1800D02*
X2985Y1810D01*
X2965D01*
X2955Y1800D01*
Y1760D01*
X2965Y1750D01*
X2985D01*
X2995Y1760D01*
X3055Y1810D02*
X3015D01*
Y1780D01*
X3035Y1790D01*
X3045D01*
X3055Y1780D01*
Y1760D01*
X3045Y1750D01*
X3025D01*
X3015Y1760D01*
X3278Y1781D02*
X3268Y1791D01*
X3248D01*
X3238Y1781D01*
Y1741D01*
X3248Y1731D01*
X3268D01*
X3278Y1741D01*
X3328Y1731D02*
Y1791D01*
X3298Y1761D01*
X3338D01*
X2134Y1987D02*
X2124Y1997D01*
X2104D01*
X2094Y1987D01*
Y1947D01*
X2104Y1937D01*
X2124D01*
X2134Y1947D01*
X2154Y1987D02*
X2164Y1997D01*
X2184D01*
X2194Y1987D01*
Y1977D01*
X2184Y1967D01*
X2174D01*
X2184D01*
X2194Y1957D01*
Y1947D01*
X2184Y1937D01*
X2164D01*
X2154Y1947D01*
X2760Y2557D02*
X2750Y2567D01*
X2730D01*
X2720Y2557D01*
Y2517D01*
X2730Y2507D01*
X2750D01*
X2760Y2517D01*
X2820Y2507D02*
X2780D01*
X2820Y2547D01*
Y2557D01*
X2810Y2567D01*
X2790D01*
X2780Y2557D01*
X2274Y2466D02*
X2264Y2476D01*
X2244D01*
X2234Y2466D01*
Y2426D01*
X2244Y2416D01*
X2264D01*
X2274Y2426D01*
X2294Y2416D02*
X2314D01*
X2304D01*
Y2476D01*
X2294Y2466D01*
M02*
