%FSLAX44Y44*%
%MOMM*%
G71*
G01*
G75*
G04 Layer_Color=16711935*
%ADD10O,1.4000X0.4500*%
%ADD11O,0.4500X1.4000*%
%ADD12O,0.6000X1.9000*%
%ADD13C,1.2000*%
%ADD14C,0.4500*%
%ADD15C,2.0000*%
%ADD16C,0.6000*%
%ADD17C,1.0000*%
%ADD18C,0.2500*%
%ADD19C,2.0000*%
%ADD20O,1.2000X2.5000*%
%ADD21R,1.2000X2.5000*%
%ADD22C,1.2000*%
%ADD23O,1.0000X2.0000*%
%ADD24O,1.0000X2.0000*%
%ADD25R,1.5000X1.5000*%
%ADD26C,1.5000*%
%ADD27C,1.3000*%
%ADD28C,3.0000*%
%ADD29C,3.7000*%
%ADD30R,2.5000X1.2000*%
%ADD31O,2.5000X1.2000*%
%ADD32C,0.6200*%
%ADD33C,0.4000*%
%ADD34C,0.2000*%
%ADD35C,0.2540*%
%ADD36O,0.4900X1.4400*%
%ADD37O,0.8000X2.1000*%
%ADD38C,2.2000*%
%ADD39O,1.4000X2.7000*%
%ADD40R,1.4000X2.7000*%
%ADD41C,1.4000*%
%ADD42O,1.1000X2.1000*%
%ADD43O,1.1000X2.1000*%
%ADD44R,1.7000X1.7000*%
%ADD45C,1.7000*%
%ADD46C,3.2000*%
%ADD47C,3.9000*%
%ADD48R,2.7000X1.4000*%
%ADD49O,2.7000X1.4000*%
%ADD50C,0.2000*%
D18*
X470500Y894500D02*
X452000D01*
X470250Y0D02*
X451750D01*
X922000Y-0D02*
X470000Y-0D01*
X922000Y894500D02*
X470000Y894500D01*
X922000Y-0D02*
X922000Y894500D01*
X470000Y-0D02*
X470000Y894500D01*
X452000Y-0D02*
X-0Y-0D01*
X452000Y894500D02*
X-0Y894500D01*
X452000Y-0D02*
X452000Y894500D01*
X-0Y-0D02*
X-0Y894500D01*
X470500Y894500D02*
X452000D01*
X470250Y0D02*
X451750D01*
X922000Y-0D02*
X470000Y-0D01*
X922000Y894500D02*
X470000Y894500D01*
X922000Y-0D02*
X922000Y894500D01*
X470000Y-0D02*
X470000Y894500D01*
X452000Y-0D02*
X-0Y-0D01*
X452000Y894500D02*
X-0Y894500D01*
X452000Y-0D02*
X452000Y894500D01*
X-0Y-0D02*
X-0Y894500D01*
M02*
