%FSLAX23Y23*%
%MOIN*%
G70*
G01*
G75*
G04 Layer_Physical_Order=2*
G04 Layer_Color=16711680*
%ADD10O,0.024X0.075*%
%ADD11O,0.055X0.018*%
%ADD12O,0.018X0.055*%
%ADD13C,0.018*%
%ADD14C,0.047*%
%ADD15C,0.039*%
%ADD16C,0.024*%
%ADD17C,0.079*%
%ADD18R,0.098X0.047*%
%ADD19O,0.098X0.047*%
%ADD20C,0.047*%
%ADD21C,0.079*%
%ADD22C,0.118*%
%ADD23C,0.146*%
%ADD24C,0.051*%
%ADD25C,0.059*%
%ADD26R,0.059X0.059*%
%ADD27O,0.039X0.079*%
%ADD28O,0.039X0.079*%
%ADD29R,0.047X0.098*%
%ADD30O,0.047X0.098*%
%ADD31C,0.024*%
G36*
X1678Y3504D02*
X1666Y3501D01*
X1653Y3494D01*
X1643Y3485D01*
X1634Y3475D01*
X1627Y3462D01*
X1623Y3449D01*
X1622Y3435D01*
X1623Y3421D01*
X1627Y3408D01*
X1634Y3395D01*
X1643Y3385D01*
X1653Y3376D01*
X1666Y3369D01*
X1679Y3365D01*
X1693Y3364D01*
X1707Y3365D01*
X1720Y3369D01*
X1732Y3376D01*
X1743Y3385D01*
X1752Y3395D01*
X1759Y3408D01*
X1763Y3421D01*
X1768Y3421D01*
Y33D01*
X1764Y29D01*
X136Y29D01*
X134Y34D01*
X137Y36D01*
X146Y47D01*
X152Y59D01*
X156Y73D01*
X158Y87D01*
X156Y101D01*
X152Y114D01*
X146Y126D01*
X137Y137D01*
X126Y146D01*
X114Y152D01*
X101Y156D01*
X87Y158D01*
X73Y156D01*
X59Y152D01*
X47Y146D01*
X36Y137D01*
X27Y126D01*
X21Y114D01*
X17Y101D01*
X12Y101D01*
X12Y3506D01*
X15Y3509D01*
X1677D01*
X1678Y3504D01*
D02*
G37*
%LPC*%
G36*
X1522Y809D02*
X1471D01*
X1462Y808D01*
X1455Y805D01*
X1448Y800D01*
X1443Y793D01*
X1440Y786D01*
X1439Y778D01*
X1440Y769D01*
X1443Y762D01*
X1448Y755D01*
X1455Y750D01*
X1462Y747D01*
X1471Y746D01*
X1522D01*
X1530Y747D01*
X1538Y750D01*
X1544Y755D01*
X1549Y762D01*
X1553Y769D01*
X1554Y778D01*
X1553Y786D01*
X1549Y793D01*
X1544Y800D01*
X1538Y805D01*
X1530Y808D01*
X1522Y809D01*
D02*
G37*
G36*
X1128Y799D02*
X1077D01*
X1069Y798D01*
X1061Y795D01*
X1054Y790D01*
X1049Y783D01*
X1046Y776D01*
X1045Y767D01*
X1046Y759D01*
X1049Y751D01*
X1054Y745D01*
X1061Y740D01*
X1069Y737D01*
X1077Y736D01*
X1128D01*
X1136Y737D01*
X1144Y740D01*
X1150Y745D01*
X1155Y751D01*
X1159Y759D01*
X1160Y767D01*
X1159Y776D01*
X1155Y783D01*
X1150Y790D01*
X1144Y795D01*
X1136Y798D01*
X1128Y799D01*
D02*
G37*
G36*
X328D02*
X277D01*
X269Y798D01*
X261Y795D01*
X254Y790D01*
X249Y783D01*
X246Y776D01*
X245Y767D01*
X246Y759D01*
X249Y751D01*
X254Y745D01*
X261Y740D01*
X269Y737D01*
X277Y736D01*
X328D01*
X336Y737D01*
X344Y740D01*
X350Y745D01*
X355Y751D01*
X359Y759D01*
X360Y767D01*
X359Y776D01*
X355Y783D01*
X350Y790D01*
X344Y795D01*
X336Y798D01*
X328Y799D01*
D02*
G37*
G36*
X465Y1295D02*
X456Y1294D01*
X449Y1291D01*
X442Y1286D01*
X437Y1279D01*
X434Y1272D01*
X433Y1263D01*
X434Y1255D01*
X437Y1248D01*
X442Y1241D01*
X449Y1236D01*
X456Y1233D01*
X465Y1232D01*
X473Y1233D01*
X480Y1236D01*
X487Y1241D01*
X492Y1248D01*
X495Y1255D01*
X496Y1263D01*
X495Y1272D01*
X492Y1279D01*
X487Y1286D01*
X480Y1291D01*
X473Y1294D01*
X465Y1295D01*
D02*
G37*
G36*
X850Y1126D02*
X842Y1125D01*
X835Y1122D01*
X828Y1117D01*
X823Y1110D01*
X820Y1102D01*
X819Y1094D01*
X820Y1086D01*
X823Y1078D01*
X828Y1072D01*
X835Y1067D01*
X842Y1063D01*
X850Y1062D01*
X859Y1063D01*
X866Y1067D01*
X873Y1072D01*
X878Y1078D01*
X881Y1086D01*
X882Y1094D01*
X881Y1102D01*
X878Y1110D01*
X873Y1117D01*
X866Y1122D01*
X859Y1125D01*
X850Y1126D01*
D02*
G37*
G36*
X409Y1150D02*
X397Y1148D01*
X386Y1143D01*
X376Y1136D01*
X368Y1126D01*
X363Y1114D01*
X362Y1102D01*
X363Y1090D01*
X368Y1078D01*
X376Y1068D01*
X386Y1061D01*
X397Y1056D01*
X409Y1054D01*
X422Y1056D01*
X433Y1061D01*
X443Y1068D01*
X451Y1078D01*
X455Y1090D01*
X457Y1102D01*
X455Y1114D01*
X451Y1126D01*
X443Y1136D01*
X433Y1143D01*
X422Y1148D01*
X409Y1150D01*
D02*
G37*
G36*
X328Y699D02*
X277D01*
X269Y698D01*
X261Y695D01*
X254Y690D01*
X249Y683D01*
X246Y676D01*
X245Y667D01*
X246Y659D01*
X249Y651D01*
X254Y645D01*
X261Y640D01*
X269Y637D01*
X277Y636D01*
X328D01*
X336Y637D01*
X344Y640D01*
X350Y645D01*
X355Y651D01*
X359Y659D01*
X360Y667D01*
X359Y676D01*
X355Y683D01*
X350Y690D01*
X344Y695D01*
X336Y698D01*
X328Y699D01*
D02*
G37*
G36*
X777Y814D02*
X769Y812D01*
X762Y808D01*
X758Y801D01*
X756Y793D01*
X758Y785D01*
X760Y782D01*
Y630D01*
X759Y630D01*
X755Y623D01*
X753Y615D01*
X755Y607D01*
X759Y601D01*
X766Y596D01*
X774Y595D01*
X782Y596D01*
X788Y601D01*
X793Y607D01*
X794Y615D01*
X794Y618D01*
Y782D01*
X795Y785D01*
X797Y793D01*
X795Y801D01*
X791Y808D01*
X784Y812D01*
X777Y814D01*
D02*
G37*
G36*
X1522Y611D02*
X1504D01*
Y585D01*
X1555D01*
X1555Y586D01*
X1551Y595D01*
X1546Y602D01*
X1539Y607D01*
X1531Y610D01*
X1522Y611D01*
D02*
G37*
G36*
X674Y885D02*
X666Y883D01*
X660Y879D01*
X655Y872D01*
X654Y865D01*
X655Y858D01*
X655Y857D01*
X654Y851D01*
Y827D01*
X655Y820D01*
X657Y817D01*
Y803D01*
X655Y802D01*
X648Y798D01*
X644Y791D01*
X642Y784D01*
X644Y776D01*
X648Y769D01*
X655Y765D01*
X662Y763D01*
X670Y765D01*
X677Y769D01*
X678Y770D01*
X683Y769D01*
Y743D01*
X680Y742D01*
X674Y738D01*
X669Y731D01*
X668Y723D01*
X669Y716D01*
X674Y709D01*
X680Y705D01*
X688Y703D01*
X696Y705D01*
X703Y709D01*
X707Y716D01*
X708Y721D01*
X712Y724D01*
X716Y729D01*
X717Y736D01*
Y775D01*
X717Y775D01*
X718Y782D01*
Y806D01*
X717Y813D01*
X717Y813D01*
Y828D01*
X719Y831D01*
X720Y839D01*
X719Y847D01*
X714Y853D01*
X708Y858D01*
X700Y859D01*
X698Y859D01*
X694Y863D01*
X695Y865D01*
X693Y872D01*
X689Y879D01*
X682Y883D01*
X674Y885D01*
D02*
G37*
G36*
X1522Y709D02*
X1471D01*
X1462Y708D01*
X1455Y705D01*
X1448Y700D01*
X1443Y693D01*
X1440Y686D01*
X1439Y678D01*
X1440Y669D01*
X1443Y662D01*
X1448Y655D01*
X1455Y650D01*
X1462Y647D01*
X1471Y646D01*
X1522D01*
X1530Y647D01*
X1538Y650D01*
X1544Y655D01*
X1549Y662D01*
X1553Y669D01*
X1554Y678D01*
X1553Y686D01*
X1549Y693D01*
X1544Y700D01*
X1538Y705D01*
X1530Y708D01*
X1522Y709D01*
D02*
G37*
G36*
X1128Y699D02*
X1077D01*
X1069Y698D01*
X1061Y695D01*
X1054Y690D01*
X1049Y683D01*
X1046Y676D01*
X1045Y667D01*
X1046Y659D01*
X1049Y651D01*
X1054Y645D01*
X1061Y640D01*
X1069Y637D01*
X1077Y636D01*
X1128D01*
X1136Y637D01*
X1144Y640D01*
X1150Y645D01*
X1155Y651D01*
X1159Y659D01*
X1160Y667D01*
X1159Y676D01*
X1155Y683D01*
X1150Y690D01*
X1144Y695D01*
X1136Y698D01*
X1128Y699D01*
D02*
G37*
G36*
X508Y1716D02*
X457D01*
Y1690D01*
X508D01*
Y1716D01*
D02*
G37*
G36*
X1012Y1761D02*
X1002Y1760D01*
X993Y1756D01*
X986Y1750D01*
X980Y1742D01*
X976Y1733D01*
X974Y1723D01*
X976Y1713D01*
X980Y1704D01*
X986Y1697D01*
X993Y1691D01*
X1002Y1687D01*
X1012Y1686D01*
X1022Y1687D01*
X1031Y1691D01*
X1039Y1697D01*
X1045Y1704D01*
X1049Y1713D01*
X1050Y1723D01*
X1049Y1733D01*
X1045Y1742D01*
X1039Y1750D01*
X1031Y1756D01*
X1022Y1760D01*
X1012Y1761D01*
D02*
G37*
G36*
X1406Y1669D02*
X1397Y1668D01*
X1390Y1665D01*
X1383Y1660D01*
X1378Y1653D01*
X1375Y1646D01*
X1374Y1637D01*
X1375Y1629D01*
X1378Y1622D01*
X1383Y1615D01*
X1390Y1610D01*
X1397Y1607D01*
X1406Y1606D01*
X1414Y1607D01*
X1421Y1610D01*
X1428Y1615D01*
X1433Y1622D01*
X1436Y1629D01*
X1437Y1637D01*
X1436Y1646D01*
X1433Y1653D01*
X1428Y1660D01*
X1421Y1665D01*
X1414Y1668D01*
X1406Y1669D01*
D02*
G37*
G36*
X575Y1758D02*
X524D01*
Y1732D01*
X575D01*
Y1758D01*
D02*
G37*
G36*
X508D02*
X457D01*
Y1732D01*
X508D01*
Y1758D01*
D02*
G37*
G36*
X575Y1716D02*
X524D01*
Y1690D01*
X575D01*
Y1716D01*
D02*
G37*
G36*
X465Y1504D02*
X457Y1503D01*
X451Y1500D01*
X445Y1496D01*
X440Y1490D01*
X438Y1483D01*
X437Y1476D01*
Y1437D01*
X438Y1429D01*
X440Y1423D01*
X445Y1417D01*
X451Y1413D01*
X457Y1410D01*
X465Y1409D01*
X472Y1410D01*
X478Y1413D01*
X484Y1417D01*
X486Y1420D01*
X493D01*
X495Y1417D01*
X501Y1413D01*
X507Y1410D01*
X515Y1409D01*
X522Y1410D01*
X528Y1413D01*
X534Y1417D01*
X539Y1423D01*
X541Y1429D01*
X542Y1437D01*
Y1476D01*
X541Y1483D01*
X539Y1490D01*
X534Y1496D01*
X528Y1500D01*
X522Y1503D01*
X515Y1504D01*
X507Y1503D01*
X501Y1500D01*
X495Y1496D01*
X493Y1493D01*
X486D01*
X484Y1496D01*
X478Y1500D01*
X472Y1503D01*
X465Y1504D01*
D02*
G37*
G36*
X1469Y1299D02*
X1460Y1298D01*
X1453Y1295D01*
X1446Y1290D01*
X1441Y1283D01*
X1438Y1276D01*
X1437Y1267D01*
X1438Y1259D01*
X1441Y1251D01*
X1446Y1245D01*
X1453Y1240D01*
X1460Y1237D01*
X1469Y1236D01*
X1477Y1237D01*
X1484Y1240D01*
X1491Y1245D01*
X1496Y1251D01*
X1499Y1259D01*
X1500Y1267D01*
X1499Y1276D01*
X1496Y1283D01*
X1491Y1290D01*
X1484Y1295D01*
X1477Y1298D01*
X1469Y1299D01*
D02*
G37*
G36*
X1291D02*
X1283Y1298D01*
X1275Y1295D01*
X1269Y1290D01*
X1264Y1283D01*
X1261Y1276D01*
X1260Y1267D01*
X1261Y1259D01*
X1264Y1251D01*
X1269Y1245D01*
X1275Y1240D01*
X1283Y1237D01*
X1291Y1236D01*
X1300Y1237D01*
X1307Y1240D01*
X1314Y1245D01*
X1319Y1251D01*
X1322Y1259D01*
X1323Y1267D01*
X1322Y1276D01*
X1319Y1283D01*
X1314Y1290D01*
X1307Y1295D01*
X1300Y1298D01*
X1291Y1299D01*
D02*
G37*
G36*
X1256Y2079D02*
X1248Y2078D01*
X1240Y2074D01*
X1233Y2069D01*
X1228Y2063D01*
X1225Y2055D01*
X1224Y2047D01*
X1225Y2039D01*
X1228Y2033D01*
X1225Y2028D01*
X1198D01*
X1197Y2028D01*
X1196D01*
X1196Y2028D01*
X1196D01*
X1195Y2027D01*
X1195Y2027D01*
X1195Y2027D01*
X1194Y2027D01*
X1193Y2026D01*
X1193Y2026D01*
X1190Y2024D01*
X1190Y2023D01*
X1190Y2022D01*
X1190Y2022D01*
X1190Y2022D01*
X1189Y2021D01*
Y2021D01*
X1189Y2021D01*
Y2020D01*
X1189Y2019D01*
Y1613D01*
X1189Y1612D01*
Y1611D01*
X1189Y1611D01*
Y1611D01*
X1190Y1610D01*
X1190Y1610D01*
X1190Y1610D01*
X1190Y1609D01*
X1190Y1608D01*
X1190Y1608D01*
X1193Y1606D01*
X1194Y1605D01*
X1195Y1605D01*
X1195Y1605D01*
X1195Y1605D01*
X1196Y1604D01*
X1196D01*
X1196Y1604D01*
X1197D01*
X1198Y1604D01*
X1209D01*
X1209Y1604D01*
X1216D01*
X1216Y1604D01*
X1238D01*
X1238Y1604D01*
X1245D01*
X1245Y1604D01*
X1268D01*
X1268D01*
X1268Y1604D01*
X1275D01*
X1275Y1604D01*
X1286D01*
X1286Y1604D01*
X1287D01*
X1288Y1604D01*
X1288Y1604D01*
X1288D01*
X1289Y1605D01*
X1289Y1605D01*
X1289Y1605D01*
X1289Y1605D01*
X1291Y1606D01*
X1291Y1606D01*
X1291Y1606D01*
X1291Y1606D01*
X1291Y1606D01*
X1292Y1607D01*
X1292Y1607D01*
X1292Y1607D01*
X1292Y1607D01*
X1293Y1608D01*
X1293Y1608D01*
X1293Y1608D01*
X1293Y1608D01*
X1293Y1608D01*
X1293Y1609D01*
X1294Y1609D01*
X1294Y1610D01*
X1294Y1610D01*
X1294Y1610D01*
X1295Y1611D01*
X1296Y1612D01*
X1297Y1612D01*
X1299Y1613D01*
X1299Y1613D01*
X1303Y1610D01*
X1311Y1607D01*
X1319Y1606D01*
X1327Y1607D01*
X1335Y1610D01*
X1341Y1615D01*
X1346Y1622D01*
X1350Y1629D01*
X1351Y1637D01*
X1350Y1646D01*
X1346Y1653D01*
X1341Y1660D01*
X1335Y1665D01*
X1327Y1668D01*
X1319Y1669D01*
X1311Y1668D01*
X1303Y1665D01*
X1299Y1662D01*
X1294Y1665D01*
X1294Y2019D01*
X1294Y2020D01*
Y2021D01*
X1294Y2021D01*
Y2021D01*
X1294Y2022D01*
X1294Y2022D01*
X1294Y2022D01*
X1293Y2024D01*
X1293Y2024D01*
X1293Y2024D01*
X1291Y2026D01*
X1289Y2027D01*
X1289Y2027D01*
X1289Y2027D01*
X1289Y2027D01*
X1289Y2027D01*
X1289Y2027D01*
X1288Y2028D01*
X1287Y2028D01*
X1286Y2029D01*
X1285Y2031D01*
X1284Y2033D01*
X1287Y2039D01*
X1288Y2047D01*
X1287Y2055D01*
X1283Y2063D01*
X1278Y2069D01*
X1272Y2074D01*
X1264Y2078D01*
X1256Y2079D01*
D02*
G37*
G36*
X541Y1656D02*
X490D01*
X482Y1655D01*
X474Y1652D01*
X468Y1646D01*
X463Y1640D01*
X459Y1632D01*
X458Y1624D01*
X459Y1616D01*
X463Y1608D01*
X468Y1602D01*
X474Y1597D01*
X482Y1593D01*
X490Y1592D01*
X541D01*
X550Y1593D01*
X557Y1597D01*
X564Y1602D01*
X569Y1608D01*
X572Y1616D01*
X573Y1624D01*
X572Y1632D01*
X569Y1640D01*
X564Y1646D01*
X557Y1652D01*
X550Y1655D01*
X541Y1656D01*
D02*
G37*
G36*
X382Y1653D02*
X374Y1652D01*
X366Y1649D01*
X359Y1644D01*
X354Y1638D01*
X351Y1630D01*
X350Y1622D01*
X351Y1613D01*
X354Y1606D01*
X359Y1599D01*
X366Y1594D01*
X374Y1591D01*
X382Y1590D01*
X390Y1591D01*
X398Y1594D01*
X404Y1599D01*
X409Y1606D01*
X413Y1613D01*
X414Y1622D01*
X413Y1630D01*
X409Y1638D01*
X404Y1644D01*
X398Y1649D01*
X390Y1652D01*
X382Y1653D01*
D02*
G37*
G36*
X1488Y611D02*
X1471D01*
X1462Y610D01*
X1454Y607D01*
X1447Y602D01*
X1441Y595D01*
X1438Y586D01*
X1438Y585D01*
X1488D01*
Y611D01*
D02*
G37*
G36*
X1094Y359D02*
X1044D01*
X1044Y359D01*
X1047Y350D01*
X1053Y343D01*
X1060Y338D01*
X1068Y335D01*
X1077Y333D01*
X1094D01*
Y359D01*
D02*
G37*
G36*
X1162Y301D02*
X1110D01*
Y275D01*
X1162D01*
Y301D01*
D02*
G37*
G36*
X1094D02*
X1043D01*
Y275D01*
X1094D01*
Y301D01*
D02*
G37*
G36*
X1553Y409D02*
X1439D01*
Y346D01*
X1553D01*
Y409D01*
D02*
G37*
G36*
X328Y399D02*
X277D01*
X269Y398D01*
X261Y395D01*
X254Y390D01*
X249Y383D01*
X246Y376D01*
X245Y367D01*
X246Y359D01*
X249Y351D01*
X254Y345D01*
X261Y340D01*
X269Y337D01*
X277Y336D01*
X328D01*
X336Y337D01*
X344Y340D01*
X350Y345D01*
X355Y351D01*
X359Y359D01*
X360Y367D01*
X359Y376D01*
X355Y383D01*
X350Y390D01*
X344Y395D01*
X336Y398D01*
X328Y399D01*
D02*
G37*
G36*
X1161Y359D02*
X1110D01*
Y333D01*
X1128D01*
X1137Y335D01*
X1145Y338D01*
X1152Y343D01*
X1157Y350D01*
X1161Y359D01*
X1161Y359D01*
D02*
G37*
G36*
X1094Y259D02*
X1043D01*
Y234D01*
X1094D01*
Y259D01*
D02*
G37*
G36*
X361D02*
X310D01*
Y233D01*
X328D01*
X337Y235D01*
X345Y238D01*
X352Y243D01*
X357Y250D01*
X361Y259D01*
X361Y259D01*
D02*
G37*
G36*
X294D02*
X244D01*
X244Y259D01*
X247Y250D01*
X253Y243D01*
X260Y238D01*
X268Y235D01*
X277Y233D01*
X294D01*
Y259D01*
D02*
G37*
G36*
X328Y301D02*
X310D01*
Y275D01*
X361D01*
X361Y276D01*
X357Y284D01*
X352Y291D01*
X345Y297D01*
X337Y300D01*
X328Y301D01*
D02*
G37*
G36*
X294D02*
X277D01*
X268Y300D01*
X260Y297D01*
X253Y291D01*
X247Y284D01*
X244Y276D01*
X244Y275D01*
X294D01*
Y301D01*
D02*
G37*
G36*
X1162Y259D02*
X1110D01*
Y234D01*
X1162D01*
Y259D01*
D02*
G37*
G36*
X1488Y570D02*
X1438D01*
X1438Y569D01*
X1441Y561D01*
X1447Y554D01*
X1454Y548D01*
X1462Y545D01*
X1471Y544D01*
X1488D01*
Y570D01*
D02*
G37*
G36*
X1128Y599D02*
X1077D01*
X1069Y598D01*
X1061Y595D01*
X1054Y590D01*
X1049Y583D01*
X1046Y576D01*
X1045Y567D01*
X1046Y559D01*
X1049Y551D01*
X1054Y545D01*
X1061Y540D01*
X1069Y537D01*
X1077Y536D01*
X1128D01*
X1136Y537D01*
X1144Y540D01*
X1150Y545D01*
X1155Y551D01*
X1159Y559D01*
X1160Y567D01*
X1159Y576D01*
X1155Y583D01*
X1150Y590D01*
X1144Y595D01*
X1136Y598D01*
X1128Y599D01*
D02*
G37*
G36*
X361Y559D02*
X310D01*
Y533D01*
X328D01*
X337Y535D01*
X345Y538D01*
X352Y543D01*
X357Y550D01*
X361Y559D01*
X361Y559D01*
D02*
G37*
G36*
X328Y601D02*
X310D01*
Y575D01*
X361D01*
X361Y576D01*
X357Y584D01*
X352Y591D01*
X345Y597D01*
X337Y600D01*
X328Y601D01*
D02*
G37*
G36*
X294D02*
X277D01*
X268Y600D01*
X260Y597D01*
X253Y591D01*
X247Y584D01*
X244Y576D01*
X244Y575D01*
X294D01*
Y601D01*
D02*
G37*
G36*
X1555Y570D02*
X1504D01*
Y544D01*
X1522D01*
X1531Y545D01*
X1539Y548D01*
X1546Y554D01*
X1551Y561D01*
X1555Y569D01*
X1555Y570D01*
D02*
G37*
G36*
X328Y499D02*
X277D01*
X269Y498D01*
X261Y495D01*
X254Y490D01*
X249Y483D01*
X246Y476D01*
X245Y467D01*
X246Y459D01*
X249Y451D01*
X254Y445D01*
X261Y440D01*
X269Y437D01*
X277Y436D01*
X328D01*
X336Y437D01*
X344Y440D01*
X350Y445D01*
X355Y451D01*
X359Y459D01*
X360Y467D01*
X359Y476D01*
X355Y483D01*
X350Y490D01*
X344Y495D01*
X336Y498D01*
X328Y499D01*
D02*
G37*
G36*
X1128Y401D02*
X1110D01*
Y375D01*
X1161D01*
X1161Y376D01*
X1157Y384D01*
X1152Y391D01*
X1145Y397D01*
X1137Y400D01*
X1128Y401D01*
D02*
G37*
G36*
X1094D02*
X1077D01*
X1068Y400D01*
X1060Y397D01*
X1053Y391D01*
X1047Y384D01*
X1044Y376D01*
X1044Y375D01*
X1094D01*
Y401D01*
D02*
G37*
G36*
X294Y559D02*
X244D01*
X244Y559D01*
X247Y550D01*
X253Y543D01*
X260Y538D01*
X268Y535D01*
X277Y533D01*
X294D01*
Y559D01*
D02*
G37*
G36*
X835Y2187D02*
X826Y2186D01*
X819Y2183D01*
X812Y2178D01*
X807Y2171D01*
X804Y2164D01*
X803Y2156D01*
Y1295D01*
X804Y1287D01*
X807Y1279D01*
X812Y1272D01*
X828Y1257D01*
X913Y1171D01*
Y1010D01*
X914Y1002D01*
X917Y994D01*
X922Y987D01*
X1013Y897D01*
X1020Y892D01*
X1027Y889D01*
X1035Y888D01*
X1197D01*
X1252Y833D01*
X1252Y830D01*
X1253Y818D01*
X1258Y806D01*
X1266Y797D01*
X1268Y795D01*
Y589D01*
X1269Y580D01*
X1272Y573D01*
X1277Y566D01*
X1388Y455D01*
X1395Y450D01*
X1402Y447D01*
X1410Y446D01*
X1522D01*
X1530Y447D01*
X1538Y450D01*
X1544Y455D01*
X1549Y462D01*
X1553Y469D01*
X1554Y478D01*
X1553Y486D01*
X1549Y493D01*
X1544Y500D01*
X1538Y505D01*
X1530Y508D01*
X1522Y509D01*
X1424D01*
X1331Y602D01*
Y795D01*
X1333Y797D01*
X1341Y806D01*
X1345Y818D01*
X1347Y830D01*
X1345Y843D01*
X1341Y854D01*
X1333Y864D01*
X1323Y872D01*
X1312Y876D01*
X1299Y878D01*
X1297Y878D01*
X1233Y942D01*
X1226Y947D01*
X1219Y950D01*
X1210Y951D01*
X1049D01*
X977Y1023D01*
Y1185D01*
X976Y1193D01*
X972Y1201D01*
X967Y1207D01*
X873Y1302D01*
X866Y1308D01*
Y2156D01*
X865Y2164D01*
X862Y2171D01*
X857Y2178D01*
X851Y2183D01*
X843Y2186D01*
X835Y2187D01*
D02*
G37*
G36*
X1128Y499D02*
X1077D01*
X1069Y498D01*
X1061Y495D01*
X1054Y490D01*
X1049Y483D01*
X1046Y476D01*
X1045Y467D01*
X1046Y459D01*
X1049Y451D01*
X1054Y445D01*
X1061Y440D01*
X1069Y437D01*
X1077Y436D01*
X1128D01*
X1136Y437D01*
X1144Y440D01*
X1150Y445D01*
X1155Y451D01*
X1159Y459D01*
X1160Y467D01*
X1159Y476D01*
X1155Y483D01*
X1150Y490D01*
X1144Y495D01*
X1136Y498D01*
X1128Y499D01*
D02*
G37*
G36*
X583Y3005D02*
Y2944D01*
X643D01*
X643Y2950D01*
X639Y2963D01*
X632Y2975D01*
X624Y2986D01*
X613Y2994D01*
X601Y3001D01*
X588Y3005D01*
X583Y3005D01*
D02*
G37*
G36*
X567D02*
X561Y3005D01*
X548Y3001D01*
X536Y2994D01*
X526Y2986D01*
X517Y2975D01*
X511Y2963D01*
X507Y2950D01*
X506Y2944D01*
X567D01*
Y3005D01*
D02*
G37*
G36*
X990Y3041D02*
X982Y3040D01*
X974Y3037D01*
X967Y3032D01*
X962Y3025D01*
X959Y3018D01*
X958Y3009D01*
Y2958D01*
X959Y2950D01*
X962Y2942D01*
X967Y2936D01*
X974Y2931D01*
X982Y2928D01*
X990Y2927D01*
X998Y2928D01*
X1006Y2931D01*
X1012Y2936D01*
X1017Y2942D01*
X1020Y2950D01*
X1022Y2958D01*
Y3009D01*
X1020Y3018D01*
X1017Y3025D01*
X1012Y3032D01*
X1006Y3037D01*
X998Y3040D01*
X990Y3041D01*
D02*
G37*
G36*
X882Y3043D02*
X856D01*
Y2992D01*
X882D01*
Y3043D01*
D02*
G37*
G36*
X513Y3015D02*
X453D01*
Y2955D01*
X458Y2955D01*
X471Y2959D01*
X483Y2966D01*
X494Y2974D01*
X503Y2985D01*
X509Y2997D01*
X513Y3010D01*
X513Y3015D01*
D02*
G37*
G36*
X437D02*
X376D01*
X377Y3010D01*
X381Y2997D01*
X387Y2985D01*
X396Y2974D01*
X406Y2966D01*
X418Y2959D01*
X431Y2955D01*
X437Y2955D01*
Y3015D01*
D02*
G37*
G36*
X643Y2929D02*
X583D01*
Y2868D01*
X588Y2869D01*
X601Y2873D01*
X613Y2879D01*
X624Y2888D01*
X632Y2898D01*
X639Y2910D01*
X643Y2923D01*
X643Y2929D01*
D02*
G37*
G36*
X567D02*
X506D01*
X507Y2923D01*
X511Y2910D01*
X517Y2898D01*
X526Y2888D01*
X536Y2879D01*
X548Y2873D01*
X561Y2869D01*
X567Y2868D01*
Y2929D01*
D02*
G37*
G36*
X1281Y2728D02*
X1273Y2727D01*
X1266Y2724D01*
X1259Y2719D01*
X1254Y2712D01*
X1251Y2705D01*
X1250Y2696D01*
X1251Y2688D01*
X1254Y2681D01*
X1259Y2674D01*
X1266Y2669D01*
X1273Y2666D01*
X1281Y2665D01*
X1290Y2666D01*
X1297Y2669D01*
X1304Y2674D01*
X1309Y2681D01*
X1312Y2688D01*
X1313Y2696D01*
X1312Y2705D01*
X1309Y2712D01*
X1304Y2719D01*
X1297Y2724D01*
X1290Y2727D01*
X1281Y2728D01*
D02*
G37*
G36*
X923Y2976D02*
X898D01*
Y2925D01*
X923D01*
Y2976D01*
D02*
G37*
G36*
X882D02*
X856D01*
Y2925D01*
X882D01*
Y2976D01*
D02*
G37*
G36*
X315Y3004D02*
X302Y3003D01*
X289Y2999D01*
X278Y2993D01*
X267Y2984D01*
X259Y2974D01*
X253Y2962D01*
X249Y2950D01*
X248Y2937D01*
X249Y2923D01*
X253Y2911D01*
X259Y2899D01*
X267Y2889D01*
X278Y2881D01*
X289Y2874D01*
X302Y2871D01*
X315Y2869D01*
X328Y2871D01*
X341Y2874D01*
X352Y2881D01*
X363Y2889D01*
X371Y2899D01*
X377Y2911D01*
X381Y2923D01*
X382Y2937D01*
X381Y2950D01*
X377Y2962D01*
X371Y2974D01*
X363Y2984D01*
X352Y2993D01*
X341Y2999D01*
X328Y3003D01*
X315Y3004D01*
D02*
G37*
G36*
X923Y3043D02*
X898D01*
Y2992D01*
X923D01*
Y3043D01*
D02*
G37*
G36*
X923Y3197D02*
X898D01*
Y3145D01*
X923D01*
Y3197D01*
D02*
G37*
G36*
X882D02*
X856D01*
Y3145D01*
X882D01*
Y3197D01*
D02*
G37*
G36*
X990Y3195D02*
X982Y3194D01*
X974Y3191D01*
X967Y3185D01*
X962Y3179D01*
X959Y3171D01*
X958Y3163D01*
Y3112D01*
X959Y3104D01*
X962Y3096D01*
X967Y3089D01*
X974Y3084D01*
X982Y3081D01*
X990Y3080D01*
X998Y3081D01*
X1006Y3084D01*
X1012Y3089D01*
X1017Y3096D01*
X1020Y3104D01*
X1022Y3112D01*
Y3163D01*
X1020Y3171D01*
X1017Y3179D01*
X1012Y3185D01*
X1006Y3191D01*
X998Y3194D01*
X990Y3195D01*
D02*
G37*
G36*
X937Y3311D02*
X925Y3309D01*
X913Y3305D01*
X903Y3297D01*
X896Y3287D01*
X891Y3276D01*
X889Y3263D01*
X891Y3251D01*
X896Y3240D01*
X903Y3230D01*
X913Y3222D01*
X925Y3217D01*
X937Y3216D01*
X949Y3217D01*
X961Y3222D01*
X971Y3230D01*
X978Y3240D01*
X983Y3251D01*
X985Y3263D01*
X983Y3276D01*
X978Y3287D01*
X971Y3297D01*
X961Y3305D01*
X949Y3309D01*
X937Y3311D01*
D02*
G37*
G36*
X575Y3309D02*
X559Y3307D01*
X544Y3303D01*
X530Y3295D01*
X517Y3285D01*
X507Y3273D01*
X500Y3259D01*
X495Y3244D01*
X494Y3228D01*
X495Y3212D01*
X500Y3197D01*
X507Y3183D01*
X517Y3171D01*
X530Y3161D01*
X544Y3153D01*
X559Y3148D01*
X575Y3147D01*
X591Y3148D01*
X606Y3153D01*
X620Y3161D01*
X632Y3171D01*
X642Y3183D01*
X650Y3197D01*
X654Y3212D01*
X656Y3228D01*
X654Y3244D01*
X650Y3259D01*
X642Y3273D01*
X632Y3285D01*
X620Y3295D01*
X606Y3303D01*
X591Y3307D01*
X575Y3309D01*
D02*
G37*
G36*
X315D02*
X299Y3307D01*
X284Y3303D01*
X270Y3295D01*
X258Y3285D01*
X248Y3273D01*
X240Y3259D01*
X235Y3244D01*
X234Y3228D01*
X235Y3212D01*
X240Y3197D01*
X248Y3183D01*
X258Y3171D01*
X270Y3161D01*
X284Y3153D01*
X299Y3148D01*
X315Y3147D01*
X331Y3148D01*
X346Y3153D01*
X360Y3161D01*
X372Y3171D01*
X382Y3183D01*
X390Y3197D01*
X395Y3212D01*
X396Y3228D01*
X395Y3244D01*
X390Y3259D01*
X382Y3273D01*
X372Y3285D01*
X360Y3295D01*
X346Y3303D01*
X331Y3307D01*
X315Y3309D01*
D02*
G37*
G36*
X1139Y3106D02*
X1131Y3105D01*
X1123Y3102D01*
X1116Y3097D01*
X1111Y3090D01*
X1108Y3083D01*
X1107Y3074D01*
X1108Y3066D01*
X1111Y3059D01*
X1116Y3052D01*
X1123Y3047D01*
X1131Y3044D01*
X1139Y3043D01*
X1147Y3044D01*
X1155Y3047D01*
X1161Y3052D01*
X1166Y3059D01*
X1170Y3066D01*
X1171Y3074D01*
X1170Y3083D01*
X1166Y3090D01*
X1161Y3097D01*
X1155Y3102D01*
X1147Y3105D01*
X1139Y3106D01*
D02*
G37*
G36*
X453Y3092D02*
Y3031D01*
X513D01*
X513Y3037D01*
X509Y3050D01*
X503Y3062D01*
X494Y3072D01*
X483Y3081D01*
X471Y3087D01*
X458Y3091D01*
X453Y3092D01*
D02*
G37*
G36*
X437D02*
X431Y3091D01*
X418Y3087D01*
X406Y3081D01*
X396Y3072D01*
X387Y3062D01*
X381Y3050D01*
X377Y3037D01*
X376Y3031D01*
X437D01*
Y3092D01*
D02*
G37*
G36*
X923Y3130D02*
X898D01*
Y3078D01*
X923D01*
Y3130D01*
D02*
G37*
G36*
X882D02*
X856D01*
Y3078D01*
X882D01*
Y3130D01*
D02*
G37*
G36*
X1316Y3106D02*
X1308Y3105D01*
X1300Y3102D01*
X1294Y3097D01*
X1289Y3090D01*
X1285Y3083D01*
X1284Y3074D01*
X1285Y3066D01*
X1289Y3059D01*
X1294Y3052D01*
X1300Y3047D01*
X1308Y3044D01*
X1316Y3043D01*
X1324Y3044D01*
X1332Y3047D01*
X1339Y3052D01*
X1344Y3059D01*
X1347Y3066D01*
X1348Y3074D01*
X1347Y3083D01*
X1344Y3090D01*
X1339Y3097D01*
X1332Y3102D01*
X1324Y3105D01*
X1316Y3106D01*
D02*
G37*
G36*
X1205Y2728D02*
X1197Y2727D01*
X1189Y2724D01*
X1182Y2719D01*
X1177Y2712D01*
X1174Y2705D01*
X1173Y2696D01*
X1174Y2688D01*
X1177Y2681D01*
X1182Y2674D01*
X1189Y2669D01*
X1197Y2666D01*
X1205Y2665D01*
X1213Y2666D01*
X1221Y2669D01*
X1227Y2674D01*
X1232Y2681D01*
X1235Y2688D01*
X1236Y2696D01*
X1235Y2705D01*
X1232Y2712D01*
X1227Y2719D01*
X1221Y2724D01*
X1213Y2727D01*
X1205Y2728D01*
D02*
G37*
G36*
X392Y2107D02*
X384Y2106D01*
X376Y2103D01*
X369Y2098D01*
X364Y2091D01*
X361Y2083D01*
X360Y2075D01*
X361Y2067D01*
X364Y2059D01*
X369Y2053D01*
X376Y2048D01*
X384Y2045D01*
X392Y2043D01*
X400Y2045D01*
X408Y2048D01*
X414Y2053D01*
X419Y2059D01*
X422Y2067D01*
X424Y2075D01*
X422Y2083D01*
X419Y2091D01*
X414Y2098D01*
X408Y2103D01*
X400Y2106D01*
X392Y2107D01*
D02*
G37*
G36*
X543Y2109D02*
X535Y2108D01*
X526Y2104D01*
X519Y2099D01*
X514Y2092D01*
X511Y2084D01*
X510Y2075D01*
X511Y2066D01*
X514Y2058D01*
X519Y2051D01*
X526Y2046D01*
X535Y2043D01*
X543Y2041D01*
X552Y2043D01*
X560Y2046D01*
X567Y2051D01*
X573Y2058D01*
X576Y2066D01*
X577Y2075D01*
X576Y2084D01*
X573Y2092D01*
X567Y2099D01*
X560Y2104D01*
X552Y2108D01*
X543Y2109D01*
D02*
G37*
G36*
X712Y2161D02*
X702Y2160D01*
X693Y2156D01*
X686Y2150D01*
X680Y2142D01*
X676Y2133D01*
X674Y2123D01*
X676Y2113D01*
X680Y2104D01*
X686Y2097D01*
X693Y2091D01*
X702Y2087D01*
X712Y2086D01*
X722Y2087D01*
X731Y2091D01*
X739Y2097D01*
X745Y2104D01*
X749Y2113D01*
X750Y2123D01*
X749Y2133D01*
X745Y2142D01*
X739Y2150D01*
X731Y2156D01*
X722Y2160D01*
X712Y2161D01*
D02*
G37*
G36*
Y2261D02*
X702Y2260D01*
X693Y2256D01*
X686Y2250D01*
X680Y2242D01*
X676Y2233D01*
X674Y2223D01*
X676Y2213D01*
X680Y2204D01*
X686Y2197D01*
X693Y2191D01*
X702Y2187D01*
X712Y2186D01*
X722Y2187D01*
X731Y2191D01*
X739Y2197D01*
X745Y2204D01*
X749Y2213D01*
X750Y2223D01*
X749Y2233D01*
X745Y2242D01*
X739Y2250D01*
X731Y2256D01*
X722Y2260D01*
X712Y2261D01*
D02*
G37*
G36*
X1012Y2161D02*
X1002Y2160D01*
X993Y2156D01*
X986Y2150D01*
X980Y2142D01*
X976Y2133D01*
X974Y2123D01*
X976Y2113D01*
X980Y2104D01*
X986Y2097D01*
X993Y2091D01*
X1002Y2087D01*
X1012Y2086D01*
X1022Y2087D01*
X1031Y2091D01*
X1039Y2097D01*
X1045Y2104D01*
X1049Y2113D01*
X1050Y2123D01*
X1049Y2133D01*
X1045Y2142D01*
X1039Y2150D01*
X1031Y2156D01*
X1022Y2160D01*
X1012Y2161D01*
D02*
G37*
G36*
Y2061D02*
X1002Y2060D01*
X993Y2056D01*
X986Y2050D01*
X980Y2042D01*
X976Y2033D01*
X974Y2023D01*
X976Y2013D01*
X980Y2004D01*
X986Y1997D01*
X993Y1991D01*
X1002Y1987D01*
X1012Y1986D01*
X1022Y1987D01*
X1031Y1991D01*
X1039Y1997D01*
X1045Y2004D01*
X1049Y2013D01*
X1050Y2023D01*
X1049Y2033D01*
X1045Y2042D01*
X1039Y2050D01*
X1031Y2056D01*
X1022Y2060D01*
X1012Y2061D01*
D02*
G37*
G36*
X1579Y1971D02*
X1566Y1970D01*
X1555Y1965D01*
X1545Y1958D01*
X1537Y1948D01*
X1533Y1936D01*
X1531Y1924D01*
X1533Y1911D01*
X1537Y1900D01*
X1545Y1890D01*
X1555Y1883D01*
X1566Y1878D01*
X1579Y1876D01*
X1591Y1878D01*
X1603Y1883D01*
X1612Y1890D01*
X1620Y1900D01*
X1625Y1911D01*
X1626Y1924D01*
X1625Y1936D01*
X1620Y1948D01*
X1612Y1958D01*
X1603Y1965D01*
X1591Y1970D01*
X1579Y1971D01*
D02*
G37*
G36*
X712Y1861D02*
X702Y1860D01*
X693Y1856D01*
X686Y1850D01*
X680Y1842D01*
X676Y1833D01*
X674Y1823D01*
X676Y1813D01*
X680Y1804D01*
X686Y1797D01*
X693Y1791D01*
X702Y1787D01*
X712Y1786D01*
X722Y1787D01*
X731Y1791D01*
X739Y1797D01*
X745Y1804D01*
X749Y1813D01*
X750Y1823D01*
X749Y1833D01*
X745Y1842D01*
X739Y1850D01*
X731Y1856D01*
X722Y1860D01*
X712Y1861D01*
D02*
G37*
G36*
Y1961D02*
X702Y1960D01*
X693Y1956D01*
X686Y1950D01*
X680Y1942D01*
X676Y1933D01*
X674Y1923D01*
X676Y1913D01*
X680Y1904D01*
X686Y1897D01*
X693Y1891D01*
X702Y1887D01*
X712Y1886D01*
X722Y1887D01*
X731Y1891D01*
X739Y1897D01*
X745Y1904D01*
X749Y1913D01*
X750Y1923D01*
X749Y1933D01*
X745Y1942D01*
X739Y1950D01*
X731Y1956D01*
X722Y1960D01*
X712Y1961D01*
D02*
G37*
G36*
Y2061D02*
X702Y2060D01*
X693Y2056D01*
X692Y2055D01*
X659D01*
X651Y2054D01*
X643Y2051D01*
X637Y2046D01*
X600Y2009D01*
X595Y2002D01*
X591Y1994D01*
X590Y1986D01*
Y1172D01*
X591Y1163D01*
X595Y1156D01*
X600Y1149D01*
X929Y820D01*
X935Y815D01*
X943Y812D01*
X951Y811D01*
X1147D01*
X1177Y781D01*
Y449D01*
X1178Y440D01*
X1181Y433D01*
X1186Y426D01*
X1252Y360D01*
X1252Y358D01*
X1253Y346D01*
X1258Y334D01*
X1266Y324D01*
X1276Y317D01*
X1287Y312D01*
X1299Y310D01*
X1312Y312D01*
X1323Y317D01*
X1333Y324D01*
X1341Y334D01*
X1345Y346D01*
X1347Y358D01*
X1345Y370D01*
X1341Y382D01*
X1333Y392D01*
X1323Y399D01*
X1312Y404D01*
X1299Y406D01*
X1297Y405D01*
X1240Y462D01*
Y794D01*
X1239Y803D01*
X1236Y810D01*
X1231Y817D01*
X1183Y865D01*
X1176Y870D01*
X1169Y873D01*
X1161Y874D01*
X964D01*
X654Y1185D01*
Y1973D01*
X672Y1991D01*
X692D01*
X693Y1991D01*
X702Y1987D01*
X712Y1986D01*
X722Y1987D01*
X731Y1991D01*
X739Y1997D01*
X745Y2004D01*
X749Y2013D01*
X750Y2023D01*
X749Y2033D01*
X745Y2042D01*
X739Y2050D01*
X731Y2056D01*
X722Y2060D01*
X712Y2061D01*
D02*
G37*
G36*
X1246Y2178D02*
X1238Y2176D01*
X1232Y2172D01*
X1227Y2165D01*
X1226Y2162D01*
X1024Y1959D01*
X1022Y1960D01*
X1012Y1961D01*
X1002Y1960D01*
X993Y1956D01*
X986Y1950D01*
X980Y1942D01*
X976Y1933D01*
X974Y1923D01*
X976Y1913D01*
X977Y1912D01*
X944Y1879D01*
X897D01*
X891Y1877D01*
X885Y1874D01*
X882Y1868D01*
X880Y1862D01*
Y1674D01*
X880Y1673D01*
X878Y1665D01*
X880Y1657D01*
X880Y1656D01*
Y1622D01*
X882Y1615D01*
X885Y1610D01*
X931Y1564D01*
X932Y1561D01*
X936Y1554D01*
X943Y1550D01*
X951Y1548D01*
X959Y1550D01*
X965Y1554D01*
X970Y1561D01*
X971Y1569D01*
X970Y1576D01*
X965Y1583D01*
X959Y1587D01*
X955Y1588D01*
X915Y1629D01*
Y1653D01*
X918Y1657D01*
X919Y1665D01*
X918Y1673D01*
X915Y1677D01*
Y1716D01*
X920Y1719D01*
X920Y1719D01*
Y1689D01*
X921Y1682D01*
X925Y1677D01*
X982Y1619D01*
X983Y1616D01*
X987Y1610D01*
X994Y1605D01*
X1002Y1604D01*
X1010Y1605D01*
X1016Y1610D01*
X1021Y1616D01*
X1022Y1624D01*
X1021Y1632D01*
X1016Y1638D01*
X1010Y1643D01*
X1007Y1644D01*
X954Y1696D01*
Y1726D01*
X955Y1727D01*
X956Y1735D01*
X955Y1742D01*
X1001Y1788D01*
X1002Y1787D01*
X1012Y1786D01*
X1022Y1787D01*
X1031Y1791D01*
X1039Y1797D01*
X1045Y1804D01*
X1050Y1803D01*
Y1785D01*
X1051Y1779D01*
X1055Y1773D01*
X1102Y1726D01*
X1103Y1722D01*
X1108Y1716D01*
X1114Y1711D01*
X1122Y1710D01*
X1130Y1711D01*
X1137Y1716D01*
X1141Y1722D01*
X1143Y1730D01*
X1141Y1738D01*
X1137Y1745D01*
X1130Y1749D01*
X1127Y1750D01*
X1084Y1793D01*
Y1869D01*
X1083Y1875D01*
X1079Y1881D01*
X1048Y1912D01*
X1049Y1913D01*
X1050Y1923D01*
X1049Y1933D01*
X1048Y1935D01*
X1251Y2138D01*
X1254Y2138D01*
X1261Y2143D01*
X1265Y2149D01*
X1267Y2157D01*
X1265Y2165D01*
X1261Y2172D01*
X1254Y2176D01*
X1246Y2178D01*
D02*
G37*
G36*
X1012Y2261D02*
X1002Y2260D01*
X993Y2256D01*
X986Y2250D01*
X980Y2242D01*
X976Y2233D01*
X974Y2223D01*
X976Y2213D01*
X980Y2204D01*
X986Y2197D01*
X993Y2191D01*
X1002Y2187D01*
X1012Y2186D01*
X1022Y2187D01*
X1031Y2191D01*
X1039Y2197D01*
X1045Y2204D01*
X1049Y2213D01*
X1050Y2223D01*
X1049Y2233D01*
X1045Y2242D01*
X1039Y2250D01*
X1031Y2256D01*
X1022Y2260D01*
X1012Y2261D01*
D02*
G37*
G36*
X1579Y2608D02*
X1566Y2606D01*
X1555Y2601D01*
X1545Y2594D01*
X1537Y2584D01*
X1533Y2572D01*
X1531Y2560D01*
X1533Y2548D01*
X1537Y2536D01*
X1545Y2526D01*
X1555Y2519D01*
X1566Y2514D01*
X1579Y2512D01*
X1591Y2514D01*
X1603Y2519D01*
X1612Y2526D01*
X1620Y2536D01*
X1625Y2548D01*
X1626Y2560D01*
X1625Y2572D01*
X1620Y2584D01*
X1612Y2594D01*
X1603Y2601D01*
X1591Y2606D01*
X1579Y2608D01*
D02*
G37*
G36*
X1209Y2563D02*
X1200Y2562D01*
X1193Y2559D01*
X1186Y2554D01*
X1181Y2547D01*
X1178Y2539D01*
X1177Y2531D01*
X1178Y2523D01*
X1181Y2515D01*
X1186Y2509D01*
X1193Y2504D01*
X1200Y2500D01*
X1209Y2499D01*
X1217Y2500D01*
X1225Y2504D01*
X1231Y2509D01*
X1236Y2515D01*
X1239Y2523D01*
X1240Y2531D01*
X1239Y2539D01*
X1236Y2547D01*
X1231Y2554D01*
X1225Y2559D01*
X1217Y2562D01*
X1209Y2563D01*
D02*
G37*
G36*
X346Y2740D02*
X334Y2739D01*
X323Y2734D01*
X313Y2726D01*
X305Y2716D01*
X300Y2705D01*
X299Y2693D01*
X300Y2680D01*
X305Y2669D01*
X313Y2659D01*
X323Y2651D01*
X334Y2646D01*
X346Y2645D01*
X359Y2646D01*
X370Y2651D01*
X380Y2659D01*
X388Y2669D01*
X392Y2680D01*
X394Y2693D01*
X392Y2705D01*
X388Y2716D01*
X380Y2726D01*
X370Y2734D01*
X359Y2739D01*
X346Y2740D01*
D02*
G37*
G36*
X697Y2724D02*
X689Y2723D01*
X681Y2720D01*
X674Y2715D01*
X669Y2708D01*
X666Y2701D01*
X665Y2693D01*
X666Y2684D01*
X669Y2677D01*
X674Y2670D01*
X681Y2665D01*
X689Y2662D01*
X697Y2661D01*
X705Y2662D01*
X713Y2665D01*
X719Y2670D01*
X724Y2677D01*
X728Y2684D01*
X729Y2693D01*
X728Y2701D01*
X724Y2708D01*
X719Y2715D01*
X713Y2720D01*
X705Y2723D01*
X697Y2724D01*
D02*
G37*
G36*
X546Y2740D02*
X534Y2739D01*
X523Y2734D01*
X513Y2726D01*
X505Y2716D01*
X500Y2705D01*
X499Y2693D01*
X500Y2680D01*
X505Y2669D01*
X513Y2659D01*
X523Y2651D01*
X534Y2646D01*
X546Y2645D01*
X559Y2646D01*
X570Y2651D01*
X580Y2659D01*
X588Y2669D01*
X592Y2680D01*
X594Y2693D01*
X592Y2705D01*
X588Y2716D01*
X580Y2726D01*
X570Y2734D01*
X559Y2739D01*
X546Y2740D01*
D02*
G37*
G36*
X394Y2562D02*
X385Y2561D01*
X378Y2558D01*
X371Y2553D01*
X366Y2546D01*
X363Y2538D01*
X362Y2530D01*
X363Y2522D01*
X366Y2514D01*
X371Y2508D01*
X378Y2503D01*
X385Y2499D01*
X394Y2498D01*
X402Y2499D01*
X410Y2503D01*
X416Y2508D01*
X421Y2514D01*
X424Y2522D01*
X425Y2530D01*
X424Y2538D01*
X421Y2546D01*
X416Y2553D01*
X410Y2558D01*
X402Y2561D01*
X394Y2562D01*
D02*
G37*
G36*
X394Y2299D02*
X385Y2298D01*
X378Y2295D01*
X371Y2290D01*
X366Y2283D01*
X363Y2276D01*
X362Y2267D01*
X363Y2259D01*
X366Y2251D01*
X371Y2245D01*
X378Y2240D01*
X385Y2237D01*
X394Y2236D01*
X402Y2237D01*
X410Y2240D01*
X416Y2245D01*
X421Y2251D01*
X424Y2259D01*
X425Y2267D01*
X424Y2276D01*
X421Y2283D01*
X416Y2290D01*
X410Y2295D01*
X402Y2298D01*
X394Y2299D01*
D02*
G37*
G36*
X750Y2361D02*
X675D01*
Y2286D01*
X750D01*
Y2291D01*
X766D01*
X781Y2276D01*
X788Y2271D01*
X796Y2268D01*
X804Y2266D01*
X812Y2268D01*
X820Y2271D01*
X826Y2276D01*
X831Y2282D01*
X835Y2290D01*
X836Y2298D01*
X835Y2306D01*
X831Y2314D01*
X826Y2321D01*
X801Y2346D01*
X795Y2351D01*
X787Y2354D01*
X779Y2355D01*
X750D01*
Y2361D01*
D02*
G37*
G36*
X1029Y2451D02*
X1022Y2450D01*
X1017Y2446D01*
X765Y2194D01*
X761Y2188D01*
X760Y2182D01*
Y1795D01*
X724Y1759D01*
X722Y1760D01*
X712Y1761D01*
X702Y1760D01*
X693Y1756D01*
X686Y1750D01*
X680Y1742D01*
X676Y1733D01*
X674Y1723D01*
X676Y1713D01*
X680Y1704D01*
X686Y1697D01*
X693Y1691D01*
X702Y1687D01*
X712Y1686D01*
X722Y1687D01*
X731Y1691D01*
X739Y1697D01*
X745Y1704D01*
X749Y1713D01*
X750Y1723D01*
X749Y1733D01*
X748Y1735D01*
X789Y1776D01*
X793Y1781D01*
X794Y1788D01*
Y2175D01*
X1030Y2411D01*
X1031Y2409D01*
X1038Y2408D01*
X1203D01*
X1206Y2406D01*
X1214Y2405D01*
X1221Y2406D01*
X1228Y2411D01*
X1232Y2417D01*
X1234Y2425D01*
X1232Y2433D01*
X1228Y2440D01*
X1221Y2444D01*
X1214Y2446D01*
X1206Y2444D01*
X1203Y2442D01*
X1045D01*
X1041Y2446D01*
X1035Y2450D01*
X1029Y2451D01*
D02*
G37*
G36*
X709Y2543D02*
X700Y2542D01*
X693Y2539D01*
X686Y2534D01*
X681Y2527D01*
X678Y2520D01*
X677Y2511D01*
X678Y2503D01*
X681Y2496D01*
X686Y2489D01*
X693Y2484D01*
X700Y2481D01*
X709Y2480D01*
X717Y2481D01*
X725Y2484D01*
X731Y2489D01*
X736Y2496D01*
X739Y2503D01*
X740Y2511D01*
X739Y2520D01*
X736Y2527D01*
X731Y2534D01*
X725Y2539D01*
X717Y2542D01*
X709Y2543D01*
D02*
G37*
G36*
X543Y2301D02*
X535Y2300D01*
X526Y2297D01*
X519Y2291D01*
X514Y2284D01*
X511Y2276D01*
X510Y2267D01*
X511Y2259D01*
X514Y2250D01*
X519Y2243D01*
X526Y2238D01*
X535Y2235D01*
X543Y2234D01*
X552Y2235D01*
X560Y2238D01*
X567Y2243D01*
X573Y2250D01*
X576Y2259D01*
X577Y2267D01*
X576Y2276D01*
X573Y2284D01*
X567Y2291D01*
X560Y2297D01*
X552Y2300D01*
X543Y2301D01*
D02*
G37*
%LPD*%
G36*
X1286Y2020D02*
X1286Y2020D01*
X1286Y2019D01*
X1286Y1613D01*
X1286Y1612D01*
X1286Y1612D01*
X1286Y1612D01*
X1275D01*
X1275Y1612D01*
X1268D01*
X1268Y1612D01*
X1245D01*
X1245Y1612D01*
X1238D01*
X1238Y1612D01*
X1216D01*
X1216Y1612D01*
X1209D01*
X1209Y1612D01*
X1198D01*
X1197Y1612D01*
X1197Y1613D01*
Y2019D01*
X1197Y2020D01*
X1198Y2020D01*
X1286D01*
X1286Y2020D01*
D02*
G37*
G36*
X1050Y1861D02*
Y1843D01*
X1045Y1842D01*
X1039Y1850D01*
X1031Y1856D01*
X1022Y1860D01*
X1012Y1861D01*
X1002Y1860D01*
X993Y1856D01*
X986Y1850D01*
X980Y1842D01*
X976Y1833D01*
X974Y1823D01*
X976Y1813D01*
X977Y1812D01*
X927Y1762D01*
X925Y1761D01*
X921Y1755D01*
X921Y1752D01*
X920Y1751D01*
X915Y1753D01*
Y1845D01*
X951D01*
X957Y1846D01*
X963Y1850D01*
X1001Y1888D01*
X1002Y1887D01*
X1012Y1886D01*
X1022Y1887D01*
X1024Y1888D01*
X1050Y1861D01*
D02*
G37*
G36*
X3528Y3504D02*
X3516Y3501D01*
X3504Y3494D01*
X3493Y3485D01*
X3484Y3475D01*
X3478Y3462D01*
X3473Y3449D01*
X3472Y3435D01*
X3473Y3421D01*
X3478Y3408D01*
X3484Y3395D01*
X3493Y3385D01*
X3504Y3376D01*
X3516Y3369D01*
X3529Y3365D01*
X3543Y3364D01*
X3557Y3365D01*
X3571Y3369D01*
X3583Y3376D01*
X3594Y3385D01*
X3603Y3395D01*
X3609Y3408D01*
X3613Y3421D01*
X3618Y3421D01*
Y33D01*
X3615Y29D01*
X1986Y29D01*
X1984Y34D01*
X1987Y36D01*
X1996Y47D01*
X2003Y59D01*
X2007Y73D01*
X2008Y87D01*
X2007Y101D01*
X2003Y114D01*
X1996Y126D01*
X1987Y137D01*
X1977Y146D01*
X1964Y152D01*
X1951Y156D01*
X1937Y158D01*
X1923Y156D01*
X1910Y152D01*
X1897Y146D01*
X1887Y137D01*
X1878Y126D01*
X1871Y114D01*
X1867Y101D01*
X1862Y101D01*
X1862Y3506D01*
X1866Y3509D01*
X3527D01*
X3528Y3504D01*
D02*
G37*
%LPC*%
G36*
X3372Y809D02*
X3321D01*
X3313Y808D01*
X3305Y805D01*
X3299Y800D01*
X3294Y793D01*
X3290Y786D01*
X3289Y778D01*
X3290Y769D01*
X3294Y762D01*
X3299Y755D01*
X3305Y750D01*
X3313Y747D01*
X3321Y746D01*
X3372D01*
X3380Y747D01*
X3388Y750D01*
X3395Y755D01*
X3400Y762D01*
X3403Y769D01*
X3404Y778D01*
X3403Y786D01*
X3400Y793D01*
X3395Y800D01*
X3388Y805D01*
X3380Y808D01*
X3372Y809D01*
D02*
G37*
G36*
X2978Y799D02*
X2927D01*
X2919Y798D01*
X2911Y795D01*
X2905Y790D01*
X2900Y783D01*
X2896Y776D01*
X2895Y767D01*
X2896Y759D01*
X2900Y751D01*
X2905Y745D01*
X2911Y740D01*
X2919Y737D01*
X2927Y736D01*
X2978D01*
X2987Y737D01*
X2994Y740D01*
X3001Y745D01*
X3006Y751D01*
X3009Y759D01*
X3010Y767D01*
X3009Y776D01*
X3006Y783D01*
X3001Y790D01*
X2994Y795D01*
X2987Y798D01*
X2978Y799D01*
D02*
G37*
G36*
X2178D02*
X2127D01*
X2119Y798D01*
X2111Y795D01*
X2105Y790D01*
X2100Y783D01*
X2096Y776D01*
X2095Y767D01*
X2096Y759D01*
X2100Y751D01*
X2105Y745D01*
X2111Y740D01*
X2119Y737D01*
X2127Y736D01*
X2178D01*
X2187Y737D01*
X2194Y740D01*
X2201Y745D01*
X2206Y751D01*
X2209Y759D01*
X2210Y767D01*
X2209Y776D01*
X2206Y783D01*
X2201Y790D01*
X2194Y795D01*
X2187Y798D01*
X2178Y799D01*
D02*
G37*
G36*
X2315Y1295D02*
X2307Y1294D01*
X2299Y1291D01*
X2292Y1286D01*
X2287Y1279D01*
X2284Y1272D01*
X2283Y1263D01*
X2284Y1255D01*
X2287Y1248D01*
X2292Y1241D01*
X2299Y1236D01*
X2307Y1233D01*
X2315Y1232D01*
X2323Y1233D01*
X2331Y1236D01*
X2337Y1241D01*
X2342Y1248D01*
X2346Y1255D01*
X2347Y1263D01*
X2346Y1272D01*
X2342Y1279D01*
X2337Y1286D01*
X2331Y1291D01*
X2323Y1294D01*
X2315Y1295D01*
D02*
G37*
G36*
X2701Y1126D02*
X2693Y1125D01*
X2685Y1122D01*
X2678Y1117D01*
X2673Y1110D01*
X2670Y1102D01*
X2669Y1094D01*
X2670Y1086D01*
X2673Y1078D01*
X2678Y1072D01*
X2685Y1067D01*
X2693Y1063D01*
X2701Y1062D01*
X2709Y1063D01*
X2717Y1067D01*
X2723Y1072D01*
X2728Y1078D01*
X2731Y1086D01*
X2733Y1094D01*
X2731Y1102D01*
X2728Y1110D01*
X2723Y1117D01*
X2717Y1122D01*
X2709Y1125D01*
X2701Y1126D01*
D02*
G37*
G36*
X2260Y1150D02*
X2248Y1148D01*
X2236Y1143D01*
X2226Y1136D01*
X2219Y1126D01*
X2214Y1114D01*
X2212Y1102D01*
X2214Y1090D01*
X2219Y1078D01*
X2226Y1068D01*
X2236Y1061D01*
X2248Y1056D01*
X2260Y1054D01*
X2272Y1056D01*
X2284Y1061D01*
X2294Y1068D01*
X2301Y1078D01*
X2306Y1090D01*
X2307Y1102D01*
X2306Y1114D01*
X2301Y1126D01*
X2294Y1136D01*
X2284Y1143D01*
X2272Y1148D01*
X2260Y1150D01*
D02*
G37*
G36*
X2178Y699D02*
X2127D01*
X2119Y698D01*
X2111Y695D01*
X2105Y690D01*
X2100Y683D01*
X2096Y676D01*
X2095Y667D01*
X2096Y659D01*
X2100Y651D01*
X2105Y645D01*
X2111Y640D01*
X2119Y637D01*
X2127Y636D01*
X2178D01*
X2187Y637D01*
X2194Y640D01*
X2201Y645D01*
X2206Y651D01*
X2209Y659D01*
X2210Y667D01*
X2209Y676D01*
X2206Y683D01*
X2201Y690D01*
X2194Y695D01*
X2187Y698D01*
X2178Y699D01*
D02*
G37*
G36*
X2627Y814D02*
X2619Y812D01*
X2612Y808D01*
X2608Y801D01*
X2606Y793D01*
X2608Y785D01*
X2610Y782D01*
Y630D01*
X2610Y630D01*
X2605Y623D01*
X2604Y615D01*
X2605Y607D01*
X2610Y601D01*
X2616Y596D01*
X2624Y595D01*
X2632Y596D01*
X2639Y601D01*
X2643Y607D01*
X2645Y615D01*
X2644Y618D01*
Y782D01*
X2646Y785D01*
X2647Y793D01*
X2646Y801D01*
X2641Y808D01*
X2635Y812D01*
X2627Y814D01*
D02*
G37*
G36*
X3372Y611D02*
X3355D01*
Y585D01*
X3405D01*
X3405Y586D01*
X3402Y595D01*
X3396Y602D01*
X3389Y607D01*
X3381Y610D01*
X3372Y611D01*
D02*
G37*
G36*
X2525Y885D02*
X2517Y883D01*
X2510Y879D01*
X2506Y872D01*
X2504Y865D01*
X2506Y858D01*
X2505Y857D01*
X2504Y851D01*
Y827D01*
X2505Y820D01*
X2508Y817D01*
Y803D01*
X2505Y802D01*
X2498Y798D01*
X2494Y791D01*
X2492Y784D01*
X2494Y776D01*
X2498Y769D01*
X2505Y765D01*
X2513Y763D01*
X2521Y765D01*
X2527Y769D01*
X2528Y770D01*
X2533Y769D01*
Y743D01*
X2531Y742D01*
X2524Y738D01*
X2520Y731D01*
X2518Y723D01*
X2520Y716D01*
X2524Y709D01*
X2531Y705D01*
X2538Y703D01*
X2546Y705D01*
X2553Y709D01*
X2557Y716D01*
X2558Y721D01*
X2562Y724D01*
X2566Y729D01*
X2567Y736D01*
Y775D01*
X2567Y775D01*
X2569Y782D01*
Y806D01*
X2567Y813D01*
X2567Y813D01*
Y828D01*
X2569Y831D01*
X2571Y839D01*
X2569Y847D01*
X2565Y853D01*
X2558Y858D01*
X2550Y859D01*
X2548Y859D01*
X2545Y863D01*
X2545Y865D01*
X2544Y872D01*
X2539Y879D01*
X2532Y883D01*
X2525Y885D01*
D02*
G37*
G36*
X3372Y709D02*
X3321D01*
X3313Y708D01*
X3305Y705D01*
X3299Y700D01*
X3294Y693D01*
X3290Y686D01*
X3289Y678D01*
X3290Y669D01*
X3294Y662D01*
X3299Y655D01*
X3305Y650D01*
X3313Y647D01*
X3321Y646D01*
X3372D01*
X3380Y647D01*
X3388Y650D01*
X3395Y655D01*
X3400Y662D01*
X3403Y669D01*
X3404Y678D01*
X3403Y686D01*
X3400Y693D01*
X3395Y700D01*
X3388Y705D01*
X3380Y708D01*
X3372Y709D01*
D02*
G37*
G36*
X2978Y699D02*
X2927D01*
X2919Y698D01*
X2911Y695D01*
X2905Y690D01*
X2900Y683D01*
X2896Y676D01*
X2895Y667D01*
X2896Y659D01*
X2900Y651D01*
X2905Y645D01*
X2911Y640D01*
X2919Y637D01*
X2927Y636D01*
X2978D01*
X2987Y637D01*
X2994Y640D01*
X3001Y645D01*
X3006Y651D01*
X3009Y659D01*
X3010Y667D01*
X3009Y676D01*
X3006Y683D01*
X3001Y690D01*
X2994Y695D01*
X2987Y698D01*
X2978Y699D01*
D02*
G37*
G36*
X2358Y1716D02*
X2307D01*
Y1690D01*
X2358D01*
Y1716D01*
D02*
G37*
G36*
X2863Y1761D02*
X2853Y1760D01*
X2844Y1756D01*
X2836Y1750D01*
X2830Y1742D01*
X2826Y1733D01*
X2825Y1723D01*
X2826Y1713D01*
X2830Y1704D01*
X2836Y1697D01*
X2844Y1691D01*
X2853Y1687D01*
X2863Y1686D01*
X2872Y1687D01*
X2881Y1691D01*
X2889Y1697D01*
X2895Y1704D01*
X2899Y1713D01*
X2900Y1723D01*
X2899Y1733D01*
X2895Y1742D01*
X2889Y1750D01*
X2881Y1756D01*
X2872Y1760D01*
X2863Y1761D01*
D02*
G37*
G36*
X3256Y1669D02*
X3248Y1668D01*
X3240Y1665D01*
X3233Y1660D01*
X3228Y1653D01*
X3225Y1646D01*
X3224Y1637D01*
X3225Y1629D01*
X3228Y1622D01*
X3233Y1615D01*
X3240Y1610D01*
X3248Y1607D01*
X3256Y1606D01*
X3264Y1607D01*
X3272Y1610D01*
X3278Y1615D01*
X3283Y1622D01*
X3287Y1629D01*
X3288Y1637D01*
X3287Y1646D01*
X3283Y1653D01*
X3278Y1660D01*
X3272Y1665D01*
X3264Y1668D01*
X3256Y1669D01*
D02*
G37*
G36*
X2425Y1758D02*
X2374D01*
Y1732D01*
X2425D01*
Y1758D01*
D02*
G37*
G36*
X2358D02*
X2307D01*
Y1732D01*
X2358D01*
Y1758D01*
D02*
G37*
G36*
X2425Y1716D02*
X2374D01*
Y1690D01*
X2425D01*
Y1716D01*
D02*
G37*
G36*
X2315Y1504D02*
X2308Y1503D01*
X2301Y1500D01*
X2295Y1496D01*
X2291Y1490D01*
X2288Y1483D01*
X2287Y1476D01*
Y1437D01*
X2288Y1429D01*
X2291Y1423D01*
X2295Y1417D01*
X2301Y1413D01*
X2308Y1410D01*
X2315Y1409D01*
X2322Y1410D01*
X2329Y1413D01*
X2335Y1417D01*
X2337Y1420D01*
X2343D01*
X2345Y1417D01*
X2351Y1413D01*
X2358Y1410D01*
X2365Y1409D01*
X2372Y1410D01*
X2379Y1413D01*
X2385Y1417D01*
X2389Y1423D01*
X2392Y1429D01*
X2393Y1437D01*
Y1476D01*
X2392Y1483D01*
X2389Y1490D01*
X2385Y1496D01*
X2379Y1500D01*
X2372Y1503D01*
X2365Y1504D01*
X2358Y1503D01*
X2351Y1500D01*
X2345Y1496D01*
X2343Y1493D01*
X2337D01*
X2335Y1496D01*
X2329Y1500D01*
X2322Y1503D01*
X2315Y1504D01*
D02*
G37*
G36*
X3319Y1299D02*
X3311Y1298D01*
X3303Y1295D01*
X3296Y1290D01*
X3291Y1283D01*
X3288Y1276D01*
X3287Y1267D01*
X3288Y1259D01*
X3291Y1251D01*
X3296Y1245D01*
X3303Y1240D01*
X3311Y1237D01*
X3319Y1236D01*
X3327Y1237D01*
X3335Y1240D01*
X3341Y1245D01*
X3346Y1251D01*
X3350Y1259D01*
X3351Y1267D01*
X3350Y1276D01*
X3346Y1283D01*
X3341Y1290D01*
X3335Y1295D01*
X3327Y1298D01*
X3319Y1299D01*
D02*
G37*
G36*
X3142D02*
X3134Y1298D01*
X3126Y1295D01*
X3119Y1290D01*
X3114Y1283D01*
X3111Y1276D01*
X3110Y1267D01*
X3111Y1259D01*
X3114Y1251D01*
X3119Y1245D01*
X3126Y1240D01*
X3134Y1237D01*
X3142Y1236D01*
X3150Y1237D01*
X3158Y1240D01*
X3164Y1245D01*
X3169Y1251D01*
X3172Y1259D01*
X3174Y1267D01*
X3172Y1276D01*
X3169Y1283D01*
X3164Y1290D01*
X3158Y1295D01*
X3150Y1298D01*
X3142Y1299D01*
D02*
G37*
G36*
X3106Y2079D02*
X3098Y2078D01*
X3090Y2074D01*
X3084Y2069D01*
X3079Y2063D01*
X3076Y2055D01*
X3075Y2047D01*
X3076Y2039D01*
X3078Y2033D01*
X3075Y2028D01*
X3048D01*
X3047Y2028D01*
X3047D01*
X3046Y2028D01*
X3046D01*
X3045Y2027D01*
X3045Y2027D01*
X3045Y2027D01*
X3044Y2027D01*
X3043Y2026D01*
X3043Y2026D01*
X3041Y2024D01*
X3040Y2023D01*
X3040Y2022D01*
X3040Y2022D01*
X3040Y2022D01*
X3040Y2021D01*
Y2021D01*
X3040Y2021D01*
Y2020D01*
X3039Y2019D01*
Y1613D01*
X3040Y1612D01*
Y1611D01*
X3040Y1611D01*
Y1611D01*
X3040Y1610D01*
X3040Y1610D01*
X3040Y1610D01*
X3040Y1609D01*
X3041Y1608D01*
X3041Y1608D01*
X3043Y1606D01*
X3044Y1605D01*
X3045Y1605D01*
X3045Y1605D01*
X3045Y1605D01*
X3046Y1604D01*
X3046D01*
X3047Y1604D01*
X3047D01*
X3048Y1604D01*
X3060D01*
X3060Y1604D01*
X3066D01*
X3066Y1604D01*
X3089D01*
X3089Y1604D01*
X3095D01*
X3095Y1604D01*
X3119D01*
X3119D01*
X3119Y1604D01*
X3125D01*
X3125Y1604D01*
X3136D01*
X3137Y1604D01*
X3138D01*
X3138Y1604D01*
X3138Y1604D01*
X3138D01*
X3139Y1605D01*
X3139Y1605D01*
X3139Y1605D01*
X3140Y1605D01*
X3141Y1606D01*
X3141Y1606D01*
X3141Y1606D01*
X3142Y1606D01*
X3142Y1606D01*
X3142Y1607D01*
X3142Y1607D01*
X3142Y1607D01*
X3143Y1607D01*
X3143Y1608D01*
X3143Y1608D01*
X3143Y1608D01*
X3143Y1608D01*
X3144Y1608D01*
X3144Y1609D01*
X3144Y1609D01*
X3144Y1610D01*
X3144Y1610D01*
X3144Y1610D01*
X3146Y1611D01*
X3146Y1612D01*
X3147Y1612D01*
X3149Y1613D01*
X3150Y1613D01*
X3153Y1610D01*
X3161Y1607D01*
X3169Y1606D01*
X3178Y1607D01*
X3185Y1610D01*
X3192Y1615D01*
X3197Y1622D01*
X3200Y1629D01*
X3201Y1637D01*
X3200Y1646D01*
X3197Y1653D01*
X3192Y1660D01*
X3185Y1665D01*
X3178Y1668D01*
X3169Y1669D01*
X3161Y1668D01*
X3153Y1665D01*
X3150Y1662D01*
X3145Y1665D01*
X3145Y2019D01*
X3145Y2020D01*
Y2021D01*
X3145Y2021D01*
Y2021D01*
X3144Y2022D01*
X3144Y2022D01*
X3144Y2022D01*
X3143Y2024D01*
X3143Y2024D01*
X3143Y2024D01*
X3141Y2026D01*
X3139Y2027D01*
X3139Y2027D01*
X3139Y2027D01*
X3139Y2027D01*
X3139Y2027D01*
X3139Y2027D01*
X3138Y2028D01*
X3138Y2028D01*
X3136Y2029D01*
X3135Y2031D01*
X3135Y2033D01*
X3137Y2039D01*
X3138Y2047D01*
X3137Y2055D01*
X3134Y2063D01*
X3129Y2069D01*
X3122Y2074D01*
X3115Y2078D01*
X3106Y2079D01*
D02*
G37*
G36*
X2392Y1656D02*
X2341D01*
X2332Y1655D01*
X2325Y1652D01*
X2318Y1646D01*
X2313Y1640D01*
X2310Y1632D01*
X2309Y1624D01*
X2310Y1616D01*
X2313Y1608D01*
X2318Y1602D01*
X2325Y1597D01*
X2332Y1593D01*
X2341Y1592D01*
X2392D01*
X2400Y1593D01*
X2408Y1597D01*
X2414Y1602D01*
X2419Y1608D01*
X2422Y1616D01*
X2424Y1624D01*
X2422Y1632D01*
X2419Y1640D01*
X2414Y1646D01*
X2408Y1652D01*
X2400Y1655D01*
X2392Y1656D01*
D02*
G37*
G36*
X2232Y1653D02*
X2224Y1652D01*
X2216Y1649D01*
X2210Y1644D01*
X2205Y1638D01*
X2202Y1630D01*
X2201Y1622D01*
X2202Y1613D01*
X2205Y1606D01*
X2210Y1599D01*
X2216Y1594D01*
X2224Y1591D01*
X2232Y1590D01*
X2241Y1591D01*
X2248Y1594D01*
X2255Y1599D01*
X2260Y1606D01*
X2263Y1613D01*
X2264Y1622D01*
X2263Y1630D01*
X2260Y1638D01*
X2255Y1644D01*
X2248Y1649D01*
X2241Y1652D01*
X2232Y1653D01*
D02*
G37*
G36*
X3339Y611D02*
X3321D01*
X3312Y610D01*
X3304Y607D01*
X3297Y602D01*
X3292Y595D01*
X3288Y586D01*
X3288Y585D01*
X3339D01*
Y611D01*
D02*
G37*
G36*
X2945Y359D02*
X2894D01*
X2894Y359D01*
X2898Y350D01*
X2903Y343D01*
X2910Y338D01*
X2918Y335D01*
X2927Y333D01*
X2945D01*
Y359D01*
D02*
G37*
G36*
X3012Y301D02*
X2961D01*
Y275D01*
X3012D01*
Y301D01*
D02*
G37*
G36*
X2945D02*
X2894D01*
Y275D01*
X2945D01*
Y301D01*
D02*
G37*
G36*
X3404Y409D02*
X3290D01*
Y346D01*
X3404D01*
Y409D01*
D02*
G37*
G36*
X2178Y399D02*
X2127D01*
X2119Y398D01*
X2111Y395D01*
X2105Y390D01*
X2100Y383D01*
X2096Y376D01*
X2095Y367D01*
X2096Y359D01*
X2100Y351D01*
X2105Y345D01*
X2111Y340D01*
X2119Y337D01*
X2127Y336D01*
X2178D01*
X2187Y337D01*
X2194Y340D01*
X2201Y345D01*
X2206Y351D01*
X2209Y359D01*
X2210Y367D01*
X2209Y376D01*
X2206Y383D01*
X2201Y390D01*
X2194Y395D01*
X2187Y398D01*
X2178Y399D01*
D02*
G37*
G36*
X3011Y359D02*
X2961D01*
Y333D01*
X2978D01*
X2987Y335D01*
X2995Y338D01*
X3002Y343D01*
X3008Y350D01*
X3011Y359D01*
X3011Y359D01*
D02*
G37*
G36*
X2945Y259D02*
X2894D01*
Y234D01*
X2945D01*
Y259D01*
D02*
G37*
G36*
X2211D02*
X2161D01*
Y233D01*
X2178D01*
X2187Y235D01*
X2195Y238D01*
X2202Y243D01*
X2208Y250D01*
X2211Y259D01*
X2211Y259D01*
D02*
G37*
G36*
X2145D02*
X2094D01*
X2094Y259D01*
X2098Y250D01*
X2103Y243D01*
X2110Y238D01*
X2118Y235D01*
X2127Y233D01*
X2145D01*
Y259D01*
D02*
G37*
G36*
X2178Y301D02*
X2161D01*
Y275D01*
X2211D01*
X2211Y276D01*
X2208Y284D01*
X2202Y291D01*
X2195Y297D01*
X2187Y300D01*
X2178Y301D01*
D02*
G37*
G36*
X2145D02*
X2127D01*
X2118Y300D01*
X2110Y297D01*
X2103Y291D01*
X2098Y284D01*
X2094Y276D01*
X2094Y275D01*
X2145D01*
Y301D01*
D02*
G37*
G36*
X3012Y259D02*
X2961D01*
Y234D01*
X3012D01*
Y259D01*
D02*
G37*
G36*
X3339Y570D02*
X3288D01*
X3288Y569D01*
X3292Y561D01*
X3297Y554D01*
X3304Y548D01*
X3312Y545D01*
X3321Y544D01*
X3339D01*
Y570D01*
D02*
G37*
G36*
X2978Y599D02*
X2927D01*
X2919Y598D01*
X2911Y595D01*
X2905Y590D01*
X2900Y583D01*
X2896Y576D01*
X2895Y567D01*
X2896Y559D01*
X2900Y551D01*
X2905Y545D01*
X2911Y540D01*
X2919Y537D01*
X2927Y536D01*
X2978D01*
X2987Y537D01*
X2994Y540D01*
X3001Y545D01*
X3006Y551D01*
X3009Y559D01*
X3010Y567D01*
X3009Y576D01*
X3006Y583D01*
X3001Y590D01*
X2994Y595D01*
X2987Y598D01*
X2978Y599D01*
D02*
G37*
G36*
X2211Y559D02*
X2161D01*
Y533D01*
X2178D01*
X2187Y535D01*
X2195Y538D01*
X2202Y543D01*
X2208Y550D01*
X2211Y559D01*
X2211Y559D01*
D02*
G37*
G36*
X2178Y601D02*
X2161D01*
Y575D01*
X2211D01*
X2211Y576D01*
X2208Y584D01*
X2202Y591D01*
X2195Y597D01*
X2187Y600D01*
X2178Y601D01*
D02*
G37*
G36*
X2145D02*
X2127D01*
X2118Y600D01*
X2110Y597D01*
X2103Y591D01*
X2098Y584D01*
X2094Y576D01*
X2094Y575D01*
X2145D01*
Y601D01*
D02*
G37*
G36*
X3405Y570D02*
X3355D01*
Y544D01*
X3372D01*
X3381Y545D01*
X3389Y548D01*
X3396Y554D01*
X3402Y561D01*
X3405Y569D01*
X3405Y570D01*
D02*
G37*
G36*
X2178Y499D02*
X2127D01*
X2119Y498D01*
X2111Y495D01*
X2105Y490D01*
X2100Y483D01*
X2096Y476D01*
X2095Y467D01*
X2096Y459D01*
X2100Y451D01*
X2105Y445D01*
X2111Y440D01*
X2119Y437D01*
X2127Y436D01*
X2178D01*
X2187Y437D01*
X2194Y440D01*
X2201Y445D01*
X2206Y451D01*
X2209Y459D01*
X2210Y467D01*
X2209Y476D01*
X2206Y483D01*
X2201Y490D01*
X2194Y495D01*
X2187Y498D01*
X2178Y499D01*
D02*
G37*
G36*
X2978Y401D02*
X2961D01*
Y375D01*
X3011D01*
X3011Y376D01*
X3008Y384D01*
X3002Y391D01*
X2995Y397D01*
X2987Y400D01*
X2978Y401D01*
D02*
G37*
G36*
X2945D02*
X2927D01*
X2918Y400D01*
X2910Y397D01*
X2903Y391D01*
X2898Y384D01*
X2894Y376D01*
X2894Y375D01*
X2945D01*
Y401D01*
D02*
G37*
G36*
X2145Y559D02*
X2094D01*
X2094Y559D01*
X2098Y550D01*
X2103Y543D01*
X2110Y538D01*
X2118Y535D01*
X2127Y533D01*
X2145D01*
Y559D01*
D02*
G37*
G36*
X2685Y2187D02*
X2677Y2186D01*
X2669Y2183D01*
X2663Y2178D01*
X2658Y2171D01*
X2654Y2164D01*
X2653Y2156D01*
Y1295D01*
X2654Y1287D01*
X2658Y1279D01*
X2663Y1272D01*
X2678Y1257D01*
X2764Y1171D01*
Y1010D01*
X2765Y1002D01*
X2768Y994D01*
X2773Y987D01*
X2863Y897D01*
X2870Y892D01*
X2878Y889D01*
X2886Y888D01*
X3048D01*
X3102Y833D01*
X3102Y830D01*
X3104Y818D01*
X3109Y806D01*
X3116Y797D01*
X3118Y795D01*
Y589D01*
X3119Y580D01*
X3122Y573D01*
X3127Y566D01*
X3238Y455D01*
X3245Y450D01*
X3253Y447D01*
X3261Y446D01*
X3372D01*
X3380Y447D01*
X3388Y450D01*
X3395Y455D01*
X3400Y462D01*
X3403Y469D01*
X3404Y478D01*
X3403Y486D01*
X3400Y493D01*
X3395Y500D01*
X3388Y505D01*
X3380Y508D01*
X3372Y509D01*
X3274D01*
X3182Y602D01*
Y795D01*
X3183Y797D01*
X3191Y806D01*
X3196Y818D01*
X3197Y830D01*
X3196Y843D01*
X3191Y854D01*
X3183Y864D01*
X3174Y872D01*
X3162Y876D01*
X3150Y878D01*
X3147Y878D01*
X3083Y942D01*
X3077Y947D01*
X3069Y950D01*
X3061Y951D01*
X2899D01*
X2827Y1023D01*
Y1185D01*
X2826Y1193D01*
X2823Y1201D01*
X2818Y1207D01*
X2723Y1302D01*
X2717Y1308D01*
Y2156D01*
X2716Y2164D01*
X2713Y2171D01*
X2708Y2178D01*
X2701Y2183D01*
X2693Y2186D01*
X2685Y2187D01*
D02*
G37*
G36*
X2978Y499D02*
X2927D01*
X2919Y498D01*
X2911Y495D01*
X2905Y490D01*
X2900Y483D01*
X2896Y476D01*
X2895Y467D01*
X2896Y459D01*
X2900Y451D01*
X2905Y445D01*
X2911Y440D01*
X2919Y437D01*
X2927Y436D01*
X2978D01*
X2987Y437D01*
X2994Y440D01*
X3001Y445D01*
X3006Y451D01*
X3009Y459D01*
X3010Y467D01*
X3009Y476D01*
X3006Y483D01*
X3001Y490D01*
X2994Y495D01*
X2987Y498D01*
X2978Y499D01*
D02*
G37*
G36*
X2433Y3005D02*
Y2944D01*
X2494D01*
X2493Y2950D01*
X2489Y2963D01*
X2483Y2975D01*
X2474Y2986D01*
X2464Y2994D01*
X2452Y3001D01*
X2439Y3005D01*
X2433Y3005D01*
D02*
G37*
G36*
X2417D02*
X2412Y3005D01*
X2399Y3001D01*
X2387Y2994D01*
X2376Y2986D01*
X2368Y2975D01*
X2361Y2963D01*
X2357Y2950D01*
X2357Y2944D01*
X2417D01*
Y3005D01*
D02*
G37*
G36*
X2840Y3041D02*
X2832Y3040D01*
X2824Y3037D01*
X2818Y3032D01*
X2813Y3025D01*
X2809Y3018D01*
X2808Y3009D01*
Y2958D01*
X2809Y2950D01*
X2813Y2942D01*
X2818Y2936D01*
X2824Y2931D01*
X2832Y2928D01*
X2840Y2927D01*
X2848Y2928D01*
X2856Y2931D01*
X2863Y2936D01*
X2868Y2942D01*
X2871Y2950D01*
X2872Y2958D01*
Y3009D01*
X2871Y3018D01*
X2868Y3025D01*
X2863Y3032D01*
X2856Y3037D01*
X2848Y3040D01*
X2840Y3041D01*
D02*
G37*
G36*
X2732Y3043D02*
X2707D01*
Y2992D01*
X2732D01*
Y3043D01*
D02*
G37*
G36*
X2364Y3015D02*
X2303D01*
Y2955D01*
X2309Y2955D01*
X2322Y2959D01*
X2334Y2966D01*
X2344Y2974D01*
X2353Y2985D01*
X2359Y2997D01*
X2363Y3010D01*
X2364Y3015D01*
D02*
G37*
G36*
X2287D02*
X2227D01*
X2227Y3010D01*
X2231Y2997D01*
X2238Y2985D01*
X2246Y2974D01*
X2257Y2966D01*
X2269Y2959D01*
X2282Y2955D01*
X2287Y2955D01*
Y3015D01*
D02*
G37*
G36*
X2494Y2929D02*
X2433D01*
Y2868D01*
X2439Y2869D01*
X2452Y2873D01*
X2464Y2879D01*
X2474Y2888D01*
X2483Y2898D01*
X2489Y2910D01*
X2493Y2923D01*
X2494Y2929D01*
D02*
G37*
G36*
X2417D02*
X2357D01*
X2357Y2923D01*
X2361Y2910D01*
X2368Y2898D01*
X2376Y2888D01*
X2387Y2879D01*
X2399Y2873D01*
X2412Y2869D01*
X2417Y2868D01*
Y2929D01*
D02*
G37*
G36*
X3132Y2728D02*
X3124Y2727D01*
X3116Y2724D01*
X3109Y2719D01*
X3104Y2712D01*
X3101Y2705D01*
X3100Y2696D01*
X3101Y2688D01*
X3104Y2681D01*
X3109Y2674D01*
X3116Y2669D01*
X3124Y2666D01*
X3132Y2665D01*
X3140Y2666D01*
X3148Y2669D01*
X3154Y2674D01*
X3159Y2681D01*
X3163Y2688D01*
X3164Y2696D01*
X3163Y2705D01*
X3159Y2712D01*
X3154Y2719D01*
X3148Y2724D01*
X3140Y2727D01*
X3132Y2728D01*
D02*
G37*
G36*
X2774Y2976D02*
X2748D01*
Y2925D01*
X2774D01*
Y2976D01*
D02*
G37*
G36*
X2732D02*
X2707D01*
Y2925D01*
X2732D01*
Y2976D01*
D02*
G37*
G36*
X2165Y3004D02*
X2152Y3003D01*
X2140Y2999D01*
X2128Y2993D01*
X2118Y2984D01*
X2109Y2974D01*
X2103Y2962D01*
X2099Y2950D01*
X2098Y2937D01*
X2099Y2923D01*
X2103Y2911D01*
X2109Y2899D01*
X2118Y2889D01*
X2128Y2881D01*
X2140Y2874D01*
X2152Y2871D01*
X2165Y2869D01*
X2178Y2871D01*
X2191Y2874D01*
X2203Y2881D01*
X2213Y2889D01*
X2221Y2899D01*
X2227Y2911D01*
X2231Y2923D01*
X2233Y2937D01*
X2231Y2950D01*
X2227Y2962D01*
X2221Y2974D01*
X2213Y2984D01*
X2203Y2993D01*
X2191Y2999D01*
X2178Y3003D01*
X2165Y3004D01*
D02*
G37*
G36*
X2774Y3043D02*
X2748D01*
Y2992D01*
X2774D01*
Y3043D01*
D02*
G37*
G36*
X2774Y3197D02*
X2748D01*
Y3145D01*
X2774D01*
Y3197D01*
D02*
G37*
G36*
X2732D02*
X2707D01*
Y3145D01*
X2732D01*
Y3197D01*
D02*
G37*
G36*
X2840Y3195D02*
X2832Y3194D01*
X2824Y3191D01*
X2818Y3185D01*
X2813Y3179D01*
X2809Y3171D01*
X2808Y3163D01*
Y3112D01*
X2809Y3104D01*
X2813Y3096D01*
X2818Y3089D01*
X2824Y3084D01*
X2832Y3081D01*
X2840Y3080D01*
X2848Y3081D01*
X2856Y3084D01*
X2863Y3089D01*
X2868Y3096D01*
X2871Y3104D01*
X2872Y3112D01*
Y3163D01*
X2871Y3171D01*
X2868Y3179D01*
X2863Y3185D01*
X2856Y3191D01*
X2848Y3194D01*
X2840Y3195D01*
D02*
G37*
G36*
X2787Y3311D02*
X2775Y3309D01*
X2764Y3305D01*
X2754Y3297D01*
X2746Y3287D01*
X2741Y3276D01*
X2740Y3263D01*
X2741Y3251D01*
X2746Y3240D01*
X2754Y3230D01*
X2764Y3222D01*
X2775Y3217D01*
X2787Y3216D01*
X2800Y3217D01*
X2811Y3222D01*
X2821Y3230D01*
X2829Y3240D01*
X2833Y3251D01*
X2835Y3263D01*
X2833Y3276D01*
X2829Y3287D01*
X2821Y3297D01*
X2811Y3305D01*
X2800Y3309D01*
X2787Y3311D01*
D02*
G37*
G36*
X2425Y3309D02*
X2409Y3307D01*
X2394Y3303D01*
X2380Y3295D01*
X2368Y3285D01*
X2358Y3273D01*
X2350Y3259D01*
X2346Y3244D01*
X2344Y3228D01*
X2346Y3212D01*
X2350Y3197D01*
X2358Y3183D01*
X2368Y3171D01*
X2380Y3161D01*
X2394Y3153D01*
X2409Y3148D01*
X2425Y3147D01*
X2441Y3148D01*
X2456Y3153D01*
X2470Y3161D01*
X2483Y3171D01*
X2493Y3183D01*
X2500Y3197D01*
X2505Y3212D01*
X2506Y3228D01*
X2505Y3244D01*
X2500Y3259D01*
X2493Y3273D01*
X2483Y3285D01*
X2470Y3295D01*
X2456Y3303D01*
X2441Y3307D01*
X2425Y3309D01*
D02*
G37*
G36*
X2165D02*
X2150Y3307D01*
X2134Y3303D01*
X2120Y3295D01*
X2108Y3285D01*
X2098Y3273D01*
X2090Y3259D01*
X2086Y3244D01*
X2084Y3228D01*
X2086Y3212D01*
X2090Y3197D01*
X2098Y3183D01*
X2108Y3171D01*
X2120Y3161D01*
X2134Y3153D01*
X2150Y3148D01*
X2165Y3147D01*
X2181Y3148D01*
X2196Y3153D01*
X2210Y3161D01*
X2223Y3171D01*
X2233Y3183D01*
X2240Y3197D01*
X2245Y3212D01*
X2246Y3228D01*
X2245Y3244D01*
X2240Y3259D01*
X2233Y3273D01*
X2223Y3285D01*
X2210Y3295D01*
X2196Y3303D01*
X2181Y3307D01*
X2165Y3309D01*
D02*
G37*
G36*
X2989Y3106D02*
X2981Y3105D01*
X2973Y3102D01*
X2967Y3097D01*
X2962Y3090D01*
X2959Y3083D01*
X2958Y3074D01*
X2959Y3066D01*
X2962Y3059D01*
X2967Y3052D01*
X2973Y3047D01*
X2981Y3044D01*
X2989Y3043D01*
X2998Y3044D01*
X3005Y3047D01*
X3012Y3052D01*
X3017Y3059D01*
X3020Y3066D01*
X3021Y3074D01*
X3020Y3083D01*
X3017Y3090D01*
X3012Y3097D01*
X3005Y3102D01*
X2998Y3105D01*
X2989Y3106D01*
D02*
G37*
G36*
X2303Y3092D02*
Y3031D01*
X2364D01*
X2363Y3037D01*
X2359Y3050D01*
X2353Y3062D01*
X2344Y3072D01*
X2334Y3081D01*
X2322Y3087D01*
X2309Y3091D01*
X2303Y3092D01*
D02*
G37*
G36*
X2287D02*
X2282Y3091D01*
X2269Y3087D01*
X2257Y3081D01*
X2246Y3072D01*
X2238Y3062D01*
X2231Y3050D01*
X2227Y3037D01*
X2227Y3031D01*
X2287D01*
Y3092D01*
D02*
G37*
G36*
X2774Y3130D02*
X2748D01*
Y3078D01*
X2774D01*
Y3130D01*
D02*
G37*
G36*
X2732D02*
X2707D01*
Y3078D01*
X2732D01*
Y3130D01*
D02*
G37*
G36*
X3167Y3106D02*
X3158Y3105D01*
X3151Y3102D01*
X3144Y3097D01*
X3139Y3090D01*
X3136Y3083D01*
X3135Y3074D01*
X3136Y3066D01*
X3139Y3059D01*
X3144Y3052D01*
X3151Y3047D01*
X3158Y3044D01*
X3167Y3043D01*
X3175Y3044D01*
X3182Y3047D01*
X3189Y3052D01*
X3194Y3059D01*
X3197Y3066D01*
X3198Y3074D01*
X3197Y3083D01*
X3194Y3090D01*
X3189Y3097D01*
X3182Y3102D01*
X3175Y3105D01*
X3167Y3106D01*
D02*
G37*
G36*
X3055Y2728D02*
X3047Y2727D01*
X3039Y2724D01*
X3033Y2719D01*
X3028Y2712D01*
X3024Y2705D01*
X3023Y2696D01*
X3024Y2688D01*
X3028Y2681D01*
X3033Y2674D01*
X3039Y2669D01*
X3047Y2666D01*
X3055Y2665D01*
X3063Y2666D01*
X3071Y2669D01*
X3078Y2674D01*
X3083Y2681D01*
X3086Y2688D01*
X3087Y2696D01*
X3086Y2705D01*
X3083Y2712D01*
X3078Y2719D01*
X3071Y2724D01*
X3063Y2727D01*
X3055Y2728D01*
D02*
G37*
G36*
X2242Y2107D02*
X2234Y2106D01*
X2226Y2103D01*
X2220Y2098D01*
X2215Y2091D01*
X2212Y2083D01*
X2210Y2075D01*
X2212Y2067D01*
X2215Y2059D01*
X2220Y2053D01*
X2226Y2048D01*
X2234Y2045D01*
X2242Y2043D01*
X2250Y2045D01*
X2258Y2048D01*
X2265Y2053D01*
X2270Y2059D01*
X2273Y2067D01*
X2274Y2075D01*
X2273Y2083D01*
X2270Y2091D01*
X2265Y2098D01*
X2258Y2103D01*
X2250Y2106D01*
X2242Y2107D01*
D02*
G37*
G36*
X2394Y2109D02*
X2385Y2108D01*
X2377Y2104D01*
X2370Y2099D01*
X2364Y2092D01*
X2361Y2084D01*
X2360Y2075D01*
X2361Y2066D01*
X2364Y2058D01*
X2370Y2051D01*
X2377Y2046D01*
X2385Y2043D01*
X2394Y2041D01*
X2402Y2043D01*
X2411Y2046D01*
X2418Y2051D01*
X2423Y2058D01*
X2426Y2066D01*
X2427Y2075D01*
X2426Y2084D01*
X2423Y2092D01*
X2418Y2099D01*
X2411Y2104D01*
X2402Y2108D01*
X2394Y2109D01*
D02*
G37*
G36*
X2563Y2161D02*
X2553Y2160D01*
X2544Y2156D01*
X2536Y2150D01*
X2530Y2142D01*
X2526Y2133D01*
X2525Y2123D01*
X2526Y2113D01*
X2530Y2104D01*
X2536Y2097D01*
X2544Y2091D01*
X2553Y2087D01*
X2563Y2086D01*
X2572Y2087D01*
X2581Y2091D01*
X2589Y2097D01*
X2595Y2104D01*
X2599Y2113D01*
X2600Y2123D01*
X2599Y2133D01*
X2595Y2142D01*
X2589Y2150D01*
X2581Y2156D01*
X2572Y2160D01*
X2563Y2161D01*
D02*
G37*
G36*
Y2261D02*
X2553Y2260D01*
X2544Y2256D01*
X2536Y2250D01*
X2530Y2242D01*
X2526Y2233D01*
X2525Y2223D01*
X2526Y2213D01*
X2530Y2204D01*
X2536Y2197D01*
X2544Y2191D01*
X2553Y2187D01*
X2563Y2186D01*
X2572Y2187D01*
X2581Y2191D01*
X2589Y2197D01*
X2595Y2204D01*
X2599Y2213D01*
X2600Y2223D01*
X2599Y2233D01*
X2595Y2242D01*
X2589Y2250D01*
X2581Y2256D01*
X2572Y2260D01*
X2563Y2261D01*
D02*
G37*
G36*
X2863Y2161D02*
X2853Y2160D01*
X2844Y2156D01*
X2836Y2150D01*
X2830Y2142D01*
X2826Y2133D01*
X2825Y2123D01*
X2826Y2113D01*
X2830Y2104D01*
X2836Y2097D01*
X2844Y2091D01*
X2853Y2087D01*
X2863Y2086D01*
X2872Y2087D01*
X2881Y2091D01*
X2889Y2097D01*
X2895Y2104D01*
X2899Y2113D01*
X2900Y2123D01*
X2899Y2133D01*
X2895Y2142D01*
X2889Y2150D01*
X2881Y2156D01*
X2872Y2160D01*
X2863Y2161D01*
D02*
G37*
G36*
Y2061D02*
X2853Y2060D01*
X2844Y2056D01*
X2836Y2050D01*
X2830Y2042D01*
X2826Y2033D01*
X2825Y2023D01*
X2826Y2013D01*
X2830Y2004D01*
X2836Y1997D01*
X2844Y1991D01*
X2853Y1987D01*
X2863Y1986D01*
X2872Y1987D01*
X2881Y1991D01*
X2889Y1997D01*
X2895Y2004D01*
X2899Y2013D01*
X2900Y2023D01*
X2899Y2033D01*
X2895Y2042D01*
X2889Y2050D01*
X2881Y2056D01*
X2872Y2060D01*
X2863Y2061D01*
D02*
G37*
G36*
X3429Y1971D02*
X3417Y1970D01*
X3405Y1965D01*
X3395Y1958D01*
X3388Y1948D01*
X3383Y1936D01*
X3381Y1924D01*
X3383Y1911D01*
X3388Y1900D01*
X3395Y1890D01*
X3405Y1883D01*
X3417Y1878D01*
X3429Y1876D01*
X3441Y1878D01*
X3453Y1883D01*
X3463Y1890D01*
X3470Y1900D01*
X3475Y1911D01*
X3477Y1924D01*
X3475Y1936D01*
X3470Y1948D01*
X3463Y1958D01*
X3453Y1965D01*
X3441Y1970D01*
X3429Y1971D01*
D02*
G37*
G36*
X2563Y1861D02*
X2553Y1860D01*
X2544Y1856D01*
X2536Y1850D01*
X2530Y1842D01*
X2526Y1833D01*
X2525Y1823D01*
X2526Y1813D01*
X2530Y1804D01*
X2536Y1797D01*
X2544Y1791D01*
X2553Y1787D01*
X2563Y1786D01*
X2572Y1787D01*
X2581Y1791D01*
X2589Y1797D01*
X2595Y1804D01*
X2599Y1813D01*
X2600Y1823D01*
X2599Y1833D01*
X2595Y1842D01*
X2589Y1850D01*
X2581Y1856D01*
X2572Y1860D01*
X2563Y1861D01*
D02*
G37*
G36*
Y1961D02*
X2553Y1960D01*
X2544Y1956D01*
X2536Y1950D01*
X2530Y1942D01*
X2526Y1933D01*
X2525Y1923D01*
X2526Y1913D01*
X2530Y1904D01*
X2536Y1897D01*
X2544Y1891D01*
X2553Y1887D01*
X2563Y1886D01*
X2572Y1887D01*
X2581Y1891D01*
X2589Y1897D01*
X2595Y1904D01*
X2599Y1913D01*
X2600Y1923D01*
X2599Y1933D01*
X2595Y1942D01*
X2589Y1950D01*
X2581Y1956D01*
X2572Y1960D01*
X2563Y1961D01*
D02*
G37*
G36*
Y2061D02*
X2553Y2060D01*
X2544Y2056D01*
X2543Y2055D01*
X2509D01*
X2501Y2054D01*
X2494Y2051D01*
X2487Y2046D01*
X2450Y2009D01*
X2445Y2002D01*
X2442Y1994D01*
X2441Y1986D01*
Y1172D01*
X2442Y1163D01*
X2445Y1156D01*
X2450Y1149D01*
X2779Y820D01*
X2786Y815D01*
X2793Y812D01*
X2801Y811D01*
X2998D01*
X3027Y781D01*
Y449D01*
X3028Y440D01*
X3032Y433D01*
X3037Y426D01*
X3102Y360D01*
X3102Y358D01*
X3104Y346D01*
X3109Y334D01*
X3116Y324D01*
X3126Y317D01*
X3137Y312D01*
X3150Y310D01*
X3162Y312D01*
X3174Y317D01*
X3183Y324D01*
X3191Y334D01*
X3196Y346D01*
X3197Y358D01*
X3196Y370D01*
X3191Y382D01*
X3183Y392D01*
X3174Y399D01*
X3162Y404D01*
X3150Y406D01*
X3147Y405D01*
X3091Y462D01*
Y794D01*
X3090Y803D01*
X3087Y810D01*
X3082Y817D01*
X3033Y865D01*
X3027Y870D01*
X3019Y873D01*
X3011Y874D01*
X2815D01*
X2504Y1185D01*
Y1973D01*
X2523Y1991D01*
X2543D01*
X2544Y1991D01*
X2553Y1987D01*
X2563Y1986D01*
X2572Y1987D01*
X2581Y1991D01*
X2589Y1997D01*
X2595Y2004D01*
X2599Y2013D01*
X2600Y2023D01*
X2599Y2033D01*
X2595Y2042D01*
X2589Y2050D01*
X2581Y2056D01*
X2572Y2060D01*
X2563Y2061D01*
D02*
G37*
G36*
X3096Y2178D02*
X3089Y2176D01*
X3082Y2172D01*
X3078Y2165D01*
X3077Y2162D01*
X2874Y1959D01*
X2872Y1960D01*
X2863Y1961D01*
X2853Y1960D01*
X2844Y1956D01*
X2836Y1950D01*
X2830Y1942D01*
X2826Y1933D01*
X2825Y1923D01*
X2826Y1913D01*
X2827Y1912D01*
X2794Y1879D01*
X2748D01*
X2741Y1877D01*
X2736Y1874D01*
X2732Y1868D01*
X2731Y1862D01*
Y1674D01*
X2730Y1673D01*
X2729Y1665D01*
X2730Y1657D01*
X2731Y1656D01*
Y1622D01*
X2732Y1615D01*
X2736Y1610D01*
X2782Y1564D01*
X2782Y1561D01*
X2787Y1554D01*
X2793Y1550D01*
X2801Y1548D01*
X2809Y1550D01*
X2816Y1554D01*
X2820Y1561D01*
X2822Y1569D01*
X2820Y1576D01*
X2816Y1583D01*
X2809Y1587D01*
X2806Y1588D01*
X2765Y1629D01*
Y1653D01*
X2768Y1657D01*
X2769Y1665D01*
X2768Y1673D01*
X2765Y1677D01*
Y1716D01*
X2770Y1719D01*
X2770Y1719D01*
Y1689D01*
X2772Y1682D01*
X2775Y1677D01*
X2833Y1619D01*
X2833Y1616D01*
X2838Y1610D01*
X2845Y1605D01*
X2852Y1604D01*
X2860Y1605D01*
X2867Y1610D01*
X2871Y1616D01*
X2873Y1624D01*
X2871Y1632D01*
X2867Y1638D01*
X2860Y1643D01*
X2857Y1644D01*
X2804Y1696D01*
Y1726D01*
X2805Y1727D01*
X2807Y1735D01*
X2806Y1742D01*
X2851Y1788D01*
X2853Y1787D01*
X2863Y1786D01*
X2872Y1787D01*
X2881Y1791D01*
X2889Y1797D01*
X2895Y1804D01*
X2900Y1803D01*
Y1785D01*
X2902Y1779D01*
X2905Y1773D01*
X2953Y1726D01*
X2954Y1722D01*
X2958Y1716D01*
X2965Y1711D01*
X2972Y1710D01*
X2980Y1711D01*
X2987Y1716D01*
X2991Y1722D01*
X2993Y1730D01*
X2991Y1738D01*
X2987Y1745D01*
X2980Y1749D01*
X2977Y1750D01*
X2934Y1793D01*
Y1869D01*
X2933Y1875D01*
X2929Y1881D01*
X2898Y1912D01*
X2899Y1913D01*
X2900Y1923D01*
X2899Y1933D01*
X2898Y1935D01*
X3101Y2138D01*
X3104Y2138D01*
X3111Y2143D01*
X3115Y2149D01*
X3117Y2157D01*
X3115Y2165D01*
X3111Y2172D01*
X3104Y2176D01*
X3096Y2178D01*
D02*
G37*
G36*
X2863Y2261D02*
X2853Y2260D01*
X2844Y2256D01*
X2836Y2250D01*
X2830Y2242D01*
X2826Y2233D01*
X2825Y2223D01*
X2826Y2213D01*
X2830Y2204D01*
X2836Y2197D01*
X2844Y2191D01*
X2853Y2187D01*
X2863Y2186D01*
X2872Y2187D01*
X2881Y2191D01*
X2889Y2197D01*
X2895Y2204D01*
X2899Y2213D01*
X2900Y2223D01*
X2899Y2233D01*
X2895Y2242D01*
X2889Y2250D01*
X2881Y2256D01*
X2872Y2260D01*
X2863Y2261D01*
D02*
G37*
G36*
X3429Y2608D02*
X3417Y2606D01*
X3405Y2601D01*
X3395Y2594D01*
X3388Y2584D01*
X3383Y2572D01*
X3381Y2560D01*
X3383Y2548D01*
X3388Y2536D01*
X3395Y2526D01*
X3405Y2519D01*
X3417Y2514D01*
X3429Y2512D01*
X3441Y2514D01*
X3453Y2519D01*
X3463Y2526D01*
X3470Y2536D01*
X3475Y2548D01*
X3477Y2560D01*
X3475Y2572D01*
X3470Y2584D01*
X3463Y2594D01*
X3453Y2601D01*
X3441Y2606D01*
X3429Y2608D01*
D02*
G37*
G36*
X3059Y2563D02*
X3051Y2562D01*
X3043Y2559D01*
X3037Y2554D01*
X3032Y2547D01*
X3028Y2539D01*
X3027Y2531D01*
X3028Y2523D01*
X3032Y2515D01*
X3037Y2509D01*
X3043Y2504D01*
X3051Y2500D01*
X3059Y2499D01*
X3067Y2500D01*
X3075Y2504D01*
X3082Y2509D01*
X3087Y2515D01*
X3090Y2523D01*
X3091Y2531D01*
X3090Y2539D01*
X3087Y2547D01*
X3082Y2554D01*
X3075Y2559D01*
X3067Y2562D01*
X3059Y2563D01*
D02*
G37*
G36*
X2197Y2740D02*
X2185Y2739D01*
X2173Y2734D01*
X2163Y2726D01*
X2156Y2716D01*
X2151Y2705D01*
X2149Y2693D01*
X2151Y2680D01*
X2156Y2669D01*
X2163Y2659D01*
X2173Y2651D01*
X2185Y2646D01*
X2197Y2645D01*
X2209Y2646D01*
X2221Y2651D01*
X2231Y2659D01*
X2238Y2669D01*
X2243Y2680D01*
X2245Y2693D01*
X2243Y2705D01*
X2238Y2716D01*
X2231Y2726D01*
X2221Y2734D01*
X2209Y2739D01*
X2197Y2740D01*
D02*
G37*
G36*
X2547Y2724D02*
X2539Y2723D01*
X2531Y2720D01*
X2525Y2715D01*
X2520Y2708D01*
X2517Y2701D01*
X2515Y2693D01*
X2517Y2684D01*
X2520Y2677D01*
X2525Y2670D01*
X2531Y2665D01*
X2539Y2662D01*
X2547Y2661D01*
X2555Y2662D01*
X2563Y2665D01*
X2570Y2670D01*
X2575Y2677D01*
X2578Y2684D01*
X2579Y2693D01*
X2578Y2701D01*
X2575Y2708D01*
X2570Y2715D01*
X2563Y2720D01*
X2555Y2723D01*
X2547Y2724D01*
D02*
G37*
G36*
X2397Y2740D02*
X2385Y2739D01*
X2373Y2734D01*
X2363Y2726D01*
X2356Y2716D01*
X2351Y2705D01*
X2349Y2693D01*
X2351Y2680D01*
X2356Y2669D01*
X2363Y2659D01*
X2373Y2651D01*
X2385Y2646D01*
X2397Y2645D01*
X2409Y2646D01*
X2421Y2651D01*
X2431Y2659D01*
X2438Y2669D01*
X2443Y2680D01*
X2445Y2693D01*
X2443Y2705D01*
X2438Y2716D01*
X2431Y2726D01*
X2421Y2734D01*
X2409Y2739D01*
X2397Y2740D01*
D02*
G37*
G36*
X2244Y2562D02*
X2236Y2561D01*
X2228Y2558D01*
X2222Y2553D01*
X2217Y2546D01*
X2213Y2538D01*
X2212Y2530D01*
X2213Y2522D01*
X2217Y2514D01*
X2222Y2508D01*
X2228Y2503D01*
X2236Y2499D01*
X2244Y2498D01*
X2252Y2499D01*
X2260Y2503D01*
X2267Y2508D01*
X2272Y2514D01*
X2275Y2522D01*
X2276Y2530D01*
X2275Y2538D01*
X2272Y2546D01*
X2267Y2553D01*
X2260Y2558D01*
X2252Y2561D01*
X2244Y2562D01*
D02*
G37*
G36*
X2244Y2299D02*
X2236Y2298D01*
X2228Y2295D01*
X2222Y2290D01*
X2217Y2283D01*
X2213Y2276D01*
X2212Y2267D01*
X2213Y2259D01*
X2217Y2251D01*
X2222Y2245D01*
X2228Y2240D01*
X2236Y2237D01*
X2244Y2236D01*
X2252Y2237D01*
X2260Y2240D01*
X2267Y2245D01*
X2272Y2251D01*
X2275Y2259D01*
X2276Y2267D01*
X2275Y2276D01*
X2272Y2283D01*
X2267Y2290D01*
X2260Y2295D01*
X2252Y2298D01*
X2244Y2299D01*
D02*
G37*
G36*
X2600Y2361D02*
X2525D01*
Y2286D01*
X2600D01*
Y2291D01*
X2616D01*
X2632Y2276D01*
X2638Y2271D01*
X2646Y2268D01*
X2654Y2266D01*
X2662Y2268D01*
X2670Y2271D01*
X2677Y2276D01*
X2682Y2282D01*
X2685Y2290D01*
X2686Y2298D01*
X2685Y2306D01*
X2682Y2314D01*
X2677Y2321D01*
X2652Y2346D01*
X2645Y2351D01*
X2637Y2354D01*
X2629Y2355D01*
X2600D01*
Y2361D01*
D02*
G37*
G36*
X2879Y2451D02*
X2873Y2450D01*
X2867Y2446D01*
X2615Y2194D01*
X2611Y2188D01*
X2610Y2182D01*
Y1795D01*
X2574Y1759D01*
X2572Y1760D01*
X2563Y1761D01*
X2553Y1760D01*
X2544Y1756D01*
X2536Y1750D01*
X2530Y1742D01*
X2526Y1733D01*
X2525Y1723D01*
X2526Y1713D01*
X2530Y1704D01*
X2536Y1697D01*
X2544Y1691D01*
X2553Y1687D01*
X2563Y1686D01*
X2572Y1687D01*
X2581Y1691D01*
X2589Y1697D01*
X2595Y1704D01*
X2599Y1713D01*
X2600Y1723D01*
X2599Y1733D01*
X2598Y1735D01*
X2639Y1776D01*
X2643Y1781D01*
X2644Y1788D01*
Y2175D01*
X2880Y2411D01*
X2882Y2409D01*
X2888Y2408D01*
X3053D01*
X3056Y2406D01*
X3064Y2405D01*
X3072Y2406D01*
X3078Y2411D01*
X3083Y2417D01*
X3084Y2425D01*
X3083Y2433D01*
X3078Y2440D01*
X3072Y2444D01*
X3064Y2446D01*
X3056Y2444D01*
X3053Y2442D01*
X2895D01*
X2891Y2446D01*
X2886Y2450D01*
X2879Y2451D01*
D02*
G37*
G36*
X2559Y2543D02*
X2551Y2542D01*
X2543Y2539D01*
X2537Y2534D01*
X2532Y2527D01*
X2528Y2520D01*
X2527Y2511D01*
X2528Y2503D01*
X2532Y2496D01*
X2537Y2489D01*
X2543Y2484D01*
X2551Y2481D01*
X2559Y2480D01*
X2567Y2481D01*
X2575Y2484D01*
X2582Y2489D01*
X2587Y2496D01*
X2590Y2503D01*
X2591Y2511D01*
X2590Y2520D01*
X2587Y2527D01*
X2582Y2534D01*
X2575Y2539D01*
X2567Y2542D01*
X2559Y2543D01*
D02*
G37*
G36*
X2394Y2301D02*
X2385Y2300D01*
X2377Y2297D01*
X2370Y2291D01*
X2364Y2284D01*
X2361Y2276D01*
X2360Y2267D01*
X2361Y2259D01*
X2364Y2250D01*
X2370Y2243D01*
X2377Y2238D01*
X2385Y2235D01*
X2394Y2234D01*
X2402Y2235D01*
X2411Y2238D01*
X2418Y2243D01*
X2423Y2250D01*
X2426Y2259D01*
X2427Y2267D01*
X2426Y2276D01*
X2423Y2284D01*
X2418Y2291D01*
X2411Y2297D01*
X2402Y2300D01*
X2394Y2301D01*
D02*
G37*
%LPD*%
G36*
X3136Y2020D02*
X3137Y2020D01*
X3137Y2019D01*
X3137Y1613D01*
X3137Y1612D01*
X3137Y1612D01*
X3136Y1612D01*
X3125D01*
X3125Y1612D01*
X3119D01*
X3119Y1612D01*
X3095D01*
X3095Y1612D01*
X3089D01*
X3089Y1612D01*
X3066D01*
X3066Y1612D01*
X3060D01*
X3060Y1612D01*
X3048D01*
X3048Y1612D01*
X3047Y1613D01*
Y2019D01*
X3048Y2020D01*
X3048Y2020D01*
X3136D01*
X3136Y2020D01*
D02*
G37*
G36*
X2900Y1861D02*
Y1843D01*
X2895Y1842D01*
X2889Y1850D01*
X2881Y1856D01*
X2872Y1860D01*
X2863Y1861D01*
X2853Y1860D01*
X2844Y1856D01*
X2836Y1850D01*
X2830Y1842D01*
X2826Y1833D01*
X2825Y1823D01*
X2826Y1813D01*
X2827Y1812D01*
X2777Y1762D01*
X2775Y1761D01*
X2772Y1755D01*
X2771Y1752D01*
X2770Y1751D01*
X2765Y1753D01*
Y1845D01*
X2801D01*
X2808Y1846D01*
X2813Y1850D01*
X2851Y1888D01*
X2853Y1887D01*
X2863Y1886D01*
X2872Y1887D01*
X2874Y1888D01*
X2900Y1861D01*
D02*
G37*
D13*
X674Y854D02*
Y865D01*
X671Y851D02*
X674Y854D01*
X671Y827D02*
Y851D01*
Y827D02*
X674Y824D01*
Y796D02*
Y824D01*
X700Y807D02*
Y839D01*
Y807D02*
X701Y806D01*
Y782D02*
Y806D01*
X700Y781D02*
X701Y782D01*
X700Y736D02*
Y781D01*
X1038Y2425D02*
X1214D01*
X1029Y2434D02*
X1038Y2425D01*
X777Y2182D02*
X1029Y2434D01*
X777Y618D02*
Y793D01*
X937Y1689D02*
X1002Y1624D01*
X937Y1689D02*
Y1749D01*
X897Y1622D02*
X951Y1569D01*
X897Y1622D02*
Y1673D01*
Y1862D01*
X1012Y1923D02*
X1246Y2157D01*
X897Y1862D02*
X951D01*
X1012Y1923D01*
X777Y1788D02*
Y2182D01*
X712Y1723D02*
X777Y1788D01*
X937Y1749D02*
X938D01*
X1012Y1823D01*
X1067Y1785D02*
X1122Y1730D01*
X1067Y1785D02*
Y1869D01*
X1012Y1923D02*
X1067Y1869D01*
X2525Y854D02*
Y865D01*
X2521Y851D02*
X2525Y854D01*
X2521Y827D02*
Y851D01*
Y827D02*
X2525Y824D01*
Y796D02*
Y824D01*
X2550Y807D02*
Y839D01*
Y807D02*
X2552Y806D01*
Y782D02*
Y806D01*
X2550Y781D02*
X2552Y782D01*
X2550Y736D02*
Y781D01*
X2888Y2425D02*
X3064D01*
X2879Y2434D02*
X2888Y2425D01*
X2627Y2182D02*
X2879Y2434D01*
X2627Y618D02*
Y793D01*
X2787Y1689D02*
X2852Y1624D01*
X2787Y1689D02*
Y1749D01*
X2748Y1622D02*
X2801Y1569D01*
X2748Y1622D02*
Y1673D01*
Y1862D01*
X2863Y1923D02*
X3096Y2157D01*
X2748Y1862D02*
X2801D01*
X2863Y1923D01*
X2627Y1788D02*
Y2182D01*
X2563Y1723D02*
X2627Y1788D01*
X2787Y1749D02*
X2788D01*
X2863Y1823D01*
X2917Y1785D02*
X2972Y1730D01*
X2917Y1785D02*
Y1869D01*
X2863Y1923D02*
X2917Y1869D01*
D14*
X779Y2323D02*
X804Y2298D01*
X1410Y478D02*
X1496D01*
X1299Y589D02*
X1410Y478D01*
X1299Y589D02*
Y830D01*
X1210Y919D02*
X1299Y830D01*
X1035Y919D02*
X1210D01*
X945Y1010D02*
X1035Y919D01*
X945Y1010D02*
Y1185D01*
X850Y1279D02*
X945Y1185D01*
X835Y1295D02*
X850Y1279D01*
X712Y2323D02*
X779D01*
X835Y1295D02*
Y2156D01*
X659Y2023D02*
X712D01*
X622Y1986D02*
X659Y2023D01*
X622Y1172D02*
Y1986D01*
Y1172D02*
X951Y843D01*
X1161D01*
X1209Y794D01*
Y449D02*
Y794D01*
Y449D02*
X1299Y358D01*
X2629Y2323D02*
X2654Y2298D01*
X3261Y478D02*
X3347D01*
X3150Y589D02*
X3261Y478D01*
X3150Y589D02*
Y830D01*
X3061Y919D02*
X3150Y830D01*
X2886Y919D02*
X3061D01*
X2795Y1010D02*
X2886Y919D01*
X2795Y1010D02*
Y1185D01*
X2701Y1279D02*
X2795Y1185D01*
X2685Y1295D02*
X2701Y1279D01*
X2563Y2323D02*
X2629D01*
X2685Y1295D02*
Y2156D01*
X2509Y2023D02*
X2563D01*
X2472Y1986D02*
X2509Y2023D01*
X2472Y1172D02*
Y1986D01*
Y1172D02*
X2801Y843D01*
X3011D01*
X3059Y794D01*
Y449D02*
Y794D01*
Y449D02*
X3150Y358D01*
D18*
X1102Y267D02*
D03*
X516Y1724D02*
D03*
X1496Y378D02*
D03*
X2953Y267D02*
D03*
X2366Y1724D02*
D03*
X3347Y378D02*
D03*
D19*
X1102Y367D02*
D03*
Y467D02*
D03*
Y567D02*
D03*
Y667D02*
D03*
Y767D02*
D03*
X302Y267D02*
D03*
Y367D02*
D03*
Y467D02*
D03*
Y567D02*
D03*
Y667D02*
D03*
Y767D02*
D03*
X516Y1624D02*
D03*
X1496Y778D02*
D03*
Y678D02*
D03*
Y578D02*
D03*
Y478D02*
D03*
X2953Y367D02*
D03*
Y467D02*
D03*
Y567D02*
D03*
Y667D02*
D03*
Y767D02*
D03*
X2153Y267D02*
D03*
Y367D02*
D03*
Y467D02*
D03*
Y567D02*
D03*
Y667D02*
D03*
Y767D02*
D03*
X2366Y1624D02*
D03*
X3347Y778D02*
D03*
Y678D02*
D03*
Y578D02*
D03*
Y478D02*
D03*
D20*
X1291Y1070D02*
D03*
Y1267D02*
D03*
X1469Y1070D02*
D03*
Y1267D02*
D03*
X197Y2267D02*
D03*
X394D02*
D03*
X195Y2075D02*
D03*
X392D02*
D03*
X1122Y1637D02*
D03*
X1319D02*
D03*
X1602D02*
D03*
X1406D02*
D03*
X1453Y2047D02*
D03*
X1256D02*
D03*
X1008Y2696D02*
D03*
X1205D02*
D03*
X1139Y3271D02*
D03*
Y3074D02*
D03*
X1316Y3271D02*
D03*
Y3074D02*
D03*
X197Y2530D02*
D03*
X394D02*
D03*
X894Y2693D02*
D03*
X697D02*
D03*
X185Y1622D02*
D03*
X382D02*
D03*
X268Y1263D02*
D03*
X465D02*
D03*
X1047Y1094D02*
D03*
X850D02*
D03*
Y1279D02*
D03*
X1047D02*
D03*
X1012Y2531D02*
D03*
X1209D02*
D03*
X1478Y2696D02*
D03*
X1281D02*
D03*
X512Y2511D02*
D03*
X709D02*
D03*
X3142Y1070D02*
D03*
Y1267D02*
D03*
X3319Y1070D02*
D03*
Y1267D02*
D03*
X2047Y2267D02*
D03*
X2244D02*
D03*
X2045Y2075D02*
D03*
X2242D02*
D03*
X2972Y1637D02*
D03*
X3169D02*
D03*
X3453D02*
D03*
X3256D02*
D03*
X3303Y2047D02*
D03*
X3106D02*
D03*
X2858Y2696D02*
D03*
X3055D02*
D03*
X2989Y3271D02*
D03*
Y3074D02*
D03*
X3167Y3271D02*
D03*
Y3074D02*
D03*
X2047Y2530D02*
D03*
X2244D02*
D03*
X2744Y2693D02*
D03*
X2547D02*
D03*
X2035Y1622D02*
D03*
X2232D02*
D03*
X2118Y1263D02*
D03*
X2315D02*
D03*
X2898Y1094D02*
D03*
X2701D02*
D03*
Y1279D02*
D03*
X2898D02*
D03*
X2862Y2531D02*
D03*
X3059D02*
D03*
X3329Y2696D02*
D03*
X3132D02*
D03*
X2362Y2511D02*
D03*
X2559D02*
D03*
D21*
X937Y3263D02*
D03*
X787Y3271D02*
D03*
X1299Y830D02*
D03*
Y358D02*
D03*
X346Y2693D02*
D03*
X446D02*
D03*
X546D02*
D03*
X409Y1102D02*
D03*
X1579Y2560D02*
D03*
Y1924D02*
D03*
X2787Y3263D02*
D03*
X2638Y3271D02*
D03*
X3150Y830D02*
D03*
Y358D02*
D03*
X2197Y2693D02*
D03*
X2297D02*
D03*
X2397D02*
D03*
X2260Y1102D02*
D03*
X3429Y2560D02*
D03*
Y1924D02*
D03*
D22*
X575Y2937D02*
D03*
X445Y3023D02*
D03*
X315Y2937D02*
D03*
X2425D02*
D03*
X2295Y3023D02*
D03*
X2165Y2937D02*
D03*
D23*
X575Y3228D02*
D03*
X315D02*
D03*
X2425D02*
D03*
X2165D02*
D03*
D24*
X543Y2267D02*
D03*
Y2075D02*
D03*
X2394Y2267D02*
D03*
Y2075D02*
D03*
D25*
X1012Y1723D02*
D03*
Y1823D02*
D03*
Y1923D02*
D03*
Y2023D02*
D03*
Y2123D02*
D03*
Y2223D02*
D03*
Y2323D02*
D03*
X712Y1723D02*
D03*
Y1823D02*
D03*
Y1923D02*
D03*
Y2023D02*
D03*
Y2123D02*
D03*
Y2223D02*
D03*
X2863Y1723D02*
D03*
Y1823D02*
D03*
Y1923D02*
D03*
Y2023D02*
D03*
Y2123D02*
D03*
Y2223D02*
D03*
Y2323D02*
D03*
X2563Y1723D02*
D03*
Y1823D02*
D03*
Y1923D02*
D03*
Y2023D02*
D03*
Y2123D02*
D03*
Y2223D02*
D03*
D26*
X712Y2323D02*
D03*
X2563D02*
D03*
D27*
X415Y1456D02*
D03*
X465D02*
D03*
X2265D02*
D03*
X2315D02*
D03*
D28*
X515D02*
D03*
X2365D02*
D03*
D29*
X890Y2984D02*
D03*
X890Y3137D02*
D03*
X2740Y2984D02*
D03*
X2740Y3137D02*
D03*
D30*
X990Y2984D02*
D03*
X990Y3137D02*
D03*
X2840Y2984D02*
D03*
X2840Y3137D02*
D03*
D31*
X936Y1735D02*
D03*
X899Y1665D02*
D03*
X662Y784D02*
D03*
X774Y615D02*
D03*
X688Y723D02*
D03*
X700Y839D02*
D03*
X804Y2298D02*
D03*
X1523Y1328D02*
D03*
X1491D02*
D03*
X1523Y1359D02*
D03*
X1491D02*
D03*
X1214Y2425D02*
D03*
X1505Y2497D02*
D03*
X1536D02*
D03*
X1534Y2466D02*
D03*
X1507Y1860D02*
D03*
X1509Y1891D02*
D03*
X1477D02*
D03*
X777Y793D02*
D03*
X674Y865D02*
D03*
X1002Y1624D02*
D03*
X951Y1569D02*
D03*
X1246Y2157D02*
D03*
X1122Y1730D02*
D03*
X1220Y1998D02*
D03*
X1219Y1963D02*
D03*
X1260D02*
D03*
Y1998D02*
D03*
X1261Y1667D02*
D03*
X1222D02*
D03*
Y1632D02*
D03*
X1261D02*
D03*
X1119Y2986D02*
D03*
X1088D02*
D03*
X1119Y3018D02*
D03*
X1088D02*
D03*
X535Y1004D02*
D03*
Y972D02*
D03*
X503Y1004D02*
D03*
Y972D02*
D03*
X511Y1043D02*
D03*
X835Y2124D02*
D03*
X779Y2323D02*
D03*
X835Y2156D02*
D03*
X2786Y1735D02*
D03*
X2749Y1665D02*
D03*
X2513Y784D02*
D03*
X2624Y615D02*
D03*
X2538Y723D02*
D03*
X2550Y839D02*
D03*
X2654Y2298D02*
D03*
X3373Y1328D02*
D03*
X3342D02*
D03*
X3373Y1359D02*
D03*
X3342D02*
D03*
X3064Y2425D02*
D03*
X3355Y2497D02*
D03*
X3387D02*
D03*
X3385Y2466D02*
D03*
X3357Y1860D02*
D03*
X3359Y1891D02*
D03*
X3328D02*
D03*
X2627Y793D02*
D03*
X2525Y865D02*
D03*
X2852Y1624D02*
D03*
X2801Y1569D02*
D03*
X3096Y2157D02*
D03*
X2972Y1730D02*
D03*
X3071Y1998D02*
D03*
X3069Y1963D02*
D03*
X3110D02*
D03*
Y1998D02*
D03*
X3111Y1667D02*
D03*
X3073D02*
D03*
Y1632D02*
D03*
X3111D02*
D03*
X2969Y2986D02*
D03*
X2938D02*
D03*
X2969Y3018D02*
D03*
X2938D02*
D03*
X2386Y1004D02*
D03*
Y972D02*
D03*
X2353Y1004D02*
D03*
Y972D02*
D03*
X2361Y1043D02*
D03*
X2685Y2124D02*
D03*
X2629Y2323D02*
D03*
X2685Y2156D02*
D03*
M02*
