%FSLAX23Y23*%
%MOIN*%
G70*
G01*
G75*
G04 Layer_Color=16711935*
%ADD10O,0.024X0.075*%
%ADD11O,0.055X0.018*%
%ADD12O,0.018X0.055*%
%ADD13C,0.018*%
%ADD14C,0.047*%
%ADD15C,0.039*%
%ADD16C,0.024*%
%ADD17C,0.079*%
%ADD18R,0.098X0.047*%
%ADD19O,0.098X0.047*%
%ADD20C,0.047*%
%ADD21C,0.079*%
%ADD22C,0.118*%
%ADD23C,0.146*%
%ADD24C,0.051*%
%ADD25C,0.059*%
%ADD26R,0.059X0.059*%
%ADD27O,0.039X0.079*%
%ADD28O,0.039X0.079*%
%ADD29R,0.047X0.098*%
%ADD30O,0.047X0.098*%
%ADD31C,0.024*%
%ADD32C,0.008*%
%ADD33C,0.016*%
%ADD34C,0.010*%
%ADD35C,0.010*%
%ADD36O,0.031X0.083*%
%ADD37O,0.019X0.057*%
%ADD38C,0.008*%
%ADD39R,0.106X0.055*%
%ADD40O,0.106X0.055*%
%ADD41C,0.055*%
%ADD42C,0.087*%
%ADD43C,0.126*%
%ADD44C,0.154*%
%ADD45C,0.067*%
%ADD46R,0.067X0.067*%
%ADD47O,0.043X0.083*%
%ADD48O,0.043X0.083*%
%ADD49R,0.055X0.106*%
%ADD50O,0.055X0.106*%
D25*
X543Y2267D02*
D03*
Y2075D02*
D03*
X2394Y2267D02*
D03*
Y2075D02*
D03*
D38*
X1693Y3435D02*
D03*
X87Y87D02*
D03*
X3543Y3435D02*
D03*
X1937Y87D02*
D03*
D39*
X1102Y267D02*
D03*
X516Y1724D02*
D03*
X1496Y378D02*
D03*
X2953Y267D02*
D03*
X2366Y1724D02*
D03*
X3347Y378D02*
D03*
D40*
X1102Y367D02*
D03*
Y467D02*
D03*
Y567D02*
D03*
Y667D02*
D03*
Y767D02*
D03*
X302Y267D02*
D03*
Y367D02*
D03*
Y467D02*
D03*
Y567D02*
D03*
Y667D02*
D03*
Y767D02*
D03*
X516Y1624D02*
D03*
X1496Y778D02*
D03*
Y678D02*
D03*
Y578D02*
D03*
Y478D02*
D03*
X2953Y367D02*
D03*
Y467D02*
D03*
Y567D02*
D03*
Y667D02*
D03*
Y767D02*
D03*
X2153Y267D02*
D03*
Y367D02*
D03*
Y467D02*
D03*
Y567D02*
D03*
Y667D02*
D03*
Y767D02*
D03*
X2366Y1624D02*
D03*
X3347Y778D02*
D03*
Y678D02*
D03*
Y578D02*
D03*
Y478D02*
D03*
D41*
X1291Y1070D02*
D03*
Y1267D02*
D03*
X1469Y1070D02*
D03*
Y1267D02*
D03*
X197Y2267D02*
D03*
X394D02*
D03*
X195Y2075D02*
D03*
X392D02*
D03*
X1122Y1637D02*
D03*
X1319D02*
D03*
X1602D02*
D03*
X1406D02*
D03*
X1453Y2047D02*
D03*
X1256D02*
D03*
X1008Y2696D02*
D03*
X1205D02*
D03*
X1139Y3271D02*
D03*
Y3074D02*
D03*
X1316Y3271D02*
D03*
Y3074D02*
D03*
X197Y2530D02*
D03*
X394D02*
D03*
X894Y2693D02*
D03*
X697D02*
D03*
X185Y1622D02*
D03*
X382D02*
D03*
X268Y1263D02*
D03*
X465D02*
D03*
X1047Y1094D02*
D03*
X850D02*
D03*
Y1279D02*
D03*
X1047D02*
D03*
X1012Y2531D02*
D03*
X1209D02*
D03*
X1478Y2696D02*
D03*
X1281D02*
D03*
X512Y2511D02*
D03*
X709D02*
D03*
X3142Y1070D02*
D03*
Y1267D02*
D03*
X3319Y1070D02*
D03*
Y1267D02*
D03*
X2047Y2267D02*
D03*
X2244D02*
D03*
X2045Y2075D02*
D03*
X2242D02*
D03*
X2972Y1637D02*
D03*
X3169D02*
D03*
X3453D02*
D03*
X3256D02*
D03*
X3303Y2047D02*
D03*
X3106D02*
D03*
X2858Y2696D02*
D03*
X3055D02*
D03*
X2989Y3271D02*
D03*
Y3074D02*
D03*
X3167Y3271D02*
D03*
Y3074D02*
D03*
X2047Y2530D02*
D03*
X2244D02*
D03*
X2744Y2693D02*
D03*
X2547D02*
D03*
X2035Y1622D02*
D03*
X2232D02*
D03*
X2118Y1263D02*
D03*
X2315D02*
D03*
X2898Y1094D02*
D03*
X2701D02*
D03*
Y1279D02*
D03*
X2898D02*
D03*
X2862Y2531D02*
D03*
X3059D02*
D03*
X3329Y2696D02*
D03*
X3132D02*
D03*
X2362Y2511D02*
D03*
X2559D02*
D03*
D42*
X937Y3263D02*
D03*
X787Y3271D02*
D03*
X1299Y830D02*
D03*
Y358D02*
D03*
X346Y2693D02*
D03*
X446D02*
D03*
X546D02*
D03*
X409Y1102D02*
D03*
X1579Y2560D02*
D03*
Y1924D02*
D03*
X2787Y3263D02*
D03*
X2638Y3271D02*
D03*
X3150Y830D02*
D03*
Y358D02*
D03*
X2197Y2693D02*
D03*
X2297D02*
D03*
X2397D02*
D03*
X2260Y1102D02*
D03*
X3429Y2560D02*
D03*
Y1924D02*
D03*
D43*
X575Y2937D02*
D03*
X445Y3023D02*
D03*
X315Y2937D02*
D03*
X2425D02*
D03*
X2295Y3023D02*
D03*
X2165Y2937D02*
D03*
D44*
X575Y3228D02*
D03*
X315D02*
D03*
X2425D02*
D03*
X2165D02*
D03*
D45*
X1012Y1723D02*
D03*
Y1823D02*
D03*
Y1923D02*
D03*
Y2023D02*
D03*
Y2123D02*
D03*
Y2223D02*
D03*
Y2323D02*
D03*
X712Y1723D02*
D03*
Y1823D02*
D03*
Y1923D02*
D03*
Y2023D02*
D03*
Y2123D02*
D03*
Y2223D02*
D03*
X2863Y1723D02*
D03*
Y1823D02*
D03*
Y1923D02*
D03*
Y2023D02*
D03*
Y2123D02*
D03*
Y2223D02*
D03*
Y2323D02*
D03*
X2563Y1723D02*
D03*
Y1823D02*
D03*
Y1923D02*
D03*
Y2023D02*
D03*
Y2123D02*
D03*
Y2223D02*
D03*
D46*
X712Y2323D02*
D03*
X2563D02*
D03*
D47*
X415Y1456D02*
D03*
X465D02*
D03*
X2265D02*
D03*
X2315D02*
D03*
D48*
X515D02*
D03*
X2365D02*
D03*
D49*
X890Y2984D02*
D03*
X890Y3137D02*
D03*
X2740Y2984D02*
D03*
X2740Y3137D02*
D03*
D50*
X990Y2984D02*
D03*
X990Y3137D02*
D03*
X2840Y2984D02*
D03*
X2840Y3137D02*
D03*
M02*
