M48
;Layer_Color=9474304
;FILE_FORMAT=4:4
METRIC,LZ
;TYPE=PLATED
T1F00S00C0.3000
T2F00S00C0.5500
T3F00S00C0.6000
T4F00S00C0.7000
T5F00S00C0.8800
T6F00S00C0.9000
T7F00S00C1.0000
T8F00S00C1.5000
T9F00S00C1.8000
T10F00S00C3.2000
%
T01
X00666512Y0015626
X0066725Y00201439
X0064775Y00213092
X0064125Y00219592
X0063826Y00199012
X00644761Y00183762
X00606Y00247
Y00255
X0059775
Y00247
X0059975Y00265
X007115Y003984
X007245Y004125
X0069825Y00422888
X0070775Y0044075
X00755Y004395
X007805Y004235
Y004145
X00790206
Y004235
X0079Y004985
Y00507475
X00779932
X00779614Y004985
X0084525Y0048025
X0085325
X0085275Y0047236
X0084875Y003453
X0085675
Y003373
X0084875
X0038675
Y003453
X0037875
Y003373
X00320206Y004145
Y004235
X003105
Y004145
X00285Y004395
X0023775Y0044075
X0022825Y00422888
X002545Y004125
X002415Y003984
X00309614Y004985
X00309932Y00507475
X0032
Y004985
X0037525Y0048025
X0038325
X0038275Y0047236
X0019725Y00201439
X0017775Y00213092
X0017125Y00219592
X0016826Y00199012
X00174761Y00183762
X00196512Y0015626
X00136Y00247
Y00255
X0012775
Y00247
X0012975Y00265
X00212Y005395
Y005475
X00204184Y0058375
X00197834Y005901
X0030825Y00616
X003165Y005479
X0038975Y0062636
X0039025Y0063425
X0038225
X0028425Y007585
Y007665
X0027625
Y007585
X0074625
Y007665
X0075425
Y007585
X0077825Y00616
X007865Y005479
X00682Y005475
Y005395
X00674184Y0058375
X00667834Y005901
X0085975Y0062636
X0086025Y0063425
X0085225
T02
X005753Y003699
X00588
X006007
X00608Y005271
X00138
X001307Y003699
X00118
X001053
X00138Y005759
X00608
T03
X00588Y003209
X00686Y003249
Y002779
X00736
Y003249
X00798Y003219
X00843
Y002719
X00798
X00805Y004159
X00827
X00877
X00755
X00789Y005199
X00839
X0056952Y005271
X00567Y004119
X00517
X00538Y003209
X00373Y003219
X00328
Y002719
X00373
X00266Y002779
Y003249
X00216
Y002779
X00285Y004159
X00335
X00357
X00407
X00369Y005199
X00319
X0051952Y005271
X0009952
X0004952
X00047Y004119
X00097
X00118Y003209
X00068
X0005Y005759
X001
X001Y0064265
X0013Y006379
X0005Y0064265
X0018Y006379
X00177Y006839
X00227
X00256Y006849
X00257Y006429
X00307
X00306Y006849
X003255
X003755
X00334293Y007809
X00289293
Y008309
X00334293
X0052Y0064265
X0052Y005759
X0057
X0057Y0064265
X006Y006379
X0065
X00647Y006839
X00697
X00726Y006849
X00727Y006429
X00777
X00776Y006849
X007955
X008455
X00804293Y007809
X00759293
Y008309
X00804293
T04
X000768Y000679
Y000933
Y001187
X0028
Y000933
Y000679
X0038005Y000959
Y001213
X005468Y001187
Y000933
Y000679
X0075
Y000933
Y001187
X0085005Y001213
Y000959
Y001467
Y001721
Y001975
X0075Y001949
Y001695
Y001441
X005468
Y001695
Y001949
X00574Y002799
X00601Y004125
Y004379
X00871Y0048865
X00401
X0038005Y001975
Y001721
Y001467
X0028Y001441
Y001695
Y001949
X000768
Y001695
Y001441
X00104Y002799
X00131Y004125
Y004379
X00226Y007579
X002514
X002514Y007969
X00226
X00238Y008289
X002Y008309
X00401Y0065025
X00696Y007579
X007214
X007214Y007969
X00696
X00708Y008289
X0067Y008309
X00871Y0065025
T05
X00088Y006839
X001134
X001388
X00558
X005834
X006088
T06
X006509Y004377
Y004631
Y004885
Y005139
X007271
Y004885
Y004631
Y004377
X002571
Y004631
Y004885
Y005139
X001809
Y004885
Y004631
Y004377
Y005393
Y005647
Y005901
X002571
Y005647
Y005393
X006509
Y005647
Y005901
X007271
Y005647
Y005393
T07
X0033005Y000909
X0080005
Y002109
X0033005
T08
X0008Y007459
X00113Y007679
X00146Y007459
X0055
X00583Y007679
X00616Y007459
T09
X0008Y008199
X00146
X0055
X00616
T10
X00022Y00022
X00492
X0043Y008725
X009
M30
