M48
;Layer_Color=9474304
;FILE_FORMAT=2:3
INCH,LZ
;TYPE=PLATED
T1F00S00C0.012
T2F00S00C0.022
T3F00S00C0.024
T4F00S00C0.028
T5F00S00C0.035
T6F00S00C0.039
T7F00S00C0.059
T8F00S00C0.071
T9F00S00C0.126
%
T01
X02624Y00615
X02627Y00793
X0255Y00839
X02525Y00865
X02513Y00784
X02538Y00723
X02386Y00972
Y01004
X02353
Y00972
X02361Y01043
X02801Y01569
X02852Y01624
X02749Y01665
X02786Y01735
X02972Y0173
X03073Y01667
Y01632
X03111
Y01667
X0311Y01963
Y01998
X03071
X03069Y01963
X03328Y01891
X03359
X03357Y0186
X03342Y01359
Y01328
X03373
Y01359
X01523
Y01328
X01491
Y01359
X01261Y01632
Y01667
X01222
Y01632
X01122Y0173
X00936Y01735
X00899Y01665
X01002Y01624
X00951Y01569
X01219Y01963
X0122Y01998
X0126
Y01963
X01477Y01891
X01509
X01507Y0186
X00777Y00793
X007Y00839
X00674Y00865
X00662Y00784
X00688Y00723
X00774Y00615
X00535Y00972
Y01004
X00503
Y00972
X00511Y01043
X00835Y02124
Y02156
X00804Y02298
X00779Y02323
X01214Y02425
X01246Y02157
X01534Y02466
X01536Y02497
X01505
X01119Y02986
X01088
Y03018
X01119
X02938
Y02986
X02969
Y03018
X03064Y02425
X03096Y02157
X02685Y02156
Y02124
X02654Y02298
X02629Y02323
X03385Y02466
X03387Y02497
X03355
T02
X02265Y01456
X02315
X02365
X02394Y02075
X00543
X00515Y01456
X00465
X00415
X00543Y02267
X02394
T03
X02315Y01263
X02701Y01279
Y01094
X02898
Y01279
X03142Y01267
X03319
Y0107
X03142
X03169Y01637
X03256
X03453
X02972
X03106Y02047
X03303
X02242Y02075
X02232Y01622
X02035
X02118Y01263
X01469Y01267
X01291
Y0107
X01469
X01047Y01094
Y01279
X0085
Y01094
X01122Y01637
X01319
X01406
X01602
X01453Y02047
X01256
X02045Y02075
X00392
X00195
X00185Y01622
X00382
X00465Y01263
X00268
X00197Y02267
X00394
X00394Y0253
X00512Y02511
X00197Y0253
X00709Y02511
X00697Y02693
X00894
X01008Y02696
X01012Y02531
X01209
X01205Y02696
X01281
X01478
X01316Y03074
X01139
Y03271
X01316
X02047Y0253
X02047Y02267
X02244
X02244Y0253
X02362Y02511
X02559
X02547Y02693
X02744
X02858Y02696
X02862Y02531
X03059
X03055Y02696
X03132
X03329
X03167Y03074
X02989
Y03271
X03167
T04
X00302Y00267
Y00367
Y00467
X01102
Y00367
Y00267
X01496Y00378
Y00478
X02153Y00467
Y00367
Y00267
X02953
Y00367
Y00467
X03347Y00478
Y00378
Y00578
Y00678
Y00778
X02953Y00767
Y00667
Y00567
X02153
Y00667
Y00767
X0226Y01102
X02366Y01624
Y01724
X03429Y01924
X01579
X01496Y00778
Y00678
Y00578
X01102Y00567
Y00667
Y00767
X00302
Y00667
Y00567
X00409Y01102
X00516Y01624
Y01724
X0089Y02984
X0099
X0099Y03137
X0089
X00937Y03263
X00787Y03271
X01579Y0256
X0274Y02984
X0284
X0284Y03137
X0274
X02787Y03263
X02638Y03271
X03429Y0256
T05
X02563Y01723
Y01823
Y01923
Y02023
X02863
Y01923
Y01823
Y01723
X01012
Y01823
Y01923
Y02023
X00712
Y01923
Y01823
Y01723
X00546Y02693
X00446
X00346
X00712Y02323
Y02223
Y02123
X01012
Y02223
Y02323
X02563
Y02223
Y02123
X02863
Y02223
Y02323
X02397Y02693
X02297
X02197
T06
X01299Y00358
X0315
Y0083
X01299
T07
X00315Y02937
X00445Y03023
X00575Y02937
X02165
X02295Y03023
X02425Y02937
T08
X00315Y03228
X00575
X02165
X02425
T09
X00087Y00087
X01937
X01693Y03435
X03543
M30
